<svg xmlns="http://www.w3.org/2000/svg" xmlns:xlink="http://www.w3.org/1999/xlink" width="600" zoomAndPan="magnify" viewBox="0 0 450 449.999984" height="600" preserveAspectRatio="xMidYMid meet" version="1.0"><defs><clipPath id="f98e5209c4"><path d="M 117.253906 220.011719 L 212 220.011719 L 212 230.691406 L 117.253906 230.691406 Z M 117.253906 220.011719 " clip-rule="nonzero"/></clipPath><clipPath id="c09a00aac8"><path d="M 74.949219 219.300781 L 107.398438 219.300781 L 107.398438 230.695312 L 74.949219 230.695312 Z M 74.949219 219.300781 " clip-rule="nonzero"/></clipPath><clipPath id="9ab3e1fd5d"><path d="M 217.839844 250.691406 L 227.335938 250.691406 L 227.335938 358.320312 L 217.839844 358.320312 Z M 217.839844 250.691406 " clip-rule="nonzero"/></clipPath><clipPath id="004f0a71c1"><path d="M 217.835938 277.394531 L 244.800781 277.394531 L 244.800781 287.34375 L 217.835938 287.34375 Z M 217.835938 277.394531 " clip-rule="nonzero"/></clipPath><clipPath id="77fe95eb30"><path d="M 217.835938 349 L 248.863281 349 L 248.863281 358.308594 L 217.835938 358.308594 Z M 217.835938 349 " clip-rule="nonzero"/></clipPath><clipPath id="13943dc0d6"><path d="M 253.046875 325.832031 L 270.53125 325.832031 L 270.53125 335.894531 L 253.046875 335.894531 Z M 253.046875 325.832031 " clip-rule="nonzero"/></clipPath><clipPath id="2b634a1d6a"><path d="M 278.15625 303.738281 L 310.726562 303.738281 L 310.726562 313.234375 L 278.15625 313.234375 Z M 278.15625 303.738281 " clip-rule="nonzero"/></clipPath><clipPath id="753d1c8665"><path d="M 267.535156 272.652344 L 327.402344 272.652344 L 327.402344 282.148438 L 267.535156 282.148438 Z M 267.535156 272.652344 " clip-rule="nonzero"/></clipPath><clipPath id="a9c0494e98"><path d="M 292.273438 250.691406 L 302.675781 250.691406 L 302.675781 275.429688 L 292.273438 275.429688 Z M 292.273438 250.691406 " clip-rule="nonzero"/></clipPath><clipPath id="6593f3e795"><path d="M 290.847656 349 L 363.96875 349 L 363.96875 358.308594 L 290.847656 358.308594 Z M 290.847656 349 " clip-rule="nonzero"/></clipPath><clipPath id="14acbc1e29"><path d="M 320.25 325.996094 L 329.890625 325.996094 L 329.890625 353.410156 L 320.25 353.410156 Z M 320.25 325.996094 " clip-rule="nonzero"/></clipPath><clipPath id="e573759640"><path d="M 354.453125 282.15625 L 363.96875 282.15625 L 363.96875 349.535156 L 354.453125 349.535156 Z M 354.453125 282.15625 " clip-rule="nonzero"/></clipPath><clipPath id="9f1e3383c2"><path d="M 354.453125 250.691406 L 363.96875 250.691406 L 363.96875 265.636719 L 354.453125 265.636719 Z M 354.453125 250.691406 " clip-rule="nonzero"/></clipPath><clipPath id="472b2c945c"><path d="M 244.800781 237.425781 L 268.417969 237.425781 L 268.417969 246.925781 L 244.800781 246.925781 Z M 244.800781 237.425781 " clip-rule="nonzero"/></clipPath><clipPath id="b978c6071d"><path d="M 270.535156 215.003906 L 292 215.003906 L 292 225.402344 L 270.535156 225.402344 Z M 270.535156 215.003906 " clip-rule="nonzero"/></clipPath><clipPath id="427b838316"><path d="M 318.050781 227.035156 L 331 227.035156 L 331 237.4375 L 318.050781 237.4375 Z M 318.050781 227.035156 " clip-rule="nonzero"/></clipPath><clipPath id="86494e152d"><path d="M 344.9375 216.636719 L 363.972656 216.636719 L 363.972656 227.035156 L 344.9375 227.035156 Z M 344.9375 216.636719 " clip-rule="nonzero"/></clipPath><clipPath id="989a221ca7"><path d="M 74.945312 249.390625 L 200.808594 249.390625 L 200.808594 375.253906 L 74.945312 375.253906 Z M 74.945312 249.390625 " clip-rule="nonzero"/></clipPath><clipPath id="15ee81d215"><path d="M 102.242188 277.167969 L 173.351562 277.167969 L 173.351562 347.3125 L 102.242188 347.3125 Z M 102.242188 277.167969 " clip-rule="nonzero"/></clipPath><clipPath id="030210c659"><path d="M 74.945312 74.910156 L 200.808594 74.910156 L 200.808594 200.773438 L 74.945312 200.773438 Z M 74.945312 74.910156 " clip-rule="nonzero"/></clipPath><clipPath id="0abb190105"><path d="M 102.242188 102.6875 L 173.351562 102.6875 L 173.351562 172.832031 L 102.242188 172.832031 Z M 102.242188 102.6875 " clip-rule="nonzero"/></clipPath><clipPath id="7028cbbe10"><path d="M 249.355469 74.910156 L 375.21875 74.910156 L 375.21875 200.773438 L 249.355469 200.773438 Z M 249.355469 74.910156 " clip-rule="nonzero"/></clipPath><clipPath id="6908ddfd8d"><path d="M 276.648438 102.6875 L 347.757812 102.6875 L 347.757812 172.832031 L 276.648438 172.832031 Z M 276.648438 102.6875 " clip-rule="nonzero"/></clipPath><clipPath id="4562fa0a0b"><path d="M 219.292969 74.90625 L 230.9375 74.90625 L 230.9375 127.960938 L 219.292969 127.960938 Z M 219.292969 74.90625 " clip-rule="nonzero"/></clipPath><clipPath id="1a3f998109"><path d="M 219.292969 147.582031 L 230.9375 147.582031 L 230.9375 175.84375 L 219.292969 175.84375 Z M 219.292969 147.582031 " clip-rule="nonzero"/></clipPath><clipPath id="4fc773ae91"><path d="M 219.292969 188.371094 L 230.9375 188.371094 L 230.9375 206.246094 L 219.292969 206.246094 Z M 219.292969 188.371094 " clip-rule="nonzero"/></clipPath></defs><rect x="-45" width="540" fill="#ffffff" y="-44.999998" height="539.99998" fill-opacity="1"/><rect x="-45" width="540" fill="#ffffff" y="-44.999998" height="539.99998" fill-opacity="1"/><g clip-path="url(#f98e5209c4)"><path fill="#191308" d="M 117.253906 230.691406 L 117.253906 220.246094 L 211.90625 220.246094 L 211.90625 230.691406 Z M 117.253906 230.691406 " fill-opacity="1" fill-rule="nonzero"/></g><g clip-path="url(#c09a00aac8)"><path fill="#191308" d="M 74.949219 230.695312 L 74.949219 219.597656 L 107.585938 219.597656 L 107.585938 230.695312 Z M 74.949219 230.695312 " fill-opacity="1" fill-rule="nonzero"/></g><g clip-path="url(#9ab3e1fd5d)"><path fill="#191308" d="M 217.839844 250.691406 L 227.132812 250.691406 L 227.132812 358.632812 L 217.839844 358.632812 Z M 217.839844 250.691406 " fill-opacity="1" fill-rule="nonzero"/></g><g clip-path="url(#004f0a71c1)"><path fill="#191308" d="M 217.835938 287.34375 L 217.835938 277.335938 L 245 277.335938 L 245 287.34375 Z M 217.835938 287.34375 " fill-opacity="1" fill-rule="nonzero"/></g><g clip-path="url(#77fe95eb30)"><path fill="#191308" d="M 217.835938 358.308594 L 217.835938 349.015625 L 248.574219 349.015625 L 248.574219 358.308594 Z M 217.835938 358.308594 " fill-opacity="1" fill-rule="nonzero"/></g><g clip-path="url(#13943dc0d6)"><path fill="#191308" d="M 253.046875 335.894531 L 253.046875 325.886719 L 270.203125 325.886719 L 270.203125 335.894531 Z M 253.046875 335.894531 " fill-opacity="1" fill-rule="nonzero"/></g><g clip-path="url(#2b634a1d6a)"><path fill="#191308" d="M 278.15625 313.234375 L 278.15625 303.941406 L 311.039062 303.941406 L 311.039062 313.234375 Z M 278.15625 313.234375 " fill-opacity="1" fill-rule="nonzero"/></g><g clip-path="url(#753d1c8665)"><path fill="#191308" d="M 267.535156 282.148438 L 267.535156 272.855469 L 327.582031 272.855469 L 327.582031 282.148438 Z M 267.535156 282.148438 " fill-opacity="1" fill-rule="nonzero"/></g><g clip-path="url(#a9c0494e98)"><path fill="#191308" d="M 292.273438 250.691406 L 302.996094 250.691406 L 302.996094 275.710938 L 292.273438 275.710938 Z M 292.273438 250.691406 " fill-opacity="1" fill-rule="nonzero"/></g><g clip-path="url(#6593f3e795)"><path fill="#191308" d="M 290.847656 358.308594 L 290.847656 349.015625 L 363.761719 349.015625 L 363.761719 358.308594 Z M 290.847656 358.308594 " fill-opacity="1" fill-rule="nonzero"/></g><g clip-path="url(#14acbc1e29)"><path fill="#191308" d="M 320.25 325.996094 L 329.542969 325.996094 L 329.542969 353.160156 L 320.25 353.160156 Z M 320.25 325.996094 " fill-opacity="1" fill-rule="nonzero"/></g><g clip-path="url(#e573759640)"><path fill="#191308" d="M 354.453125 282.15625 L 363.746094 282.15625 L 363.746094 349.347656 L 354.453125 349.347656 Z M 354.453125 282.15625 " fill-opacity="1" fill-rule="nonzero"/></g><g clip-path="url(#9f1e3383c2)"><path fill="#191308" d="M 354.453125 250.691406 L 363.746094 250.691406 L 363.746094 265.703125 L 354.453125 265.703125 Z M 354.453125 250.691406 " fill-opacity="1" fill-rule="nonzero"/></g><g clip-path="url(#472b2c945c)"><path fill="#191308" d="M 244.800781 246.925781 L 244.800781 237.632812 L 268.390625 237.632812 L 268.390625 246.925781 Z M 244.800781 246.925781 " fill-opacity="1" fill-rule="nonzero"/></g><g clip-path="url(#b978c6071d)"><path fill="#191308" d="M 270.535156 225.402344 L 270.535156 214.679688 L 291.980469 214.679688 L 291.980469 225.402344 Z M 270.535156 225.402344 " fill-opacity="1" fill-rule="nonzero"/></g><g clip-path="url(#427b838316)"><path fill="#191308" d="M 318.050781 237.4375 L 318.050781 226.714844 L 330.917969 226.714844 L 330.917969 237.4375 Z M 318.050781 237.4375 " fill-opacity="1" fill-rule="nonzero"/></g><g clip-path="url(#86494e152d)"><path fill="#191308" d="M 344.9375 227.035156 L 344.9375 216.3125 L 364.238281 216.3125 L 364.238281 227.035156 Z M 344.9375 227.035156 " fill-opacity="1" fill-rule="nonzero"/></g><g clip-path="url(#989a221ca7)"><path fill="#191308" d="M 81.941406 256.382812 L 193.816406 256.382812 L 193.816406 368.261719 L 81.941406 368.261719 Z M 74.945312 375.253906 L 200.808594 375.253906 L 200.808594 249.390625 L 74.945312 249.390625 L 74.945312 375.253906 " fill-opacity="1" fill-rule="nonzero"/></g><g clip-path="url(#15ee81d215)"><path fill="#191308" d="M 102.242188 277.167969 L 173.371094 277.167969 L 173.371094 347.144531 L 102.242188 347.144531 Z M 102.242188 277.167969 " fill-opacity="1" fill-rule="nonzero"/></g><g clip-path="url(#030210c659)"><path fill="#191308" d="M 81.941406 81.902344 L 193.816406 81.902344 L 193.816406 193.78125 L 81.941406 193.78125 Z M 74.945312 200.773438 L 200.808594 200.773438 L 200.808594 74.910156 L 74.945312 74.910156 L 74.945312 200.773438 " fill-opacity="1" fill-rule="nonzero"/></g><g clip-path="url(#0abb190105)"><path fill="#191308" d="M 102.242188 102.6875 L 173.371094 102.6875 L 173.371094 172.660156 L 102.242188 172.660156 Z M 102.242188 102.6875 " fill-opacity="1" fill-rule="nonzero"/></g><g clip-path="url(#7028cbbe10)"><path fill="#191308" d="M 256.347656 81.902344 L 368.226562 81.902344 L 368.226562 193.78125 L 256.347656 193.78125 Z M 249.355469 200.773438 L 375.21875 200.773438 L 375.21875 74.910156 L 249.355469 74.910156 L 249.355469 200.773438 " fill-opacity="1" fill-rule="nonzero"/></g><g clip-path="url(#6908ddfd8d)"><path fill="#191308" d="M 276.648438 102.6875 L 347.78125 102.6875 L 347.78125 172.660156 L 276.648438 172.660156 Z M 276.648438 102.6875 " fill-opacity="1" fill-rule="nonzero"/></g><g clip-path="url(#4562fa0a0b)"><path fill="#191308" d="M 230.9375 127.960938 L 219.601562 127.960938 L 219.601562 74.601562 L 230.9375 74.601562 Z M 230.9375 127.960938 " fill-opacity="1" fill-rule="nonzero"/></g><g clip-path="url(#1a3f998109)"><path fill="#191308" d="M 230.9375 175.84375 L 219.601562 175.84375 L 219.601562 147.828125 L 230.9375 147.828125 Z M 230.9375 175.84375 " fill-opacity="1" fill-rule="nonzero"/></g><g clip-path="url(#4fc773ae91)"><path fill="#191308" d="M 230.9375 206.246094 L 219.601562 206.246094 L 219.601562 188.238281 L 230.9375 188.238281 Z M 230.9375 206.246094 " fill-opacity="1" fill-rule="nonzero"/></g></svg>