<svg xmlns="http://www.w3.org/2000/svg" xmlns:xlink="http://www.w3.org/1999/xlink" width="600" zoomAndPan="magnify" viewBox="0 0 450 449.999984" height="600" preserveAspectRatio="xMidYMid meet" version="1.0"><defs><clipPath id="15ae090a9a"><path d="M 75.386719 73.808594 L 201.394531 73.808594 L 201.394531 200.71875 L 75.386719 200.71875 Z M 75.386719 73.808594 " clip-rule="nonzero"/></clipPath><clipPath id="fe1a245e85"><path d="M 81.800781 80.492188 L 194.980469 80.492188 L 194.980469 194.039062 L 81.800781 194.039062 Z M 81.800781 80.492188 " clip-rule="nonzero"/></clipPath><clipPath id="824bd64937"><path d="M 103.847656 103.699219 L 175.882812 103.699219 L 175.882812 174.757812 L 103.847656 174.757812 Z M 103.847656 103.699219 " clip-rule="nonzero"/></clipPath><clipPath id="4450084d6b"><path d="M 220.136719 75.015625 L 229.757812 75.015625 L 229.757812 134.796875 L 220.136719 134.796875 Z M 220.136719 75.015625 " clip-rule="nonzero"/></clipPath><clipPath id="ec997cf0b9"><path d="M 220.136719 148.460938 L 229.863281 148.460938 L 229.863281 173.820312 L 220.136719 173.820312 Z M 220.136719 148.460938 " clip-rule="nonzero"/></clipPath><clipPath id="75d5c50d2b"><path d="M 220.136719 183.378906 L 229.757812 183.378906 L 229.757812 201.925781 L 220.136719 201.925781 Z M 220.136719 183.378906 " clip-rule="nonzero"/></clipPath><clipPath id="082e4c5cec"><path d="M 118.246094 222.1875 L 214.273438 222.1875 L 214.273438 233.003906 L 118.246094 233.003906 Z M 118.246094 222.1875 " clip-rule="nonzero"/></clipPath><clipPath id="26778c0aa4"><path d="M 75.386719 221.453125 L 108.261719 221.453125 L 108.261719 233 L 75.386719 233 Z M 75.386719 221.453125 " clip-rule="nonzero"/></clipPath><clipPath id="7b19a7de35"><path d="M 220.136719 253.085938 L 229.757812 253.085938 L 229.757812 362 L 220.136719 362 Z M 220.136719 253.085938 " clip-rule="nonzero"/></clipPath><clipPath id="e1850b4599"><path d="M 220.148438 280.136719 L 247.460938 280.136719 L 247.460938 290.214844 L 220.148438 290.214844 Z M 220.148438 280.136719 " clip-rule="nonzero"/></clipPath><clipPath id="50345b7b19"><path d="M 220.136719 352.472656 L 251.566406 352.472656 L 251.566406 362.09375 L 220.136719 362.09375 Z M 220.136719 352.472656 " clip-rule="nonzero"/></clipPath><clipPath id="943b53ae9b"><path d="M 255.796875 329.203125 L 273.507812 329.203125 L 273.507812 339.398438 L 255.796875 339.398438 Z M 255.796875 329.203125 " clip-rule="nonzero"/></clipPath><clipPath id="533af8b0db"><path d="M 281.242188 306.816406 L 314.238281 306.816406 L 314.238281 316.433594 L 281.242188 316.433594 Z M 281.242188 306.816406 " clip-rule="nonzero"/></clipPath><clipPath id="347096ebe3"><path d="M 270.480469 275.328125 L 331.125 275.328125 L 331.125 284.945312 L 270.480469 284.945312 Z M 270.480469 275.328125 " clip-rule="nonzero"/></clipPath><clipPath id="b6d0ce937b"><path d="M 295.539062 253.085938 L 306 253.085938 L 306 278 L 295.539062 278 Z M 295.539062 253.085938 " clip-rule="nonzero"/></clipPath><clipPath id="10713e52fd"><path d="M 294.09375 352.480469 L 368 352.480469 L 368 362.101562 L 294.09375 362.101562 Z M 294.09375 352.480469 " clip-rule="nonzero"/></clipPath><clipPath id="71e0a34ee2"><path d="M 323.878906 329.367188 L 333.644531 329.367188 L 333.644531 357 L 323.878906 357 Z M 323.878906 329.367188 " clip-rule="nonzero"/></clipPath><clipPath id="45fb11226b"><path d="M 358.527344 284.957031 L 368.167969 284.957031 L 368.167969 353.214844 L 358.527344 353.214844 Z M 358.527344 284.957031 " clip-rule="nonzero"/></clipPath><clipPath id="ae5e87b3e6"><path d="M 358.527344 253.085938 L 368.167969 253.085938 L 368.167969 268 L 358.527344 268 Z M 358.527344 253.085938 " clip-rule="nonzero"/></clipPath><clipPath id="a4d367835d"><path d="M 247.441406 239.648438 L 271.371094 239.648438 L 271.371094 249.269531 L 247.441406 249.269531 Z M 247.441406 239.648438 " clip-rule="nonzero"/></clipPath><clipPath id="399caa7498"><path d="M 273.523438 217 L 295.546875 217 L 295.546875 227.453125 L 273.523438 227.453125 Z M 273.523438 217 " clip-rule="nonzero"/></clipPath><clipPath id="bc5e448334"><path d="M 321.65625 229.109375 L 334.992188 229.109375 L 334.992188 239.644531 L 321.65625 239.644531 Z M 321.65625 229.109375 " clip-rule="nonzero"/></clipPath><clipPath id="645bffc64a"><path d="M 348.894531 218.570312 L 368 218.570312 L 368 229.105469 L 348.894531 229.105469 Z M 348.894531 218.570312 " clip-rule="nonzero"/></clipPath><clipPath id="fa932c5d8f"><path d="M 249.023438 75.773438 L 375.03125 75.773438 L 375.03125 202.683594 L 249.023438 202.683594 Z M 249.023438 75.773438 " clip-rule="nonzero"/></clipPath><clipPath id="1df03c9c8e"><path d="M 255.4375 82.453125 L 368.617188 82.453125 L 368.617188 196.003906 L 255.4375 196.003906 Z M 255.4375 82.453125 " clip-rule="nonzero"/></clipPath><clipPath id="4f5c7e07cb"><path d="M 274.535156 101.734375 L 349.519531 101.734375 L 349.519531 176.722656 L 274.535156 176.722656 Z M 274.535156 101.734375 " clip-rule="nonzero"/></clipPath><clipPath id="ae915e638d"><path d="M 74.96875 249.28125 L 200.976562 249.28125 L 200.976562 376 L 74.96875 376 Z M 74.96875 249.28125 " clip-rule="nonzero"/></clipPath><clipPath id="44a54b2e2e"><path d="M 81.382812 255.960938 L 194.5625 255.960938 L 194.5625 369.507812 L 81.382812 369.507812 Z M 81.382812 255.960938 " clip-rule="nonzero"/></clipPath><clipPath id="1b32e9c0bb"><path d="M 100.480469 275.242188 L 175.464844 275.242188 L 175.464844 350.226562 L 100.480469 350.226562 Z M 100.480469 275.242188 " clip-rule="nonzero"/></clipPath></defs><rect x="-45" width="540" fill="#ffffff" y="-44.999998" height="539.99998" fill-opacity="1"/><rect x="-45" width="540" fill="#ffffff" y="-44.999998" height="539.99998" fill-opacity="1"/><g clip-path="url(#15ae090a9a)"><path fill="#000000" d="M 75.386719 73.808594 L 201.925781 73.808594 L 201.925781 200.347656 L 75.386719 200.347656 Z M 75.386719 73.808594 " fill-opacity="1" fill-rule="nonzero"/></g><g clip-path="url(#fe1a245e85)"><path fill="#ffffff" d="M 81.800781 80.492188 L 195.453125 80.492188 L 195.453125 194.140625 L 81.800781 194.140625 Z M 81.800781 80.492188 " fill-opacity="1" fill-rule="nonzero"/></g><g clip-path="url(#824bd64937)"><path fill="#000000" d="M 103.847656 103.699219 L 175.320312 103.699219 L 175.320312 175.171875 L 103.847656 175.171875 Z M 103.847656 103.699219 " fill-opacity="1" fill-rule="nonzero"/></g><g clip-path="url(#4450084d6b)"><path fill="#000000" d="M 220.136719 75.015625 L 229.394531 75.015625 L 229.394531 134.53125 L 220.136719 134.53125 Z M 220.136719 75.015625 " fill-opacity="1" fill-rule="nonzero"/></g><g clip-path="url(#ec997cf0b9)"><path fill="#000000" d="M 220.136719 148.460938 L 229.394531 148.460938 L 229.394531 173.589844 L 220.136719 173.589844 Z M 220.136719 148.460938 " fill-opacity="1" fill-rule="nonzero"/></g><g clip-path="url(#75d5c50d2b)"><path fill="#000000" d="M 220.136719 183.378906 L 229.394531 183.378906 L 229.394531 201.894531 L 220.136719 201.894531 Z M 220.136719 183.378906 " fill-opacity="1" fill-rule="nonzero"/></g><g clip-path="url(#082e4c5cec)"><path fill="#000000" d="M 118.246094 233.003906 L 118.246094 222.421875 L 214.792969 222.421875 L 214.792969 233.003906 Z M 118.246094 233.003906 " fill-opacity="1" fill-rule="nonzero"/></g><g clip-path="url(#26778c0aa4)"><path fill="#000000" d="M 75.386719 233 L 75.386719 221.09375 L 108.449219 221.09375 L 108.449219 233 Z M 75.386719 233 " fill-opacity="1" fill-rule="nonzero"/></g><g clip-path="url(#7b19a7de35)"><path fill="#000000" d="M 220.136719 253.085938 L 230.273438 253.085938 L 230.273438 361.707031 L 220.136719 361.707031 Z M 220.136719 253.085938 " fill-opacity="1" fill-rule="nonzero"/></g><g clip-path="url(#e1850b4599)"><path fill="#000000" d="M 220.148438 290.214844 L 220.148438 280.074219 L 247.664062 280.074219 L 247.664062 290.214844 Z M 220.148438 290.214844 " fill-opacity="1" fill-rule="nonzero"/></g><g clip-path="url(#50345b7b19)"><path fill="#000000" d="M 220.136719 362.09375 L 220.136719 351.957031 L 252 351.957031 L 252 362.09375 Z M 220.136719 362.09375 " fill-opacity="1" fill-rule="nonzero"/></g><g clip-path="url(#943b53ae9b)"><path fill="#000000" d="M 255.796875 339.398438 L 255.796875 329.257812 L 273.175781 329.257812 L 273.175781 339.398438 Z M 255.796875 339.398438 " fill-opacity="1" fill-rule="nonzero"/></g><g clip-path="url(#533af8b0db)"><path fill="#000000" d="M 281.242188 316.433594 L 281.242188 306.296875 L 314.550781 306.296875 L 314.550781 316.433594 Z M 281.242188 316.433594 " fill-opacity="1" fill-rule="nonzero"/></g><g clip-path="url(#347096ebe3)"><path fill="#000000" d="M 270.480469 284.945312 L 270.480469 274.808594 L 331.308594 274.808594 L 331.308594 284.945312 Z M 270.480469 284.945312 " fill-opacity="1" fill-rule="nonzero"/></g><g clip-path="url(#b6d0ce937b)"><path fill="#000000" d="M 295.539062 253.085938 L 305.679688 253.085938 L 305.679688 277.707031 L 295.539062 277.707031 Z M 295.539062 253.085938 " fill-opacity="1" fill-rule="nonzero"/></g><g clip-path="url(#10713e52fd)"><path fill="#000000" d="M 294.09375 362.101562 L 294.09375 351.960938 L 367.953125 351.960938 L 367.953125 362.101562 Z M 294.09375 362.101562 " fill-opacity="1" fill-rule="nonzero"/></g><g clip-path="url(#71e0a34ee2)"><path fill="#000000" d="M 323.878906 329.367188 L 334.015625 329.367188 L 334.015625 356.886719 L 323.878906 356.886719 Z M 323.878906 329.367188 " fill-opacity="1" fill-rule="nonzero"/></g><g clip-path="url(#45fb11226b)"><path fill="#000000" d="M 358.527344 284.957031 L 368.664062 284.957031 L 368.664062 353.027344 L 358.527344 353.027344 Z M 358.527344 284.957031 " fill-opacity="1" fill-rule="nonzero"/></g><g clip-path="url(#ae5e87b3e6)"><path fill="#000000" d="M 358.527344 253.085938 L 368.664062 253.085938 L 368.664062 267.570312 L 358.527344 267.570312 Z M 358.527344 253.085938 " fill-opacity="1" fill-rule="nonzero"/></g><g clip-path="url(#a4d367835d)"><path fill="#000000" d="M 247.441406 249.269531 L 247.441406 239.128906 L 272.0625 239.128906 L 272.0625 249.269531 Z M 247.441406 249.269531 " fill-opacity="1" fill-rule="nonzero"/></g><g clip-path="url(#399caa7498)"><path fill="#000000" d="M 273.523438 227.453125 L 273.523438 217.316406 L 295.246094 217.316406 L 295.246094 227.453125 Z M 273.523438 227.453125 " fill-opacity="1" fill-rule="nonzero"/></g><g clip-path="url(#bc5e448334)"><path fill="#000000" d="M 321.65625 239.644531 L 321.65625 229.507812 L 334.691406 229.507812 L 334.691406 239.644531 Z M 321.65625 239.644531 " fill-opacity="1" fill-rule="nonzero"/></g><g clip-path="url(#645bffc64a)"><path fill="#000000" d="M 348.894531 229.105469 L 348.894531 218.96875 L 367.722656 218.96875 L 367.722656 229.105469 Z M 348.894531 229.105469 " fill-opacity="1" fill-rule="nonzero"/></g><g clip-path="url(#fa932c5d8f)"><path fill="#000000" d="M 249.023438 75.773438 L 375.5625 75.773438 L 375.5625 202.3125 L 249.023438 202.3125 Z M 249.023438 75.773438 " fill-opacity="1" fill-rule="nonzero"/></g><g clip-path="url(#1df03c9c8e)"><path fill="#ffffff" d="M 255.4375 82.453125 L 369.089844 82.453125 L 369.089844 196.105469 L 255.4375 196.105469 Z M 255.4375 82.453125 " fill-opacity="1" fill-rule="nonzero"/></g><g clip-path="url(#4f5c7e07cb)"><path fill="#000000" d="M 274.535156 101.734375 L 349.519531 101.734375 L 349.519531 176.722656 L 274.535156 176.722656 Z M 274.535156 101.734375 " fill-opacity="1" fill-rule="nonzero"/></g><g clip-path="url(#ae915e638d)"><path fill="#000000" d="M 74.96875 249.28125 L 201.507812 249.28125 L 201.507812 375.820312 L 74.96875 375.820312 Z M 74.96875 249.28125 " fill-opacity="1" fill-rule="nonzero"/></g><g clip-path="url(#44a54b2e2e)"><path fill="#ffffff" d="M 81.382812 255.960938 L 195.035156 255.960938 L 195.035156 369.609375 L 81.382812 369.609375 Z M 81.382812 255.960938 " fill-opacity="1" fill-rule="nonzero"/></g><g clip-path="url(#1b32e9c0bb)"><path fill="#000000" d="M 100.480469 275.242188 L 175.464844 275.242188 L 175.464844 350.226562 L 100.480469 350.226562 Z M 100.480469 275.242188 " fill-opacity="1" fill-rule="nonzero"/></g></svg>