<svg xmlns="http://www.w3.org/2000/svg" xmlns:xlink="http://www.w3.org/1999/xlink" width="600" zoomAndPan="magnify" viewBox="0 0 450 449.999984" height="600" preserveAspectRatio="xMidYMid meet" version="1.0"><defs><g/><clipPath id="efb66abafb"><path d="M 184.734375 167.046875 L 220.160156 167.046875 L 220.160156 171.035156 L 184.734375 171.035156 Z M 184.734375 167.046875 " clip-rule="nonzero"/></clipPath><clipPath id="ac78f44333"><path d="M 168.925781 166.78125 L 181.050781 166.78125 L 181.050781 171.039062 L 168.925781 171.039062 Z M 168.925781 166.78125 " clip-rule="nonzero"/></clipPath><clipPath id="659e59e018"><path d="M 222.324219 178.511719 L 225.871094 178.511719 L 225.871094 218.734375 L 222.324219 218.734375 Z M 222.324219 178.511719 " clip-rule="nonzero"/></clipPath><clipPath id="5065f69069"><path d="M 222.324219 188.492188 L 232.398438 188.492188 L 232.398438 192.207031 L 222.324219 192.207031 Z M 222.324219 188.492188 " clip-rule="nonzero"/></clipPath><clipPath id="66b7a97c61"><path d="M 222.324219 215.179688 L 233.917969 215.179688 L 233.917969 218.730469 L 222.324219 218.730469 Z M 222.324219 215.179688 " clip-rule="nonzero"/></clipPath><clipPath id="ec35dbeb0b"><path d="M 235.480469 206.59375 L 242 206.59375 L 242 210.351562 L 235.480469 210.351562 Z M 235.480469 206.59375 " clip-rule="nonzero"/></clipPath><clipPath id="7e64d9d170"><path d="M 244.863281 198.335938 L 257.039062 198.335938 L 257.039062 201.882812 L 244.863281 201.882812 Z M 244.863281 198.335938 " clip-rule="nonzero"/></clipPath><clipPath id="7bffd057de"><path d="M 240.894531 186.71875 L 263.269531 186.71875 L 263.269531 190.265625 L 240.894531 190.265625 Z M 240.894531 186.71875 " clip-rule="nonzero"/></clipPath><clipPath id="d43491ddbd"><path d="M 250.140625 178.511719 L 254.027344 178.511719 L 254.027344 187.757812 L 250.140625 187.757812 Z M 250.140625 178.511719 " clip-rule="nonzero"/></clipPath><clipPath id="516894337e"><path d="M 249.609375 215.179688 L 276.933594 215.179688 L 276.933594 218.730469 L 249.609375 218.730469 Z M 249.609375 215.179688 " clip-rule="nonzero"/></clipPath><clipPath id="a46b115137"><path d="M 260.59375 206.652344 L 264.199219 206.652344 L 264.199219 216.898438 L 260.59375 216.898438 Z M 260.59375 206.652344 " clip-rule="nonzero"/></clipPath><clipPath id="6efcde0f85"><path d="M 273.378906 190.269531 L 276.933594 190.269531 L 276.933594 215.449219 L 273.378906 215.449219 Z M 273.378906 190.269531 " clip-rule="nonzero"/></clipPath><clipPath id="c7e5764f16"><path d="M 273.378906 178.511719 L 276.933594 178.511719 L 276.933594 184.097656 L 273.378906 184.097656 Z M 273.378906 178.511719 " clip-rule="nonzero"/></clipPath><clipPath id="0406f3dac3"><path d="M 232.398438 173.554688 L 241.226562 173.554688 L 241.226562 177.101562 L 232.398438 177.101562 Z M 232.398438 173.554688 " clip-rule="nonzero"/></clipPath><clipPath id="02d771d9fa"><path d="M 242.015625 165.175781 L 250.140625 165.175781 L 250.140625 169.058594 L 242.015625 169.058594 Z M 242.015625 165.175781 " clip-rule="nonzero"/></clipPath><clipPath id="cdc95d0151"><path d="M 259.773438 169.671875 L 264.695312 169.671875 L 264.695312 173.558594 L 259.773438 173.558594 Z M 259.773438 169.671875 " clip-rule="nonzero"/></clipPath><clipPath id="60ce30c5e8"><path d="M 269.820312 165.785156 L 276.933594 165.785156 L 276.933594 169.671875 L 269.820312 169.671875 Z M 269.820312 165.785156 " clip-rule="nonzero"/></clipPath><clipPath id="f690e21974"><path d="M 168.921875 178.027344 L 215.960938 178.027344 L 215.960938 225.0625 L 168.921875 225.0625 Z M 168.921875 178.027344 " clip-rule="nonzero"/></clipPath><clipPath id="050c3d1733"><path d="M 179.125 188.40625 L 205.699219 188.40625 L 205.699219 214.621094 L 179.125 214.621094 Z M 179.125 188.40625 " clip-rule="nonzero"/></clipPath><clipPath id="1a4f58a42d"><path d="M 168.921875 112.820312 L 215.960938 112.820312 L 215.960938 159.855469 L 168.921875 159.855469 Z M 168.921875 112.820312 " clip-rule="nonzero"/></clipPath><clipPath id="472e6191f9"><path d="M 179.125 123.199219 L 205.699219 123.199219 L 205.699219 149.414062 L 179.125 149.414062 Z M 179.125 123.199219 " clip-rule="nonzero"/></clipPath><clipPath id="75b8ef8676"><path d="M 234.101562 112.820312 L 281.136719 112.820312 L 281.136719 159.855469 L 234.101562 159.855469 Z M 234.101562 112.820312 " clip-rule="nonzero"/></clipPath><clipPath id="50a9975792"><path d="M 244.300781 123.199219 L 270.875 123.199219 L 270.875 149.414062 L 244.300781 149.414062 Z M 244.300781 123.199219 " clip-rule="nonzero"/></clipPath><clipPath id="9e5b6b47f0"><path d="M 222.867188 112.820312 L 227.21875 112.820312 L 227.21875 132.644531 L 222.867188 132.644531 Z M 222.867188 112.820312 " clip-rule="nonzero"/></clipPath><clipPath id="3aed9c9603"><path d="M 222.867188 140 L 227.21875 140 L 227.21875 150.539062 L 222.867188 150.539062 Z M 222.867188 140 " clip-rule="nonzero"/></clipPath><clipPath id="95e6d23267"><path d="M 222.867188 155.222656 L 227.21875 155.222656 L 227.21875 161.902344 L 222.867188 161.902344 Z M 222.867188 155.222656 " clip-rule="nonzero"/></clipPath></defs><rect x="-45" width="540" fill="#ffffff" y="-44.999998" height="539.99998" fill-opacity="1"/><rect x="-45" width="540" fill="#ffffff" y="-44.999998" height="539.99998" fill-opacity="1"/><g fill="#000000" fill-opacity="1"><g transform="translate(72.055007, 318.668471)"><g><path d="M 5.09375 0 L 5.09375 -68.359375 L 28.546875 -68.359375 L 28.546875 -59.3125 L 15.5 -59.3125 L 15.5 -41.140625 L 27.609375 -41.140625 L 27.609375 -32.046875 L 15.5 -32.046875 L 15.5 0 Z M 5.09375 0 "/></g></g></g><g fill="#000000" fill-opacity="1"><g transform="translate(110.527224, 318.668471)"><g><path d="M 5.515625 0 L 5.515625 -68.359375 L 15.921875 -68.359375 L 15.921875 0 Z M 5.515625 0 "/></g></g></g><g fill="#000000" fill-opacity="1"><g transform="translate(139.522875, 318.668471)"><g><path d="M 15.5 -8.078125 L 18.921875 -8.078125 C 20.835938 -8.078125 22.226562 -8.695312 23.09375 -9.9375 C 23.957031 -11.1875 24.390625 -13.46875 24.390625 -16.78125 L 24.359375 -50.53125 C 24.359375 -54.082031 23.921875 -56.609375 23.046875 -58.109375 C 22.179688 -59.609375 20.6875 -60.359375 18.5625 -60.359375 L 15.5 -60.359375 Z M 5.09375 0 L 5.09375 -68.359375 L 20.4375 -68.359375 C 25.457031 -68.359375 29.097656 -66.875 31.359375 -63.90625 C 33.628906 -60.945312 34.765625 -56.578125 34.765625 -50.796875 L 34.796875 -19.96875 C 34.796875 -13.070312 33.65625 -8.019531 31.375 -4.8125 C 29.101562 -1.601562 25.335938 0 20.078125 0 Z M 5.09375 0 "/></g></g></g><g fill="#000000" fill-opacity="1"><g transform="translate(186.11231, 318.668471)"><g><path d="M 5.125 0 L 5.125 -68.359375 L 28.046875 -68.359375 L 28.046875 -59.390625 L 15.53125 -59.390625 L 15.53125 -39.5 L 27.421875 -39.5 L 27.421875 -30.71875 L 15.53125 -30.71875 L 15.53125 -8.96875 L 28.515625 -8.96875 L 28.515625 0 Z M 5.125 0 "/></g></g></g><g fill="#000000" fill-opacity="1"><g transform="translate(225.36129, 318.668471)"><g><path d="M 5.125 0 L 5.125 -68.359375 L 15.53125 -68.359375 L 15.53125 -8.859375 L 28.703125 -8.859375 L 28.703125 0 Z M 5.125 0 "/></g></g></g><g fill="#000000" fill-opacity="1"><g transform="translate(262.474168, 318.668471)"><g><path d="M 33.984375 -18.640625 C 33.984375 -12.035156 32.804688 -7.144531 30.453125 -3.96875 C 28.097656 -0.800781 24.394531 0.78125 19.34375 0.78125 C 14.289062 0.78125 10.515625 -0.90625 8.015625 -4.28125 C 5.515625 -7.664062 4.265625 -12.53125 4.265625 -18.875 L 4.265625 -48.671875 C 4.265625 -58.847656 6.9375 -65.203125 12.28125 -67.734375 C 14.238281 -68.671875 16.617188 -69.140625 19.421875 -69.140625 C 29.023438 -69.140625 33.828125 -63.078125 33.828125 -50.953125 L 33.828125 -41.5625 L 23.765625 -41.5625 L 23.765625 -50.296875 C 23.765625 -53.816406 23.46875 -56.332031 22.875 -57.84375 C 22.28125 -59.363281 21.113281 -60.125 19.375 -60.125 C 17.644531 -60.125 16.441406 -59.320312 15.765625 -57.71875 C 15.097656 -56.113281 14.765625 -53.65625 14.765625 -50.34375 L 14.765625 -18.40625 C 14.765625 -14.726562 15.085938 -12.097656 15.734375 -10.515625 C 16.378906 -8.941406 17.554688 -8.15625 19.265625 -8.15625 C 20.972656 -8.15625 22.148438 -8.957031 22.796875 -10.5625 C 23.441406 -12.164062 23.765625 -14.820312 23.765625 -18.53125 L 23.765625 -28.3125 L 33.984375 -28.3125 Z M 33.984375 -18.640625 "/></g></g></g><g fill="#000000" fill-opacity="1"><g transform="translate(307.354723, 318.668471)"><g><path d="M 5.125 0 L 5.125 -68.359375 L 15.53125 -68.359375 L 15.53125 -8.859375 L 28.703125 -8.859375 L 28.703125 0 Z M 5.125 0 "/></g></g></g><g fill="#000000" fill-opacity="1"><g transform="translate(344.467601, 318.668471)"><g><path d="M 11.8125 0 L 11.8125 -27.3125 L 0.34375 -68.359375 L 10.296875 -68.359375 L 17.046875 -42.796875 L 17.203125 -42.796875 L 23.234375 -68.359375 L 33.125 -68.359375 L 22.21875 -27.3125 L 22.21875 0 Z M 11.8125 0 "/></g></g></g><g clip-path="url(#efb66abafb)"><path fill="#191308" d="M 184.734375 171.035156 L 184.734375 167.132812 L 220.105469 167.132812 L 220.105469 171.035156 Z M 184.734375 171.035156 " fill-opacity="1" fill-rule="nonzero"/></g><g clip-path="url(#ac78f44333)"><path fill="#191308" d="M 168.925781 171.039062 L 168.925781 166.890625 L 181.121094 166.890625 L 181.121094 171.039062 Z M 168.925781 171.039062 " fill-opacity="1" fill-rule="nonzero"/></g><g clip-path="url(#659e59e018)"><path fill="#191308" d="M 222.324219 178.511719 L 225.796875 178.511719 L 225.796875 218.851562 L 222.324219 218.851562 Z M 222.324219 178.511719 " fill-opacity="1" fill-rule="nonzero"/></g><g clip-path="url(#5065f69069)"><path fill="#191308" d="M 222.324219 192.207031 L 222.324219 188.46875 L 232.472656 188.46875 L 232.472656 192.207031 Z M 222.324219 192.207031 " fill-opacity="1" fill-rule="nonzero"/></g><g clip-path="url(#66b7a97c61)"><path fill="#191308" d="M 222.324219 218.730469 L 222.324219 215.257812 L 233.808594 215.257812 L 233.808594 218.730469 Z M 222.324219 218.730469 " fill-opacity="1" fill-rule="nonzero"/></g><g clip-path="url(#ec35dbeb0b)"><path fill="#191308" d="M 235.480469 210.351562 L 235.480469 206.613281 L 241.890625 206.613281 L 241.890625 210.351562 Z M 235.480469 210.351562 " fill-opacity="1" fill-rule="nonzero"/></g><g clip-path="url(#7e64d9d170)"><path fill="#191308" d="M 244.863281 201.882812 L 244.863281 198.410156 L 257.152344 198.410156 L 257.152344 201.882812 Z M 244.863281 201.882812 " fill-opacity="1" fill-rule="nonzero"/></g><g clip-path="url(#7bffd057de)"><path fill="#191308" d="M 240.894531 190.265625 L 240.894531 186.792969 L 263.335938 186.792969 L 263.335938 190.265625 Z M 240.894531 190.265625 " fill-opacity="1" fill-rule="nonzero"/></g><g clip-path="url(#d43491ddbd)"><path fill="#191308" d="M 250.140625 178.511719 L 254.148438 178.511719 L 254.148438 187.859375 L 250.140625 187.859375 Z M 250.140625 178.511719 " fill-opacity="1" fill-rule="nonzero"/></g><g clip-path="url(#516894337e)"><path fill="#191308" d="M 249.609375 218.730469 L 249.609375 215.257812 L 276.855469 215.257812 L 276.855469 218.730469 Z M 249.609375 218.730469 " fill-opacity="1" fill-rule="nonzero"/></g><g clip-path="url(#a46b115137)"><path fill="#191308" d="M 260.59375 206.652344 L 264.070312 206.652344 L 264.070312 216.804688 L 260.59375 216.804688 Z M 260.59375 206.652344 " fill-opacity="1" fill-rule="nonzero"/></g><g clip-path="url(#6efcde0f85)"><path fill="#191308" d="M 273.378906 190.269531 L 276.851562 190.269531 L 276.851562 215.378906 L 273.378906 215.378906 Z M 273.378906 190.269531 " fill-opacity="1" fill-rule="nonzero"/></g><g clip-path="url(#c7e5764f16)"><path fill="#191308" d="M 273.378906 178.511719 L 276.851562 178.511719 L 276.851562 184.121094 L 273.378906 184.121094 Z M 273.378906 178.511719 " fill-opacity="1" fill-rule="nonzero"/></g><g clip-path="url(#0406f3dac3)"><path fill="#191308" d="M 232.398438 177.101562 L 232.398438 173.628906 L 241.214844 173.628906 L 241.214844 177.101562 Z M 232.398438 177.101562 " fill-opacity="1" fill-rule="nonzero"/></g><g clip-path="url(#02d771d9fa)"><path fill="#191308" d="M 242.015625 169.058594 L 242.015625 165.054688 L 250.03125 165.054688 L 250.03125 169.058594 Z M 242.015625 169.058594 " fill-opacity="1" fill-rule="nonzero"/></g><g clip-path="url(#cdc95d0151)"><path fill="#191308" d="M 259.773438 173.558594 L 259.773438 169.550781 L 264.582031 169.550781 L 264.582031 173.558594 Z M 259.773438 173.558594 " fill-opacity="1" fill-rule="nonzero"/></g><g clip-path="url(#60ce30c5e8)"><path fill="#191308" d="M 269.820312 169.671875 L 269.820312 165.664062 L 277.035156 165.664062 L 277.035156 169.671875 Z M 269.820312 169.671875 " fill-opacity="1" fill-rule="nonzero"/></g><g clip-path="url(#f690e21974)"><path fill="#191308" d="M 171.535156 180.636719 L 213.347656 180.636719 L 213.347656 222.449219 L 171.535156 222.449219 Z M 168.921875 225.0625 L 215.960938 225.0625 L 215.960938 178.027344 L 168.921875 178.027344 L 168.921875 225.0625 " fill-opacity="1" fill-rule="nonzero"/></g><g clip-path="url(#050c3d1733)"><path fill="#191308" d="M 179.125 188.40625 L 205.707031 188.40625 L 205.707031 214.554688 L 179.125 214.554688 Z M 179.125 188.40625 " fill-opacity="1" fill-rule="nonzero"/></g><g clip-path="url(#1a4f58a42d)"><path fill="#191308" d="M 171.535156 115.433594 L 213.347656 115.433594 L 213.347656 157.242188 L 171.535156 157.242188 Z M 168.921875 159.855469 L 215.960938 159.855469 L 215.960938 112.820312 L 168.921875 112.820312 L 168.921875 159.855469 " fill-opacity="1" fill-rule="nonzero"/></g><g clip-path="url(#472e6191f9)"><path fill="#191308" d="M 179.125 123.199219 L 205.707031 123.199219 L 205.707031 149.351562 L 179.125 149.351562 Z M 179.125 123.199219 " fill-opacity="1" fill-rule="nonzero"/></g><g clip-path="url(#75b8ef8676)"><path fill="#191308" d="M 236.714844 115.433594 L 278.523438 115.433594 L 278.523438 157.242188 L 236.714844 157.242188 Z M 234.101562 159.855469 L 281.136719 159.855469 L 281.136719 112.820312 L 234.101562 112.820312 L 234.101562 159.855469 " fill-opacity="1" fill-rule="nonzero"/></g><g clip-path="url(#50a9975792)"><path fill="#191308" d="M 244.300781 123.199219 L 270.882812 123.199219 L 270.882812 149.351562 L 244.300781 149.351562 Z M 244.300781 123.199219 " fill-opacity="1" fill-rule="nonzero"/></g><g clip-path="url(#9e5b6b47f0)"><path fill="#191308" d="M 227.21875 132.644531 L 222.980469 132.644531 L 222.980469 112.703125 L 227.21875 112.703125 Z M 227.21875 132.644531 " fill-opacity="1" fill-rule="nonzero"/></g><g clip-path="url(#3aed9c9603)"><path fill="#191308" d="M 227.21875 150.539062 L 222.980469 150.539062 L 222.980469 140.070312 L 227.21875 140.070312 Z M 227.21875 150.539062 " fill-opacity="1" fill-rule="nonzero"/></g><g clip-path="url(#95e6d23267)"><path fill="#191308" d="M 227.21875 161.902344 L 222.980469 161.902344 L 222.980469 155.171875 L 227.21875 155.171875 Z M 227.21875 161.902344 " fill-opacity="1" fill-rule="nonzero"/></g></svg>