<svg xmlns="http://www.w3.org/2000/svg" xmlns:xlink="http://www.w3.org/1999/xlink" width="600" zoomAndPan="magnify" viewBox="0 0 450 449.999984" height="600" preserveAspectRatio="xMidYMid meet" version="1.0"><defs><g/><clipPath id="2d3166c588"><path d="M 172.316406 116.359375 L 216.714844 116.359375 L 216.714844 161 L 172.316406 161 Z M 172.316406 116.359375 " clip-rule="nonzero"/></clipPath><clipPath id="0eb1e1a81c"><path d="M 174.578125 118.714844 L 214.453125 118.714844 L 214.453125 158.722656 L 174.578125 158.722656 Z M 174.578125 118.714844 " clip-rule="nonzero"/></clipPath><clipPath id="b4d46274ed"><path d="M 182.34375 126.890625 L 207.726562 126.890625 L 207.726562 151.929688 L 182.34375 151.929688 Z M 182.34375 126.890625 " clip-rule="nonzero"/></clipPath><clipPath id="5a4f1841a4"><path d="M 223.316406 116.785156 L 226.707031 116.785156 L 226.707031 137.847656 L 223.316406 137.847656 Z M 223.316406 116.785156 " clip-rule="nonzero"/></clipPath><clipPath id="3d628afacb"><path d="M 223.316406 142.664062 L 226.746094 142.664062 L 226.746094 151.597656 L 223.316406 151.597656 Z M 223.316406 142.664062 " clip-rule="nonzero"/></clipPath><clipPath id="fc7c171fb9"><path d="M 223.316406 154.96875 L 226.707031 154.96875 L 226.707031 161.5 L 223.316406 161.5 Z M 223.316406 154.96875 " clip-rule="nonzero"/></clipPath><clipPath id="b780a47e5c"><path d="M 187.417969 168.640625 L 221.25 168.640625 L 221.25 172.453125 L 187.417969 172.453125 Z M 187.417969 168.640625 " clip-rule="nonzero"/></clipPath><clipPath id="76cc1e421c"><path d="M 172.316406 168.382812 L 183.898438 168.382812 L 183.898438 172.449219 L 172.316406 172.449219 Z M 172.316406 168.382812 " clip-rule="nonzero"/></clipPath><clipPath id="25d953a011"><path d="M 223.316406 179.527344 L 226.707031 179.527344 L 226.707031 217.941406 L 223.316406 217.941406 Z M 223.316406 179.527344 " clip-rule="nonzero"/></clipPath><clipPath id="4e75f7b93c"><path d="M 223.320312 189.058594 L 232.945312 189.058594 L 232.945312 192.609375 L 223.320312 192.609375 Z M 223.320312 189.058594 " clip-rule="nonzero"/></clipPath><clipPath id="03d4068cdf"><path d="M 223.316406 214.546875 L 234.390625 214.546875 L 234.390625 217.933594 L 223.316406 217.933594 Z M 223.316406 214.546875 " clip-rule="nonzero"/></clipPath><clipPath id="6f761302a2"><path d="M 235.882812 206.347656 L 242.121094 206.347656 L 242.121094 209.9375 L 235.882812 209.9375 Z M 235.882812 206.347656 " clip-rule="nonzero"/></clipPath><clipPath id="5a78199d52"><path d="M 244.847656 198.457031 L 256.472656 198.457031 L 256.472656 201.847656 L 244.847656 201.847656 Z M 244.847656 198.457031 " clip-rule="nonzero"/></clipPath><clipPath id="c301433dc0"><path d="M 241.054688 187.363281 L 262.421875 187.363281 L 262.421875 190.753906 L 241.054688 190.753906 Z M 241.054688 187.363281 " clip-rule="nonzero"/></clipPath><clipPath id="075b460e78"><path d="M 249.886719 179.527344 L 253.597656 179.527344 L 253.597656 188.355469 L 249.886719 188.355469 Z M 249.886719 179.527344 " clip-rule="nonzero"/></clipPath><clipPath id="64ca4a8d5d"><path d="M 249.375 214.546875 L 275.472656 214.546875 L 275.472656 217.9375 L 249.375 217.9375 Z M 249.375 214.546875 " clip-rule="nonzero"/></clipPath><clipPath id="f643a5a05a"><path d="M 259.871094 206.40625 L 263.3125 206.40625 L 263.3125 216.1875 L 259.871094 216.1875 Z M 259.871094 206.40625 " clip-rule="nonzero"/></clipPath><clipPath id="e1eb1a30c3"><path d="M 272.078125 190.757812 L 275.472656 190.757812 L 275.472656 214.808594 L 272.078125 214.808594 Z M 272.078125 190.757812 " clip-rule="nonzero"/></clipPath><clipPath id="b5109f1fc3"><path d="M 272.078125 179.527344 L 275.472656 179.527344 L 275.472656 184.859375 L 272.078125 184.859375 Z M 272.078125 179.527344 " clip-rule="nonzero"/></clipPath><clipPath id="f860a00b0c"><path d="M 232.9375 174.792969 L 241.367188 174.792969 L 241.367188 178.183594 L 232.9375 178.183594 Z M 232.9375 174.792969 " clip-rule="nonzero"/></clipPath><clipPath id="fc017c2fa4"><path d="M 242.128906 166.785156 L 249.886719 166.785156 L 249.886719 170.496094 L 242.128906 170.496094 Z M 242.128906 166.785156 " clip-rule="nonzero"/></clipPath><clipPath id="2d99338ca5"><path d="M 259.085938 171.078125 L 263.785156 171.078125 L 263.785156 174.792969 L 259.085938 174.792969 Z M 259.085938 171.078125 " clip-rule="nonzero"/></clipPath><clipPath id="f7480c9bfa"><path d="M 268.683594 167.367188 L 275.476562 167.367188 L 275.476562 171.078125 L 268.683594 171.078125 Z M 268.683594 167.367188 " clip-rule="nonzero"/></clipPath><clipPath id="95e30e43c3"><path d="M 233.496094 117.054688 L 277.894531 117.054688 L 277.894531 161.769531 L 233.496094 161.769531 Z M 233.496094 117.054688 " clip-rule="nonzero"/></clipPath><clipPath id="14db11e668"><path d="M 235.753906 119.40625 L 275.632812 119.40625 L 275.632812 159.414062 L 235.753906 159.414062 Z M 235.753906 119.40625 " clip-rule="nonzero"/></clipPath><clipPath id="aaed9c5a2e"><path d="M 242.484375 126.199219 L 268.902344 126.199219 L 268.902344 152.621094 L 242.484375 152.621094 Z M 242.484375 126.199219 " clip-rule="nonzero"/></clipPath><clipPath id="8f9837aff8"><path d="M 172.167969 178.1875 L 216.566406 178.1875 L 216.566406 222.902344 L 172.167969 222.902344 Z M 172.167969 178.1875 " clip-rule="nonzero"/></clipPath><clipPath id="bfc4b6730e"><path d="M 174.429688 180.539062 L 214.304688 180.539062 L 214.304688 220.546875 L 174.429688 220.546875 Z M 174.429688 180.539062 " clip-rule="nonzero"/></clipPath><clipPath id="593d47b6d3"><path d="M 181.15625 187.332031 L 207.578125 187.332031 L 207.578125 213.753906 L 181.15625 213.753906 Z M 181.15625 187.332031 " clip-rule="nonzero"/></clipPath></defs><rect x="-45" width="540" fill="#ffffff" y="-44.999998" height="539.99998" fill-opacity="1"/><rect x="-45" width="540" fill="#ffffff" y="-44.999998" height="539.99998" fill-opacity="1"/><g fill="#000000" fill-opacity="1"><g transform="translate(72.055007, 318.668471)"><g><path d="M 5.09375 0 L 5.09375 -68.359375 L 28.546875 -68.359375 L 28.546875 -59.3125 L 15.5 -59.3125 L 15.5 -41.140625 L 27.609375 -41.140625 L 27.609375 -32.046875 L 15.5 -32.046875 L 15.5 0 Z M 5.09375 0 "/></g></g></g><g fill="#000000" fill-opacity="1"><g transform="translate(110.527224, 318.668471)"><g><path d="M 5.515625 0 L 5.515625 -68.359375 L 15.921875 -68.359375 L 15.921875 0 Z M 5.515625 0 "/></g></g></g><g fill="#000000" fill-opacity="1"><g transform="translate(139.522875, 318.668471)"><g><path d="M 15.5 -8.078125 L 18.921875 -8.078125 C 20.835938 -8.078125 22.226562 -8.695312 23.09375 -9.9375 C 23.957031 -11.1875 24.390625 -13.46875 24.390625 -16.78125 L 24.359375 -50.53125 C 24.359375 -54.082031 23.921875 -56.609375 23.046875 -58.109375 C 22.179688 -59.609375 20.6875 -60.359375 18.5625 -60.359375 L 15.5 -60.359375 Z M 5.09375 0 L 5.09375 -68.359375 L 20.4375 -68.359375 C 25.457031 -68.359375 29.097656 -66.875 31.359375 -63.90625 C 33.628906 -60.945312 34.765625 -56.578125 34.765625 -50.796875 L 34.796875 -19.96875 C 34.796875 -13.070312 33.65625 -8.019531 31.375 -4.8125 C 29.101562 -1.601562 25.335938 0 20.078125 0 Z M 5.09375 0 "/></g></g></g><g fill="#000000" fill-opacity="1"><g transform="translate(186.11231, 318.668471)"><g><path d="M 5.125 0 L 5.125 -68.359375 L 28.046875 -68.359375 L 28.046875 -59.390625 L 15.53125 -59.390625 L 15.53125 -39.5 L 27.421875 -39.5 L 27.421875 -30.71875 L 15.53125 -30.71875 L 15.53125 -8.96875 L 28.515625 -8.96875 L 28.515625 0 Z M 5.125 0 "/></g></g></g><g fill="#000000" fill-opacity="1"><g transform="translate(225.36129, 318.668471)"><g><path d="M 5.125 0 L 5.125 -68.359375 L 15.53125 -68.359375 L 15.53125 -8.859375 L 28.703125 -8.859375 L 28.703125 0 Z M 5.125 0 "/></g></g></g><g fill="#000000" fill-opacity="1"><g transform="translate(262.474168, 318.668471)"><g><path d="M 33.984375 -18.640625 C 33.984375 -12.035156 32.804688 -7.144531 30.453125 -3.96875 C 28.097656 -0.800781 24.394531 0.78125 19.34375 0.78125 C 14.289062 0.78125 10.515625 -0.90625 8.015625 -4.28125 C 5.515625 -7.664062 4.265625 -12.53125 4.265625 -18.875 L 4.265625 -48.671875 C 4.265625 -58.847656 6.9375 -65.203125 12.28125 -67.734375 C 14.238281 -68.671875 16.617188 -69.140625 19.421875 -69.140625 C 29.023438 -69.140625 33.828125 -63.078125 33.828125 -50.953125 L 33.828125 -41.5625 L 23.765625 -41.5625 L 23.765625 -50.296875 C 23.765625 -53.816406 23.46875 -56.332031 22.875 -57.84375 C 22.28125 -59.363281 21.113281 -60.125 19.375 -60.125 C 17.644531 -60.125 16.441406 -59.320312 15.765625 -57.71875 C 15.097656 -56.113281 14.765625 -53.65625 14.765625 -50.34375 L 14.765625 -18.40625 C 14.765625 -14.726562 15.085938 -12.097656 15.734375 -10.515625 C 16.378906 -8.941406 17.554688 -8.15625 19.265625 -8.15625 C 20.972656 -8.15625 22.148438 -8.957031 22.796875 -10.5625 C 23.441406 -12.164062 23.765625 -14.820312 23.765625 -18.53125 L 23.765625 -28.3125 L 33.984375 -28.3125 Z M 33.984375 -18.640625 "/></g></g></g><g fill="#000000" fill-opacity="1"><g transform="translate(307.354723, 318.668471)"><g><path d="M 5.125 0 L 5.125 -68.359375 L 15.53125 -68.359375 L 15.53125 -8.859375 L 28.703125 -8.859375 L 28.703125 0 Z M 5.125 0 "/></g></g></g><g fill="#000000" fill-opacity="1"><g transform="translate(344.467601, 318.668471)"><g><path d="M 11.8125 0 L 11.8125 -27.3125 L 0.34375 -68.359375 L 10.296875 -68.359375 L 17.046875 -42.796875 L 17.203125 -42.796875 L 23.234375 -68.359375 L 33.125 -68.359375 L 22.21875 -27.3125 L 22.21875 0 Z M 11.8125 0 "/></g></g></g><g clip-path="url(#2d3166c588)"><path fill="#000000" d="M 172.316406 116.359375 L 216.902344 116.359375 L 216.902344 160.945312 L 172.316406 160.945312 Z M 172.316406 116.359375 " fill-opacity="1" fill-rule="nonzero"/></g><g clip-path="url(#0eb1e1a81c)"><path fill="#ffffff" d="M 174.578125 118.714844 L 214.621094 118.714844 L 214.621094 158.757812 L 174.578125 158.757812 Z M 174.578125 118.714844 " fill-opacity="1" fill-rule="nonzero"/></g><g clip-path="url(#b4d46274ed)"><path fill="#000000" d="M 182.34375 126.890625 L 207.527344 126.890625 L 207.527344 152.074219 L 182.34375 152.074219 Z M 182.34375 126.890625 " fill-opacity="1" fill-rule="nonzero"/></g><g clip-path="url(#5a4f1841a4)"><path fill="#000000" d="M 223.316406 116.785156 L 226.578125 116.785156 L 226.578125 137.757812 L 223.316406 137.757812 Z M 223.316406 116.785156 " fill-opacity="1" fill-rule="nonzero"/></g><g clip-path="url(#3d628afacb)"><path fill="#000000" d="M 223.316406 142.664062 L 226.578125 142.664062 L 226.578125 151.515625 L 223.316406 151.515625 Z M 223.316406 142.664062 " fill-opacity="1" fill-rule="nonzero"/></g><g clip-path="url(#fc7c171fb9)"><path fill="#000000" d="M 223.316406 154.96875 L 226.578125 154.96875 L 226.578125 161.492188 L 223.316406 161.492188 Z M 223.316406 154.96875 " fill-opacity="1" fill-rule="nonzero"/></g><g clip-path="url(#b780a47e5c)"><path fill="#000000" d="M 187.417969 172.453125 L 187.417969 168.722656 L 221.433594 168.722656 L 221.433594 172.453125 Z M 187.417969 172.453125 " fill-opacity="1" fill-rule="nonzero"/></g><g clip-path="url(#76cc1e421c)"><path fill="#000000" d="M 172.316406 172.449219 L 172.316406 168.253906 L 183.964844 168.253906 L 183.964844 172.449219 Z M 172.316406 172.449219 " fill-opacity="1" fill-rule="nonzero"/></g><g clip-path="url(#25d953a011)"><path fill="#000000" d="M 223.316406 179.527344 L 226.890625 179.527344 L 226.890625 217.796875 L 223.316406 217.796875 Z M 223.316406 179.527344 " fill-opacity="1" fill-rule="nonzero"/></g><g clip-path="url(#4e75f7b93c)"><path fill="#000000" d="M 223.320312 192.609375 L 223.320312 189.035156 L 233.015625 189.035156 L 233.015625 192.609375 Z M 223.320312 192.609375 " fill-opacity="1" fill-rule="nonzero"/></g><g clip-path="url(#03d4068cdf)"><path fill="#000000" d="M 223.316406 217.933594 L 223.316406 214.363281 L 234.542969 214.363281 L 234.542969 217.933594 Z M 223.316406 217.933594 " fill-opacity="1" fill-rule="nonzero"/></g><g clip-path="url(#6f761302a2)"><path fill="#000000" d="M 235.882812 209.9375 L 235.882812 206.367188 L 242.003906 206.367188 L 242.003906 209.9375 Z M 235.882812 209.9375 " fill-opacity="1" fill-rule="nonzero"/></g><g clip-path="url(#5a78199d52)"><path fill="#000000" d="M 244.847656 201.847656 L 244.847656 198.277344 L 256.582031 198.277344 L 256.582031 201.847656 Z M 244.847656 201.847656 " fill-opacity="1" fill-rule="nonzero"/></g><g clip-path="url(#c301433dc0)"><path fill="#000000" d="M 241.054688 190.753906 L 241.054688 187.179688 L 262.488281 187.179688 L 262.488281 190.753906 Z M 241.054688 190.753906 " fill-opacity="1" fill-rule="nonzero"/></g><g clip-path="url(#075b460e78)"><path fill="#000000" d="M 249.886719 179.527344 L 253.457031 179.527344 L 253.457031 188.203125 L 249.886719 188.203125 Z M 249.886719 179.527344 " fill-opacity="1" fill-rule="nonzero"/></g><g clip-path="url(#64ca4a8d5d)"><path fill="#000000" d="M 249.375 217.9375 L 249.375 214.363281 L 275.398438 214.363281 L 275.398438 217.9375 Z M 249.375 217.9375 " fill-opacity="1" fill-rule="nonzero"/></g><g clip-path="url(#f643a5a05a)"><path fill="#000000" d="M 259.871094 206.40625 L 263.441406 206.40625 L 263.441406 216.101562 L 259.871094 216.101562 Z M 259.871094 206.40625 " fill-opacity="1" fill-rule="nonzero"/></g><g clip-path="url(#e1eb1a30c3)"><path fill="#000000" d="M 272.078125 190.757812 L 275.648438 190.757812 L 275.648438 214.738281 L 272.078125 214.738281 Z M 272.078125 190.757812 " fill-opacity="1" fill-rule="nonzero"/></g><g clip-path="url(#b5109f1fc3)"><path fill="#000000" d="M 272.078125 179.527344 L 275.648438 179.527344 L 275.648438 184.628906 L 272.078125 184.628906 Z M 272.078125 179.527344 " fill-opacity="1" fill-rule="nonzero"/></g><g clip-path="url(#f860a00b0c)"><path fill="#000000" d="M 232.9375 178.183594 L 232.9375 174.609375 L 241.613281 174.609375 L 241.613281 178.183594 Z M 232.9375 178.183594 " fill-opacity="1" fill-rule="nonzero"/></g><g clip-path="url(#fc017c2fa4)"><path fill="#000000" d="M 242.128906 170.496094 L 242.128906 166.925781 L 249.78125 166.925781 L 249.78125 170.496094 Z M 242.128906 170.496094 " fill-opacity="1" fill-rule="nonzero"/></g><g clip-path="url(#2d99338ca5)"><path fill="#000000" d="M 259.085938 174.792969 L 259.085938 171.21875 L 263.679688 171.21875 L 263.679688 174.792969 Z M 259.085938 174.792969 " fill-opacity="1" fill-rule="nonzero"/></g><g clip-path="url(#f7480c9bfa)"><path fill="#000000" d="M 268.683594 171.078125 L 268.683594 167.507812 L 275.316406 167.507812 L 275.316406 171.078125 Z M 268.683594 171.078125 " fill-opacity="1" fill-rule="nonzero"/></g><g clip-path="url(#95e30e43c3)"><path fill="#000000" d="M 233.496094 117.054688 L 278.078125 117.054688 L 278.078125 161.636719 L 233.496094 161.636719 Z M 233.496094 117.054688 " fill-opacity="1" fill-rule="nonzero"/></g><g clip-path="url(#14db11e668)"><path fill="#ffffff" d="M 235.753906 119.40625 L 275.800781 119.40625 L 275.800781 159.449219 L 235.753906 159.449219 Z M 235.753906 119.40625 " fill-opacity="1" fill-rule="nonzero"/></g><g clip-path="url(#aaed9c5a2e)"><path fill="#000000" d="M 242.484375 126.199219 L 268.902344 126.199219 L 268.902344 152.621094 L 242.484375 152.621094 Z M 242.484375 126.199219 " fill-opacity="1" fill-rule="nonzero"/></g><g clip-path="url(#8f9837aff8)"><path fill="#000000" d="M 172.167969 178.1875 L 216.753906 178.1875 L 216.753906 222.769531 L 172.167969 222.769531 Z M 172.167969 178.1875 " fill-opacity="1" fill-rule="nonzero"/></g><g clip-path="url(#bfc4b6730e)"><path fill="#ffffff" d="M 174.429688 180.539062 L 214.472656 180.539062 L 214.472656 220.582031 L 174.429688 220.582031 Z M 174.429688 180.539062 " fill-opacity="1" fill-rule="nonzero"/></g><g clip-path="url(#593d47b6d3)"><path fill="#000000" d="M 181.15625 187.332031 L 207.578125 187.332031 L 207.578125 213.753906 L 181.15625 213.753906 Z M 181.15625 187.332031 " fill-opacity="1" fill-rule="nonzero"/></g></svg>