<svg xmlns="http://www.w3.org/2000/svg" xmlns:xlink="http://www.w3.org/1999/xlink" width="600" zoomAndPan="magnify" viewBox="0 0 450 449.999984" height="600" preserveAspectRatio="xMidYMid meet" version="1.0"><defs><g/><clipPath id="2c310e1b23"><path d="M 184.609375 166.863281 L 220.144531 166.863281 L 220.144531 170.867188 L 184.609375 170.867188 Z M 184.609375 166.863281 " clip-rule="nonzero"/></clipPath><clipPath id="77b936a25a"><path d="M 168.746094 166.597656 L 180.914062 166.597656 L 180.914062 170.867188 L 168.746094 170.867188 Z M 168.746094 166.597656 " clip-rule="nonzero"/></clipPath><clipPath id="280cb3c31e"><path d="M 222.316406 178.367188 L 225.875 178.367188 L 225.875 218.714844 L 222.316406 218.714844 Z M 222.316406 178.367188 " clip-rule="nonzero"/></clipPath><clipPath id="011685efdb"><path d="M 222.316406 188.375 L 232.421875 188.375 L 232.421875 192.105469 L 222.316406 192.105469 Z M 222.316406 188.375 " clip-rule="nonzero"/></clipPath><clipPath id="d897f8f509"><path d="M 222.316406 215.148438 L 233.945312 215.148438 L 233.945312 218.710938 L 222.316406 218.710938 Z M 222.316406 215.148438 " clip-rule="nonzero"/></clipPath><clipPath id="cfda2dcaa0"><path d="M 235.515625 206.535156 L 242 206.535156 L 242 210.308594 L 235.515625 210.308594 Z M 235.515625 206.535156 " clip-rule="nonzero"/></clipPath><clipPath id="970867eb1e"><path d="M 244.925781 198.25 L 257.136719 198.25 L 257.136719 201.8125 L 244.925781 201.8125 Z M 244.925781 198.25 " clip-rule="nonzero"/></clipPath><clipPath id="8a88b7d197"><path d="M 240.945312 186.597656 L 263.390625 186.597656 L 263.390625 190.15625 L 240.945312 190.15625 Z M 240.945312 186.597656 " clip-rule="nonzero"/></clipPath><clipPath id="09cb00ff10"><path d="M 250.21875 178.367188 L 254.117188 178.367188 L 254.117188 187.640625 L 250.21875 187.640625 Z M 250.21875 178.367188 " clip-rule="nonzero"/></clipPath><clipPath id="2f2310e260"><path d="M 249.683594 215.148438 L 277.097656 215.148438 L 277.097656 218.710938 L 249.683594 218.710938 Z M 249.683594 215.148438 " clip-rule="nonzero"/></clipPath><clipPath id="88015c2b5a"><path d="M 260.707031 206.59375 L 264.320312 206.59375 L 264.320312 216.871094 L 260.707031 216.871094 Z M 260.707031 206.59375 " clip-rule="nonzero"/></clipPath><clipPath id="73817bb328"><path d="M 273.527344 190.160156 L 277.097656 190.160156 L 277.097656 215.421875 L 273.527344 215.421875 Z M 273.527344 190.160156 " clip-rule="nonzero"/></clipPath><clipPath id="0951b6e6b8"><path d="M 273.527344 178.367188 L 277.097656 178.367188 L 277.097656 183.96875 L 273.527344 183.96875 Z M 273.527344 178.367188 " clip-rule="nonzero"/></clipPath><clipPath id="616dfd532f"><path d="M 232.421875 173.390625 L 241.277344 173.390625 L 241.277344 176.953125 L 232.421875 176.953125 Z M 232.421875 173.390625 " clip-rule="nonzero"/></clipPath><clipPath id="a97780e97e"><path d="M 242.070312 164.988281 L 250.222656 164.988281 L 250.222656 168.886719 L 242.070312 168.886719 Z M 242.070312 164.988281 " clip-rule="nonzero"/></clipPath><clipPath id="cde949a2d5"><path d="M 259.882812 169.496094 L 264.820312 169.496094 L 264.820312 173.394531 L 259.882812 173.394531 Z M 259.882812 169.496094 " clip-rule="nonzero"/></clipPath><clipPath id="a4c08c3c15"><path d="M 269.960938 165.597656 L 277.097656 165.597656 L 277.097656 169.496094 L 269.960938 169.496094 Z M 269.960938 165.597656 " clip-rule="nonzero"/></clipPath><clipPath id="46b1782614"><path d="M 168.746094 177.878906 L 215.929688 177.878906 L 215.929688 225.0625 L 168.746094 225.0625 Z M 168.746094 177.878906 " clip-rule="nonzero"/></clipPath><clipPath id="feb50d7535"><path d="M 178.980469 188.289062 L 205.636719 188.289062 L 205.636719 214.585938 L 178.980469 214.585938 Z M 178.980469 188.289062 " clip-rule="nonzero"/></clipPath><clipPath id="ef999089bc"><path d="M 168.746094 112.46875 L 215.929688 112.46875 L 215.929688 159.652344 L 168.746094 159.652344 Z M 168.746094 112.46875 " clip-rule="nonzero"/></clipPath><clipPath id="f76f255107"><path d="M 178.980469 122.878906 L 205.636719 122.878906 L 205.636719 149.175781 L 178.980469 149.175781 Z M 178.980469 122.878906 " clip-rule="nonzero"/></clipPath><clipPath id="a293622ce5"><path d="M 234.128906 112.46875 L 281.3125 112.46875 L 281.3125 159.652344 L 234.128906 159.652344 Z M 234.128906 112.46875 " clip-rule="nonzero"/></clipPath><clipPath id="659793891f"><path d="M 244.363281 122.878906 L 271.019531 122.878906 L 271.019531 149.175781 L 244.363281 149.175781 Z M 244.363281 122.878906 " clip-rule="nonzero"/></clipPath><clipPath id="9a7055abf8"><path d="M 222.859375 112.464844 L 227.226562 112.464844 L 227.226562 132.355469 L 222.859375 132.355469 Z M 222.859375 112.464844 " clip-rule="nonzero"/></clipPath><clipPath id="9e0dd20033"><path d="M 222.859375 139.710938 L 227.226562 139.710938 L 227.226562 150.304688 L 222.859375 150.304688 Z M 222.859375 139.710938 " clip-rule="nonzero"/></clipPath><clipPath id="8816cf9c10"><path d="M 222.859375 155.003906 L 227.226562 155.003906 L 227.226562 161.703125 L 222.859375 161.703125 Z M 222.859375 155.003906 " clip-rule="nonzero"/></clipPath></defs><rect x="-45" width="540" fill="#ffffff" y="-44.999998" height="539.99998" fill-opacity="1"/><rect x="-45" width="540" fill="#191308" y="-44.999998" height="539.99998" fill-opacity="1"/><g fill="#5db075" fill-opacity="1"><g transform="translate(72.060859, 318.76228)"><g><path d="M 5.09375 0 L 5.09375 -68.359375 L 28.546875 -68.359375 L 28.546875 -59.3125 L 15.5 -59.3125 L 15.5 -41.140625 L 27.609375 -41.140625 L 27.609375 -32.046875 L 15.5 -32.046875 L 15.5 0 Z M 5.09375 0 "/></g></g></g><g fill="#5db075" fill-opacity="1"><g transform="translate(110.53078, 318.76228)"><g><path d="M 5.515625 0 L 5.515625 -68.359375 L 15.921875 -68.359375 L 15.921875 0 Z M 5.515625 0 "/></g></g></g><g fill="#5db075" fill-opacity="1"><g transform="translate(139.524833, 318.76228)"><g><path d="M 15.5 -8.078125 L 18.921875 -8.078125 C 20.835938 -8.078125 22.226562 -8.695312 23.09375 -9.9375 C 23.957031 -11.1875 24.390625 -13.46875 24.390625 -16.78125 L 24.359375 -50.53125 C 24.359375 -54.082031 23.921875 -56.609375 23.046875 -58.109375 C 22.179688 -59.609375 20.6875 -60.359375 18.5625 -60.359375 L 15.5 -60.359375 Z M 5.09375 0 L 5.09375 -68.359375 L 20.4375 -68.359375 C 25.457031 -68.359375 29.097656 -66.875 31.359375 -63.90625 C 33.628906 -60.945312 34.765625 -56.578125 34.765625 -50.796875 L 34.796875 -19.96875 C 34.796875 -13.070312 33.65625 -8.019531 31.375 -4.8125 C 29.101562 -1.601562 25.335938 0 20.078125 0 Z M 5.09375 0 "/></g></g></g><g fill="#5db075" fill-opacity="1"><g transform="translate(186.111387, 318.76228)"><g><path d="M 5.125 0 L 5.125 -68.359375 L 28.046875 -68.359375 L 28.046875 -59.390625 L 15.53125 -59.390625 L 15.53125 -39.5 L 27.421875 -39.5 L 27.421875 -30.71875 L 15.53125 -30.71875 L 15.53125 -8.96875 L 28.515625 -8.96875 L 28.515625 0 Z M 5.125 0 "/></g></g></g><g fill="#5db075" fill-opacity="1"><g transform="translate(225.358016, 318.76228)"><g><path d="M 5.125 0 L 5.125 -68.359375 L 15.53125 -68.359375 L 15.53125 -8.859375 L 28.703125 -8.859375 L 28.703125 0 Z M 5.125 0 "/></g></g></g><g fill="#5db075" fill-opacity="1"><g transform="translate(262.468696, 318.76228)"><g><path d="M 33.984375 -18.640625 C 33.984375 -12.035156 32.804688 -7.144531 30.453125 -3.96875 C 28.097656 -0.800781 24.394531 0.78125 19.34375 0.78125 C 14.289062 0.78125 10.515625 -0.90625 8.015625 -4.28125 C 5.515625 -7.664062 4.265625 -12.53125 4.265625 -18.875 L 4.265625 -48.671875 C 4.265625 -58.847656 6.9375 -65.203125 12.28125 -67.734375 C 14.238281 -68.671875 16.617188 -69.140625 19.421875 -69.140625 C 29.023438 -69.140625 33.828125 -63.078125 33.828125 -50.953125 L 33.828125 -41.5625 L 23.765625 -41.5625 L 23.765625 -50.296875 C 23.765625 -53.816406 23.46875 -56.332031 22.875 -57.84375 C 22.28125 -59.363281 21.113281 -60.125 19.375 -60.125 C 17.644531 -60.125 16.441406 -59.320312 15.765625 -57.71875 C 15.097656 -56.113281 14.765625 -53.65625 14.765625 -50.34375 L 14.765625 -18.40625 C 14.765625 -14.726562 15.085938 -12.097656 15.734375 -10.515625 C 16.378906 -8.941406 17.554688 -8.15625 19.265625 -8.15625 C 20.972656 -8.15625 22.148438 -8.957031 22.796875 -10.5625 C 23.441406 -12.164062 23.765625 -14.820312 23.765625 -18.53125 L 23.765625 -28.3125 L 33.984375 -28.3125 Z M 33.984375 -18.640625 "/></g></g></g><g fill="#5db075" fill-opacity="1"><g transform="translate(307.346493, 318.76228)"><g><path d="M 5.125 0 L 5.125 -68.359375 L 15.53125 -68.359375 L 15.53125 -8.859375 L 28.703125 -8.859375 L 28.703125 0 Z M 5.125 0 "/></g></g></g><g fill="#5db075" fill-opacity="1"><g transform="translate(344.457185, 318.76228)"><g><path d="M 11.8125 0 L 11.8125 -27.3125 L 0.34375 -68.359375 L 10.296875 -68.359375 L 17.046875 -42.796875 L 17.203125 -42.796875 L 23.234375 -68.359375 L 33.125 -68.359375 L 22.21875 -27.3125 L 22.21875 0 Z M 11.8125 0 "/></g></g></g><g clip-path="url(#2c310e1b23)"><path fill="#5db075" d="M 184.609375 170.867188 L 184.609375 166.953125 L 220.089844 166.953125 L 220.089844 170.867188 Z M 184.609375 170.867188 " fill-opacity="1" fill-rule="nonzero"/></g><g clip-path="url(#77b936a25a)"><path fill="#5db075" d="M 168.746094 170.867188 L 168.746094 166.707031 L 180.984375 166.707031 L 180.984375 170.867188 Z M 168.746094 170.867188 " fill-opacity="1" fill-rule="nonzero"/></g><g clip-path="url(#280cb3c31e)"><path fill="#5db075" d="M 222.316406 178.367188 L 225.800781 178.367188 L 225.800781 218.832031 L 222.316406 218.832031 Z M 222.316406 178.367188 " fill-opacity="1" fill-rule="nonzero"/></g><g clip-path="url(#011685efdb)"><path fill="#5db075" d="M 222.316406 192.105469 L 222.316406 188.355469 L 232.496094 188.355469 L 232.496094 192.105469 Z M 222.316406 192.105469 " fill-opacity="1" fill-rule="nonzero"/></g><g clip-path="url(#d897f8f509)"><path fill="#5db075" d="M 222.316406 218.710938 L 222.316406 215.226562 L 233.839844 215.226562 L 233.839844 218.710938 Z M 222.316406 218.710938 " fill-opacity="1" fill-rule="nonzero"/></g><g clip-path="url(#cfda2dcaa0)"><path fill="#5db075" d="M 235.515625 210.308594 L 235.515625 206.554688 L 241.945312 206.554688 L 241.945312 210.308594 Z M 235.515625 210.308594 " fill-opacity="1" fill-rule="nonzero"/></g><g clip-path="url(#970867eb1e)"><path fill="#5db075" d="M 244.925781 201.8125 L 244.925781 198.328125 L 257.253906 198.328125 L 257.253906 201.8125 Z M 244.925781 201.8125 " fill-opacity="1" fill-rule="nonzero"/></g><g clip-path="url(#8a88b7d197)"><path fill="#5db075" d="M 240.945312 190.15625 L 240.945312 186.675781 L 263.457031 186.675781 L 263.457031 190.15625 Z M 240.945312 190.15625 " fill-opacity="1" fill-rule="nonzero"/></g><g clip-path="url(#09cb00ff10)"><path fill="#5db075" d="M 250.21875 178.367188 L 254.238281 178.367188 L 254.238281 187.746094 L 250.21875 187.746094 Z M 250.21875 178.367188 " fill-opacity="1" fill-rule="nonzero"/></g><g clip-path="url(#2f2310e260)"><path fill="#5db075" d="M 249.683594 218.710938 L 249.683594 215.226562 L 277.019531 215.226562 L 277.019531 218.710938 Z M 249.683594 218.710938 " fill-opacity="1" fill-rule="nonzero"/></g><g clip-path="url(#88015c2b5a)"><path fill="#5db075" d="M 260.707031 206.59375 L 264.191406 206.59375 L 264.191406 216.777344 L 260.707031 216.777344 Z M 260.707031 206.59375 " fill-opacity="1" fill-rule="nonzero"/></g><g clip-path="url(#73817bb328)"><path fill="#5db075" d="M 273.527344 190.160156 L 277.011719 190.160156 L 277.011719 215.351562 L 273.527344 215.351562 Z M 273.527344 190.160156 " fill-opacity="1" fill-rule="nonzero"/></g><g clip-path="url(#0951b6e6b8)"><path fill="#5db075" d="M 273.527344 178.367188 L 277.011719 178.367188 L 277.011719 183.992188 L 273.527344 183.992188 Z M 273.527344 178.367188 " fill-opacity="1" fill-rule="nonzero"/></g><g clip-path="url(#616dfd532f)"><path fill="#5db075" d="M 232.421875 176.953125 L 232.421875 173.46875 L 241.265625 173.46875 L 241.265625 176.953125 Z M 232.421875 176.953125 " fill-opacity="1" fill-rule="nonzero"/></g><g clip-path="url(#a97780e97e)"><path fill="#5db075" d="M 242.070312 168.886719 L 242.070312 164.867188 L 250.109375 164.867188 L 250.109375 168.886719 Z M 242.070312 168.886719 " fill-opacity="1" fill-rule="nonzero"/></g><g clip-path="url(#cde949a2d5)"><path fill="#5db075" d="M 259.882812 173.394531 L 259.882812 169.375 L 264.707031 169.375 L 264.707031 173.394531 Z M 259.882812 173.394531 " fill-opacity="1" fill-rule="nonzero"/></g><g clip-path="url(#a4c08c3c15)"><path fill="#5db075" d="M 269.960938 169.496094 L 269.960938 165.476562 L 277.199219 165.476562 L 277.199219 169.496094 Z M 269.960938 169.496094 " fill-opacity="1" fill-rule="nonzero"/></g><g clip-path="url(#46b1782614)"><path fill="#5db075" d="M 171.367188 180.5 L 213.308594 180.5 L 213.308594 222.441406 L 171.367188 222.441406 Z M 168.746094 225.0625 L 215.929688 225.0625 L 215.929688 177.878906 L 168.746094 177.878906 L 168.746094 225.0625 " fill-opacity="1" fill-rule="nonzero"/></g><g clip-path="url(#feb50d7535)"><path fill="#5db075" d="M 178.980469 188.289062 L 205.644531 188.289062 L 205.644531 214.523438 L 178.980469 214.523438 Z M 178.980469 188.289062 " fill-opacity="1" fill-rule="nonzero"/></g><g clip-path="url(#ef999089bc)"><path fill="#5db075" d="M 171.367188 115.089844 L 213.308594 115.089844 L 213.308594 157.03125 L 171.367188 157.03125 Z M 168.746094 159.652344 L 215.929688 159.652344 L 215.929688 112.46875 L 168.746094 112.46875 L 168.746094 159.652344 " fill-opacity="1" fill-rule="nonzero"/></g><g clip-path="url(#f76f255107)"><path fill="#5db075" d="M 178.980469 122.878906 L 205.644531 122.878906 L 205.644531 149.113281 L 178.980469 149.113281 Z M 178.980469 122.878906 " fill-opacity="1" fill-rule="nonzero"/></g><g clip-path="url(#a293622ce5)"><path fill="#5db075" d="M 236.75 115.089844 L 278.691406 115.089844 L 278.691406 157.03125 L 236.75 157.03125 Z M 234.128906 159.652344 L 281.3125 159.652344 L 281.3125 112.46875 L 234.128906 112.46875 L 234.128906 159.652344 " fill-opacity="1" fill-rule="nonzero"/></g><g clip-path="url(#659793891f)"><path fill="#5db075" d="M 244.363281 122.878906 L 271.027344 122.878906 L 271.027344 149.113281 L 244.363281 149.113281 Z M 244.363281 122.878906 " fill-opacity="1" fill-rule="nonzero"/></g><g clip-path="url(#9a7055abf8)"><path fill="#5db075" d="M 227.226562 132.355469 L 222.976562 132.355469 L 222.976562 112.351562 L 227.226562 112.351562 Z M 227.226562 132.355469 " fill-opacity="1" fill-rule="nonzero"/></g><g clip-path="url(#9e0dd20033)"><path fill="#5db075" d="M 227.226562 150.304688 L 222.976562 150.304688 L 222.976562 139.804688 L 227.226562 139.804688 Z M 227.226562 150.304688 " fill-opacity="1" fill-rule="nonzero"/></g><g clip-path="url(#8816cf9c10)"><path fill="#5db075" d="M 227.226562 161.703125 L 222.976562 161.703125 L 222.976562 154.953125 L 227.226562 154.953125 Z M 227.226562 161.703125 " fill-opacity="1" fill-rule="nonzero"/></g></svg>