<svg xmlns="http://www.w3.org/2000/svg" xmlns:xlink="http://www.w3.org/1999/xlink" width="600" zoomAndPan="magnify" viewBox="0 0 450 449.999984" height="600" preserveAspectRatio="xMidYMid meet" version="1.0"><defs><g/><clipPath id="8c691900f8"><path d="M 184.605469 166.859375 L 220.144531 166.859375 L 220.144531 170.863281 L 184.605469 170.863281 Z M 184.605469 166.859375 " clip-rule="nonzero"/></clipPath><clipPath id="1026210abe"><path d="M 168.746094 166.59375 L 180.910156 166.59375 L 180.910156 170.867188 L 168.746094 170.867188 Z M 168.746094 166.59375 " clip-rule="nonzero"/></clipPath><clipPath id="4755fb1c2f"><path d="M 222.316406 178.363281 L 225.875 178.363281 L 225.875 218.714844 L 222.316406 218.714844 Z M 222.316406 178.363281 " clip-rule="nonzero"/></clipPath><clipPath id="a66df8dcab"><path d="M 222.3125 188.375 L 232.421875 188.375 L 232.421875 192.105469 L 222.3125 192.105469 Z M 222.3125 188.375 " clip-rule="nonzero"/></clipPath><clipPath id="fa7ddcadf4"><path d="M 222.316406 215.148438 L 233.945312 215.148438 L 233.945312 218.710938 L 222.316406 218.710938 Z M 222.316406 215.148438 " clip-rule="nonzero"/></clipPath><clipPath id="c1693f128d"><path d="M 235.515625 206.535156 L 242 206.535156 L 242 210.304688 L 235.515625 210.304688 Z M 235.515625 206.535156 " clip-rule="nonzero"/></clipPath><clipPath id="f1fde752bd"><path d="M 244.929688 198.25 L 257.140625 198.25 L 257.140625 201.8125 L 244.929688 201.8125 Z M 244.929688 198.25 " clip-rule="nonzero"/></clipPath><clipPath id="51a3540921"><path d="M 240.945312 186.59375 L 263.390625 186.59375 L 263.390625 190.15625 L 240.945312 190.15625 Z M 240.945312 186.59375 " clip-rule="nonzero"/></clipPath><clipPath id="0347c8cc72"><path d="M 250.222656 178.363281 L 254.121094 178.363281 L 254.121094 187.636719 L 250.222656 187.636719 Z M 250.222656 178.363281 " clip-rule="nonzero"/></clipPath><clipPath id="ea0888871f"><path d="M 249.6875 215.148438 L 277.101562 215.148438 L 277.101562 218.707031 L 249.6875 218.707031 Z M 249.6875 215.148438 " clip-rule="nonzero"/></clipPath><clipPath id="99771f2718"><path d="M 260.710938 206.59375 L 264.324219 206.59375 L 264.324219 216.871094 L 260.710938 216.871094 Z M 260.710938 206.59375 " clip-rule="nonzero"/></clipPath><clipPath id="5831bb87fe"><path d="M 273.53125 190.160156 L 277.101562 190.160156 L 277.101562 215.417969 L 273.53125 215.417969 Z M 273.53125 190.160156 " clip-rule="nonzero"/></clipPath><clipPath id="6c6edcf176"><path d="M 273.53125 178.363281 L 277.101562 178.363281 L 277.101562 183.964844 L 273.53125 183.964844 Z M 273.53125 178.363281 " clip-rule="nonzero"/></clipPath><clipPath id="0b8dc48609"><path d="M 232.421875 173.390625 L 241.277344 173.390625 L 241.277344 176.949219 L 232.421875 176.949219 Z M 232.421875 173.390625 " clip-rule="nonzero"/></clipPath><clipPath id="bb33dbbcf3"><path d="M 242.070312 164.984375 L 250.222656 164.984375 L 250.222656 168.882812 L 242.070312 168.882812 Z M 242.070312 164.984375 " clip-rule="nonzero"/></clipPath><clipPath id="75b3fed3e7"><path d="M 259.882812 169.496094 L 264.820312 169.496094 L 264.820312 173.394531 L 259.882812 173.394531 Z M 259.882812 169.496094 " clip-rule="nonzero"/></clipPath><clipPath id="1aff2d80e4"><path d="M 269.964844 165.59375 L 277.101562 165.59375 L 277.101562 169.492188 L 269.964844 169.492188 Z M 269.964844 165.59375 " clip-rule="nonzero"/></clipPath><clipPath id="02573da76b"><path d="M 168.746094 177.875 L 215.929688 177.875 L 215.929688 225.0625 L 168.746094 225.0625 Z M 168.746094 177.875 " clip-rule="nonzero"/></clipPath><clipPath id="277ed02a77"><path d="M 178.976562 188.289062 L 205.636719 188.289062 L 205.636719 214.585938 L 178.976562 214.585938 Z M 178.976562 188.289062 " clip-rule="nonzero"/></clipPath><clipPath id="5ba1aa3b9d"><path d="M 168.746094 112.460938 L 215.929688 112.460938 L 215.929688 159.648438 L 168.746094 159.648438 Z M 168.746094 112.460938 " clip-rule="nonzero"/></clipPath><clipPath id="fb92a670e7"><path d="M 178.976562 122.875 L 205.636719 122.875 L 205.636719 149.171875 L 178.976562 149.171875 Z M 178.976562 122.875 " clip-rule="nonzero"/></clipPath><clipPath id="166bc3d543"><path d="M 234.128906 112.460938 L 281.316406 112.460938 L 281.316406 159.648438 L 234.128906 159.648438 Z M 234.128906 112.460938 " clip-rule="nonzero"/></clipPath><clipPath id="b92cd0f8da"><path d="M 244.363281 122.875 L 271.023438 122.875 L 271.023438 149.171875 L 244.363281 149.171875 Z M 244.363281 122.875 " clip-rule="nonzero"/></clipPath><clipPath id="7c5cb0dc7b"><path d="M 222.859375 112.460938 L 227.226562 112.460938 L 227.226562 132.351562 L 222.859375 132.351562 Z M 222.859375 112.460938 " clip-rule="nonzero"/></clipPath><clipPath id="6e7c80eb67"><path d="M 222.859375 139.707031 L 227.226562 139.707031 L 227.226562 150.300781 L 222.859375 150.300781 Z M 222.859375 139.707031 " clip-rule="nonzero"/></clipPath><clipPath id="4c813bfb7f"><path d="M 222.859375 155 L 227.226562 155 L 227.226562 161.699219 L 222.859375 161.699219 Z M 222.859375 155 " clip-rule="nonzero"/></clipPath></defs><rect x="-45" width="540" fill="#ffffff" y="-44.999998" height="539.99998" fill-opacity="1"/><rect x="-45" width="540" fill="#ffffff" y="-44.999998" height="539.99998" fill-opacity="1"/><rect x="-45" width="540" fill="#000000" y="-44.999998" height="539.99998" fill-opacity="1"/><g fill="#ffffff" fill-opacity="1"><g transform="translate(72.052487, 318.210836)"><g><path d="M 5.09375 0 L 5.09375 -68.359375 L 28.546875 -68.359375 L 28.546875 -59.3125 L 15.5 -59.3125 L 15.5 -41.140625 L 27.609375 -41.140625 L 27.609375 -32.046875 L 15.5 -32.046875 L 15.5 0 Z M 5.09375 0 "/></g></g></g><g fill="#ffffff" fill-opacity="1"><g transform="translate(110.525303, 318.210836)"><g><path d="M 5.515625 0 L 5.515625 -68.359375 L 15.921875 -68.359375 L 15.921875 0 Z M 5.515625 0 "/></g></g></g><g fill="#ffffff" fill-opacity="1"><g transform="translate(139.521368, 318.210836)"><g><path d="M 15.5 -8.078125 L 18.921875 -8.078125 C 20.835938 -8.078125 22.226562 -8.695312 23.09375 -9.9375 C 23.957031 -11.1875 24.390625 -13.46875 24.390625 -16.78125 L 24.359375 -50.53125 C 24.359375 -54.082031 23.921875 -56.609375 23.046875 -58.109375 C 22.179688 -59.609375 20.6875 -60.359375 18.5625 -60.359375 L 15.5 -60.359375 Z M 5.09375 0 L 5.09375 -68.359375 L 20.4375 -68.359375 C 25.457031 -68.359375 29.097656 -66.875 31.359375 -63.90625 C 33.628906 -60.945312 34.765625 -56.578125 34.765625 -50.796875 L 34.796875 -19.96875 C 34.796875 -13.070312 33.65625 -8.019531 31.375 -4.8125 C 29.101562 -1.601562 25.335938 0 20.078125 0 Z M 5.09375 0 "/></g></g></g><g fill="#ffffff" fill-opacity="1"><g transform="translate(186.11157, 318.210836)"><g><path d="M 5.125 0 L 5.125 -68.359375 L 28.046875 -68.359375 L 28.046875 -59.390625 L 15.53125 -59.390625 L 15.53125 -39.5 L 27.421875 -39.5 L 27.421875 -30.71875 L 15.53125 -30.71875 L 15.53125 -8.96875 L 28.515625 -8.96875 L 28.515625 0 Z M 5.125 0 "/></g></g></g><g fill="#ffffff" fill-opacity="1"><g transform="translate(225.361169, 318.210836)"><g><path d="M 5.125 0 L 5.125 -68.359375 L 15.53125 -68.359375 L 15.53125 -8.859375 L 28.703125 -8.859375 L 28.703125 0 Z M 5.125 0 "/></g></g></g><g fill="#ffffff" fill-opacity="1"><g transform="translate(262.474621, 318.210836)"><g><path d="M 33.984375 -18.640625 C 33.984375 -12.035156 32.804688 -7.144531 30.453125 -3.96875 C 28.097656 -0.800781 24.394531 0.78125 19.34375 0.78125 C 14.289062 0.78125 10.515625 -0.90625 8.015625 -4.28125 C 5.515625 -7.664062 4.265625 -12.53125 4.265625 -18.875 L 4.265625 -48.671875 C 4.265625 -58.847656 6.9375 -65.203125 12.28125 -67.734375 C 14.238281 -68.671875 16.617188 -69.140625 19.421875 -69.140625 C 29.023438 -69.140625 33.828125 -63.078125 33.828125 -50.953125 L 33.828125 -41.5625 L 23.765625 -41.5625 L 23.765625 -50.296875 C 23.765625 -53.816406 23.46875 -56.332031 22.875 -57.84375 C 22.28125 -59.363281 21.113281 -60.125 19.375 -60.125 C 17.644531 -60.125 16.441406 -59.320312 15.765625 -57.71875 C 15.097656 -56.113281 14.765625 -53.65625 14.765625 -50.34375 L 14.765625 -18.40625 C 14.765625 -14.726562 15.085938 -12.097656 15.734375 -10.515625 C 16.378906 -8.941406 17.554688 -8.15625 19.265625 -8.15625 C 20.972656 -8.15625 22.148438 -8.957031 22.796875 -10.5625 C 23.441406 -12.164062 23.765625 -14.820312 23.765625 -18.53125 L 23.765625 -28.3125 L 33.984375 -28.3125 Z M 33.984375 -18.640625 "/></g></g></g><g fill="#ffffff" fill-opacity="1"><g transform="translate(307.35589, 318.210836)"><g><path d="M 5.125 0 L 5.125 -68.359375 L 15.53125 -68.359375 L 15.53125 -8.859375 L 28.703125 -8.859375 L 28.703125 0 Z M 5.125 0 "/></g></g></g><g fill="#ffffff" fill-opacity="1"><g transform="translate(344.469331, 318.210836)"><g><path d="M 11.8125 0 L 11.8125 -27.3125 L 0.34375 -68.359375 L 10.296875 -68.359375 L 17.046875 -42.796875 L 17.203125 -42.796875 L 23.234375 -68.359375 L 33.125 -68.359375 L 22.21875 -27.3125 L 22.21875 0 Z M 11.8125 0 "/></g></g></g><g clip-path="url(#8c691900f8)"><path fill="#ffffff" d="M 184.605469 170.863281 L 184.605469 166.949219 L 220.089844 166.949219 L 220.089844 170.863281 Z M 184.605469 170.863281 " fill-opacity="1" fill-rule="nonzero"/></g><g clip-path="url(#1026210abe)"><path fill="#ffffff" d="M 168.746094 170.867188 L 168.746094 166.707031 L 180.980469 166.707031 L 180.980469 170.867188 Z M 168.746094 170.867188 " fill-opacity="1" fill-rule="nonzero"/></g><g clip-path="url(#4755fb1c2f)"><path fill="#ffffff" d="M 222.316406 178.363281 L 225.800781 178.363281 L 225.800781 218.832031 L 222.316406 218.832031 Z M 222.316406 178.363281 " fill-opacity="1" fill-rule="nonzero"/></g><g clip-path="url(#a66df8dcab)"><path fill="#ffffff" d="M 222.3125 192.105469 L 222.3125 188.351562 L 232.5 188.351562 L 232.5 192.105469 Z M 222.3125 192.105469 " fill-opacity="1" fill-rule="nonzero"/></g><g clip-path="url(#fa7ddcadf4)"><path fill="#ffffff" d="M 222.316406 218.710938 L 222.316406 215.226562 L 233.839844 215.226562 L 233.839844 218.710938 Z M 222.316406 218.710938 " fill-opacity="1" fill-rule="nonzero"/></g><g clip-path="url(#c1693f128d)"><path fill="#ffffff" d="M 235.515625 210.304688 L 235.515625 206.554688 L 241.945312 206.554688 L 241.945312 210.304688 Z M 235.515625 210.304688 " fill-opacity="1" fill-rule="nonzero"/></g><g clip-path="url(#f1fde752bd)"><path fill="#ffffff" d="M 244.929688 201.8125 L 244.929688 198.328125 L 257.257812 198.328125 L 257.257812 201.8125 Z M 244.929688 201.8125 " fill-opacity="1" fill-rule="nonzero"/></g><g clip-path="url(#51a3540921)"><path fill="#ffffff" d="M 240.945312 190.15625 L 240.945312 186.671875 L 263.457031 186.671875 L 263.457031 190.15625 Z M 240.945312 190.15625 " fill-opacity="1" fill-rule="nonzero"/></g><g clip-path="url(#0347c8cc72)"><path fill="#ffffff" d="M 250.222656 178.363281 L 254.242188 178.363281 L 254.242188 187.742188 L 250.222656 187.742188 Z M 250.222656 178.363281 " fill-opacity="1" fill-rule="nonzero"/></g><g clip-path="url(#ea0888871f)"><path fill="#ffffff" d="M 249.6875 218.707031 L 249.6875 215.226562 L 277.019531 215.226562 L 277.019531 218.707031 Z M 249.6875 218.707031 " fill-opacity="1" fill-rule="nonzero"/></g><g clip-path="url(#99771f2718)"><path fill="#ffffff" d="M 260.710938 206.59375 L 264.191406 206.59375 L 264.191406 216.777344 L 260.710938 216.777344 Z M 260.710938 206.59375 " fill-opacity="1" fill-rule="nonzero"/></g><g clip-path="url(#5831bb87fe)"><path fill="#ffffff" d="M 273.53125 190.160156 L 277.015625 190.160156 L 277.015625 215.351562 L 273.53125 215.351562 Z M 273.53125 190.160156 " fill-opacity="1" fill-rule="nonzero"/></g><g clip-path="url(#6c6edcf176)"><path fill="#ffffff" d="M 273.53125 178.363281 L 277.015625 178.363281 L 277.015625 183.992188 L 273.53125 183.992188 Z M 273.53125 178.363281 " fill-opacity="1" fill-rule="nonzero"/></g><g clip-path="url(#0b8dc48609)"><path fill="#ffffff" d="M 232.421875 176.949219 L 232.421875 173.464844 L 241.265625 173.464844 L 241.265625 176.949219 Z M 232.421875 176.949219 " fill-opacity="1" fill-rule="nonzero"/></g><g clip-path="url(#bb33dbbcf3)"><path fill="#ffffff" d="M 242.070312 168.882812 L 242.070312 164.863281 L 250.109375 164.863281 L 250.109375 168.882812 Z M 242.070312 168.882812 " fill-opacity="1" fill-rule="nonzero"/></g><g clip-path="url(#75b3fed3e7)"><path fill="#ffffff" d="M 259.882812 173.394531 L 259.882812 169.375 L 264.707031 169.375 L 264.707031 173.394531 Z M 259.882812 173.394531 " fill-opacity="1" fill-rule="nonzero"/></g><g clip-path="url(#1aff2d80e4)"><path fill="#ffffff" d="M 269.964844 169.492188 L 269.964844 165.472656 L 277.199219 165.472656 L 277.199219 169.492188 Z M 269.964844 169.492188 " fill-opacity="1" fill-rule="nonzero"/></g><g clip-path="url(#02573da76b)"><path fill="#ffffff" d="M 171.367188 180.496094 L 213.308594 180.496094 L 213.308594 222.441406 L 171.367188 222.441406 Z M 168.746094 225.0625 L 215.929688 225.0625 L 215.929688 177.875 L 168.746094 177.875 L 168.746094 225.0625 " fill-opacity="1" fill-rule="nonzero"/></g><g clip-path="url(#277ed02a77)"><path fill="#ffffff" d="M 178.976562 188.289062 L 205.644531 188.289062 L 205.644531 214.523438 L 178.976562 214.523438 Z M 178.976562 188.289062 " fill-opacity="1" fill-rule="nonzero"/></g><g clip-path="url(#5ba1aa3b9d)"><path fill="#ffffff" d="M 171.367188 115.082031 L 213.308594 115.082031 L 213.308594 157.027344 L 171.367188 157.027344 Z M 168.746094 159.648438 L 215.929688 159.648438 L 215.929688 112.460938 L 168.746094 112.460938 L 168.746094 159.648438 " fill-opacity="1" fill-rule="nonzero"/></g><g clip-path="url(#fb92a670e7)"><path fill="#ffffff" d="M 178.976562 122.875 L 205.644531 122.875 L 205.644531 149.109375 L 178.976562 149.109375 Z M 178.976562 122.875 " fill-opacity="1" fill-rule="nonzero"/></g><g clip-path="url(#166bc3d543)"><path fill="#ffffff" d="M 236.753906 115.082031 L 278.695312 115.082031 L 278.695312 157.027344 L 236.753906 157.027344 Z M 234.128906 159.648438 L 281.316406 159.648438 L 281.316406 112.460938 L 234.128906 112.460938 L 234.128906 159.648438 " fill-opacity="1" fill-rule="nonzero"/></g><g clip-path="url(#b92cd0f8da)"><path fill="#ffffff" d="M 244.363281 122.875 L 271.03125 122.875 L 271.03125 149.109375 L 244.363281 149.109375 Z M 244.363281 122.875 " fill-opacity="1" fill-rule="nonzero"/></g><g clip-path="url(#7c5cb0dc7b)"><path fill="#ffffff" d="M 227.226562 132.351562 L 222.976562 132.351562 L 222.976562 112.34375 L 227.226562 112.34375 Z M 227.226562 132.351562 " fill-opacity="1" fill-rule="nonzero"/></g><g clip-path="url(#6e7c80eb67)"><path fill="#ffffff" d="M 227.226562 150.300781 L 222.976562 150.300781 L 222.976562 139.800781 L 227.226562 139.800781 Z M 227.226562 150.300781 " fill-opacity="1" fill-rule="nonzero"/></g><g clip-path="url(#4c813bfb7f)"><path fill="#ffffff" d="M 227.226562 161.699219 L 222.976562 161.699219 L 222.976562 154.949219 L 227.226562 154.949219 Z M 227.226562 161.699219 " fill-opacity="1" fill-rule="nonzero"/></g></svg>