<svg xmlns="http://www.w3.org/2000/svg" xmlns:xlink="http://www.w3.org/1999/xlink" width="600" zoomAndPan="magnify" viewBox="0 0 450 449.999984" height="600" preserveAspectRatio="xMidYMid meet" version="1.0"><defs><clipPath id="2531349bbe"><path d="M 75.097656 72.972656 L 202.886719 72.972656 L 202.886719 201.675781 L 75.097656 201.675781 Z M 75.097656 72.972656 " clip-rule="nonzero"/></clipPath><clipPath id="9ef06b7215"><path d="M 81.605469 79.75 L 196.378906 79.75 L 196.378906 194.902344 L 81.605469 194.902344 Z M 81.605469 79.75 " clip-rule="nonzero"/></clipPath><clipPath id="aadef5cfa5"><path d="M 102.960938 101.292969 L 175.023438 101.292969 L 175.023438 173.355469 L 102.960938 173.355469 Z M 102.960938 101.292969 " clip-rule="nonzero"/></clipPath><clipPath id="37fe8a48df"><path d="M 219.910156 72.972656 L 229.667969 72.972656 L 229.667969 133.597656 L 219.910156 133.597656 Z M 219.910156 72.972656 " clip-rule="nonzero"/></clipPath><clipPath id="d8aa73f34a"><path d="M 219.910156 147.453125 L 229.777344 147.453125 L 229.777344 173 L 219.910156 173 Z M 219.910156 147.453125 " clip-rule="nonzero"/></clipPath><clipPath id="412a2e50c0"><path d="M 219.910156 182.867188 L 229.667969 182.867188 L 229.667969 201.675781 L 219.910156 201.675781 Z M 219.910156 182.867188 " clip-rule="nonzero"/></clipPath><clipPath id="deee9bb507"><path d="M 118.5625 219.75 L 215.949219 219.75 L 215.949219 230.71875 L 118.5625 230.71875 Z M 118.5625 219.75 " clip-rule="nonzero"/></clipPath><clipPath id="37385a260e"><path d="M 75.101562 219.007812 L 108.441406 219.007812 L 108.441406 230.714844 L 75.101562 230.714844 Z M 75.101562 219.007812 " clip-rule="nonzero"/></clipPath><clipPath id="9672fc33eb"><path d="M 221.890625 253.292969 L 231.648438 253.292969 L 231.648438 363.859375 L 221.890625 363.859375 Z M 221.890625 253.292969 " clip-rule="nonzero"/></clipPath><clipPath id="cd6bebf069"><path d="M 221.894531 280.730469 L 249.59375 280.730469 L 249.59375 290.949219 L 221.894531 290.949219 Z M 221.894531 280.730469 " clip-rule="nonzero"/></clipPath><clipPath id="54ea5dec1e"><path d="M 221.894531 354.09375 L 253.765625 354.09375 L 253.765625 363.851562 L 221.894531 363.851562 Z M 221.894531 354.09375 " clip-rule="nonzero"/></clipPath><clipPath id="143dd30430"><path d="M 258.066406 330.488281 L 276 330.488281 L 276 340.824219 L 258.066406 340.824219 Z M 258.066406 330.488281 " clip-rule="nonzero"/></clipPath><clipPath id="e4e89dc901"><path d="M 283.859375 308 L 317.320312 308 L 317.320312 317.546875 L 283.859375 317.546875 Z M 283.859375 308 " clip-rule="nonzero"/></clipPath><clipPath id="9c5d4822a0"><path d="M 272.949219 276 L 334.453125 276 L 334.453125 285.609375 L 272.949219 285.609375 Z M 272.949219 276 " clip-rule="nonzero"/></clipPath><clipPath id="7793bc5708"><path d="M 298.363281 253.292969 L 309.046875 253.292969 L 309.046875 278.707031 L 298.363281 278.707031 Z M 298.363281 253.292969 " clip-rule="nonzero"/></clipPath><clipPath id="5b8c8b7490"><path d="M 296.890625 354.097656 L 372 354.097656 L 372 363.855469 L 296.890625 363.855469 Z M 296.890625 354.097656 " clip-rule="nonzero"/></clipPath><clipPath id="69da8450b5"><path d="M 327.101562 330.652344 L 337 330.652344 L 337 358.8125 L 327.101562 358.8125 Z M 327.101562 330.652344 " clip-rule="nonzero"/></clipPath><clipPath id="42611320d3"><path d="M 362.238281 285.613281 L 372 285.613281 L 372 354.835938 L 362.238281 354.835938 Z M 362.238281 285.613281 " clip-rule="nonzero"/></clipPath><clipPath id="1d8f7aeab4"><path d="M 362.238281 253.292969 L 372 253.292969 L 372 268.644531 L 362.238281 268.644531 Z M 362.238281 253.292969 " clip-rule="nonzero"/></clipPath><clipPath id="5f67a178fb"><path d="M 249.589844 239.667969 L 273.855469 239.667969 L 273.855469 249.421875 L 249.589844 249.421875 Z M 249.589844 239.667969 " clip-rule="nonzero"/></clipPath><clipPath id="988598cc17"><path d="M 276.027344 216.621094 L 298.363281 216.621094 L 298.363281 227.304688 L 276.027344 227.304688 Z M 276.027344 216.621094 " clip-rule="nonzero"/></clipPath><clipPath id="668ffcce7b"><path d="M 324.835938 228.984375 L 338.363281 228.984375 L 338.363281 239.667969 L 324.835938 239.667969 Z M 324.835938 228.984375 " clip-rule="nonzero"/></clipPath><clipPath id="ce19f6910f"><path d="M 352.460938 218.296875 L 372.011719 218.296875 L 372.011719 228.984375 L 352.460938 228.984375 Z M 352.460938 218.296875 " clip-rule="nonzero"/></clipPath><clipPath id="a71e2c47c6"><path d="M 75.941406 248.324219 L 203.730469 248.324219 L 203.730469 377 L 75.941406 377 Z M 75.941406 248.324219 " clip-rule="nonzero"/></clipPath><clipPath id="8c64343411"><path d="M 82.449219 255.097656 L 197.222656 255.097656 L 197.222656 370 L 82.449219 370 Z M 82.449219 255.097656 " clip-rule="nonzero"/></clipPath><clipPath id="5e3df224d7"><path d="M 103.804688 276.644531 L 175.867188 276.644531 L 175.867188 348.707031 L 103.804688 348.707031 Z M 103.804688 276.644531 " clip-rule="nonzero"/></clipPath><clipPath id="8d18d5e5c3"><path d="M 247.113281 72.972656 L 374.902344 72.972656 L 374.902344 201.675781 L 247.113281 201.675781 Z M 247.113281 72.972656 " clip-rule="nonzero"/></clipPath><clipPath id="f13aad90d4"><path d="M 253.621094 79.75 L 368.394531 79.75 L 368.394531 194.902344 L 253.621094 194.902344 Z M 253.621094 79.75 " clip-rule="nonzero"/></clipPath><clipPath id="2b6b5054dc"><path d="M 274.976562 101.292969 L 347.039062 101.292969 L 347.039062 173.355469 L 274.976562 173.355469 Z M 274.976562 101.292969 " clip-rule="nonzero"/></clipPath></defs><rect x="-45" width="540" fill="#ffffff" y="-44.999998" height="539.99998" fill-opacity="1"/><rect x="-45" width="540" fill="#000000" y="-44.999998" height="539.99998" fill-opacity="1"/><g clip-path="url(#2531349bbe)"><path fill="#ffffff" d="M 75.097656 72.972656 L 202.632812 72.972656 L 202.632812 201.300781 L 75.097656 201.300781 Z M 75.097656 72.972656 " fill-opacity="1" fill-rule="nonzero"/></g><g clip-path="url(#9ef06b7215)"><path fill="#000000" d="M 81.605469 79.75 L 196.464844 79.75 L 196.464844 194.609375 L 81.605469 194.609375 Z M 81.605469 79.75 " fill-opacity="1" fill-rule="nonzero"/></g><g clip-path="url(#aadef5cfa5)"><path fill="#ffffff" d="M 102.960938 101.292969 L 175.046875 101.292969 L 175.046875 173.378906 L 102.960938 173.378906 Z M 102.960938 101.292969 " fill-opacity="1" fill-rule="nonzero"/></g><g clip-path="url(#37fe8a48df)"><path fill="#ffffff" d="M 219.910156 72.972656 L 229.96875 72.972656 L 229.96875 133.328125 L 219.910156 133.328125 Z M 219.910156 72.972656 " fill-opacity="1" fill-rule="nonzero"/></g><g clip-path="url(#d8aa73f34a)"><path fill="#ffffff" d="M 219.910156 147.453125 L 229.96875 147.453125 L 229.96875 172.9375 L 219.910156 172.9375 Z M 219.910156 147.453125 " fill-opacity="1" fill-rule="nonzero"/></g><g clip-path="url(#412a2e50c0)"><path fill="#ffffff" d="M 219.910156 182.867188 L 229.96875 182.867188 L 229.96875 201.644531 L 219.910156 201.644531 Z M 219.910156 182.867188 " fill-opacity="1" fill-rule="nonzero"/></g><g clip-path="url(#deee9bb507)"><path fill="#ffffff" d="M 118.5625 230.71875 L 118.5625 219.988281 L 215.800781 219.988281 L 215.800781 230.71875 Z M 118.5625 230.71875 " fill-opacity="1" fill-rule="nonzero"/></g><g clip-path="url(#37385a260e)"><path fill="#ffffff" d="M 75.101562 230.714844 L 75.101562 219.316406 L 108.632812 219.316406 L 108.632812 230.714844 Z M 75.101562 230.714844 " fill-opacity="1" fill-rule="nonzero"/></g><g clip-path="url(#9672fc33eb)"><path fill="#ffffff" d="M 221.890625 253.292969 L 231.4375 253.292969 L 231.4375 364.179688 L 221.890625 364.179688 Z M 221.890625 253.292969 " fill-opacity="1" fill-rule="nonzero"/></g><g clip-path="url(#cd6bebf069)"><path fill="#ffffff" d="M 221.894531 290.949219 L 221.894531 280.667969 L 249.800781 280.667969 L 249.800781 290.949219 Z M 221.894531 290.949219 " fill-opacity="1" fill-rule="nonzero"/></g><g clip-path="url(#54ea5dec1e)"><path fill="#ffffff" d="M 221.894531 363.851562 L 221.894531 354.304688 L 253.46875 354.304688 L 253.46875 363.851562 Z M 221.894531 363.851562 " fill-opacity="1" fill-rule="nonzero"/></g><g clip-path="url(#143dd30430)"><path fill="#ffffff" d="M 258.066406 340.824219 L 258.066406 330.542969 L 275.691406 330.542969 L 275.691406 340.824219 Z M 258.066406 340.824219 " fill-opacity="1" fill-rule="nonzero"/></g><g clip-path="url(#e4e89dc901)"><path fill="#ffffff" d="M 283.859375 317.546875 L 283.859375 308 L 317.640625 308 L 317.640625 317.546875 Z M 283.859375 317.546875 " fill-opacity="1" fill-rule="nonzero"/></g><g clip-path="url(#9c5d4822a0)"><path fill="#ffffff" d="M 272.949219 285.609375 L 272.949219 276.0625 L 334.636719 276.0625 L 334.636719 285.609375 Z M 272.949219 285.609375 " fill-opacity="1" fill-rule="nonzero"/></g><g clip-path="url(#7793bc5708)"><path fill="#ffffff" d="M 298.363281 253.292969 L 309.378906 253.292969 L 309.378906 278.992188 L 298.363281 278.992188 Z M 298.363281 253.292969 " fill-opacity="1" fill-rule="nonzero"/></g><g clip-path="url(#5b8c8b7490)"><path fill="#ffffff" d="M 296.890625 363.855469 L 296.890625 354.308594 L 371.796875 354.308594 L 371.796875 363.855469 Z M 296.890625 363.855469 " fill-opacity="1" fill-rule="nonzero"/></g><g clip-path="url(#69da8450b5)"><path fill="#ffffff" d="M 327.101562 330.652344 L 336.648438 330.652344 L 336.648438 358.558594 L 327.101562 358.558594 Z M 327.101562 330.652344 " fill-opacity="1" fill-rule="nonzero"/></g><g clip-path="url(#42611320d3)"><path fill="#ffffff" d="M 362.238281 285.613281 L 371.785156 285.613281 L 371.785156 354.644531 L 362.238281 354.644531 Z M 362.238281 285.613281 " fill-opacity="1" fill-rule="nonzero"/></g><g clip-path="url(#1d8f7aeab4)"><path fill="#ffffff" d="M 362.238281 253.292969 L 371.785156 253.292969 L 371.785156 268.714844 L 362.238281 268.714844 Z M 362.238281 253.292969 " fill-opacity="1" fill-rule="nonzero"/></g><g clip-path="url(#5f67a178fb)"><path fill="#ffffff" d="M 249.589844 249.421875 L 249.589844 239.878906 L 273.824219 239.878906 L 273.824219 249.421875 Z M 249.589844 249.421875 " fill-opacity="1" fill-rule="nonzero"/></g><g clip-path="url(#988598cc17)"><path fill="#ffffff" d="M 276.027344 227.304688 L 276.027344 216.289062 L 298.058594 216.289062 L 298.058594 227.304688 Z M 276.027344 227.304688 " fill-opacity="1" fill-rule="nonzero"/></g><g clip-path="url(#668ffcce7b)"><path fill="#ffffff" d="M 324.835938 239.667969 L 324.835938 228.652344 L 338.054688 228.652344 L 338.054688 239.667969 Z M 324.835938 239.667969 " fill-opacity="1" fill-rule="nonzero"/></g><g clip-path="url(#ce19f6910f)"><path fill="#ffffff" d="M 352.460938 228.984375 L 352.460938 217.96875 L 372.289062 217.96875 L 372.289062 228.984375 Z M 352.460938 228.984375 " fill-opacity="1" fill-rule="nonzero"/></g><g clip-path="url(#a71e2c47c6)"><path fill="#ffffff" d="M 75.941406 248.324219 L 203.476562 248.324219 L 203.476562 376.648438 L 75.941406 376.648438 Z M 75.941406 248.324219 " fill-opacity="1" fill-rule="nonzero"/></g><g clip-path="url(#8c64343411)"><path fill="#000000" d="M 82.449219 255.097656 L 197.308594 255.097656 L 197.308594 369.957031 L 82.449219 369.957031 Z M 82.449219 255.097656 " fill-opacity="1" fill-rule="nonzero"/></g><g clip-path="url(#5e3df224d7)"><path fill="#ffffff" d="M 103.804688 276.644531 L 175.890625 276.644531 L 175.890625 348.726562 L 103.804688 348.726562 Z M 103.804688 276.644531 " fill-opacity="1" fill-rule="nonzero"/></g><g clip-path="url(#8d18d5e5c3)"><path fill="#ffffff" d="M 247.113281 72.972656 L 374.648438 72.972656 L 374.648438 201.300781 L 247.113281 201.300781 Z M 247.113281 72.972656 " fill-opacity="1" fill-rule="nonzero"/></g><g clip-path="url(#f13aad90d4)"><path fill="#000000" d="M 253.621094 79.75 L 368.480469 79.75 L 368.480469 194.609375 L 253.621094 194.609375 Z M 253.621094 79.75 " fill-opacity="1" fill-rule="nonzero"/></g><g clip-path="url(#2b6b5054dc)"><path fill="#ffffff" d="M 274.976562 101.292969 L 347.0625 101.292969 L 347.0625 173.378906 L 274.976562 173.378906 Z M 274.976562 101.292969 " fill-opacity="1" fill-rule="nonzero"/></g></svg>