<svg xmlns="http://www.w3.org/2000/svg" xmlns:xlink="http://www.w3.org/1999/xlink" width="600" zoomAndPan="magnify" viewBox="0 0 450 449.999984" height="600" preserveAspectRatio="xMidYMid meet" version="1.0"><defs><g/><clipPath id="93444b509f"><path d="M 172.316406 116.695312 L 216.714844 116.695312 L 216.714844 161.410156 L 172.316406 161.410156 Z M 172.316406 116.695312 " clip-rule="nonzero"/></clipPath><clipPath id="1eabdad893"><path d="M 174.578125 119.046875 L 214.453125 119.046875 L 214.453125 159.054688 L 174.578125 159.054688 Z M 174.578125 119.046875 " clip-rule="nonzero"/></clipPath><clipPath id="9a2a3aaa5b"><path d="M 181.996094 126.53125 L 207.03125 126.53125 L 207.03125 151.570312 L 181.996094 151.570312 Z M 181.996094 126.53125 " clip-rule="nonzero"/></clipPath><clipPath id="fcb40d7dc2"><path d="M 223.316406 116.695312 L 226.707031 116.695312 L 226.707031 137.757812 L 223.316406 137.757812 Z M 223.316406 116.695312 " clip-rule="nonzero"/></clipPath><clipPath id="4328a51940"><path d="M 223.316406 142.570312 L 226.746094 142.570312 L 226.746094 151.503906 L 223.316406 151.503906 Z M 223.316406 142.570312 " clip-rule="nonzero"/></clipPath><clipPath id="245e45b613"><path d="M 223.316406 154.875 L 226.707031 154.875 L 226.707031 161.410156 L 223.316406 161.410156 Z M 223.316406 154.875 " clip-rule="nonzero"/></clipPath><clipPath id="a4ef8a680e"><path d="M 187.417969 168.546875 L 221.25 168.546875 L 221.25 172.359375 L 187.417969 172.359375 Z M 187.417969 168.546875 " clip-rule="nonzero"/></clipPath><clipPath id="ba58b9defb"><path d="M 172.316406 168.289062 L 183.898438 168.289062 L 183.898438 172.355469 L 172.316406 172.355469 Z M 172.316406 168.289062 " clip-rule="nonzero"/></clipPath><clipPath id="7beed97085"><path d="M 223.316406 179.433594 L 226.707031 179.433594 L 226.707031 217.847656 L 223.316406 217.847656 Z M 223.316406 179.433594 " clip-rule="nonzero"/></clipPath><clipPath id="7bc792dd5d"><path d="M 223.320312 188.964844 L 232.945312 188.964844 L 232.945312 192.515625 L 223.320312 192.515625 Z M 223.320312 188.964844 " clip-rule="nonzero"/></clipPath><clipPath id="281b00a81e"><path d="M 223.316406 214.453125 L 234.390625 214.453125 L 234.390625 217.84375 L 223.316406 217.84375 Z M 223.316406 214.453125 " clip-rule="nonzero"/></clipPath><clipPath id="19edde2a3b"><path d="M 235.882812 206.253906 L 242.121094 206.253906 L 242.121094 209.84375 L 235.882812 209.84375 Z M 235.882812 206.253906 " clip-rule="nonzero"/></clipPath><clipPath id="f2f8317216"><path d="M 244.847656 198.363281 L 256.472656 198.363281 L 256.472656 201.753906 L 244.847656 201.753906 Z M 244.847656 198.363281 " clip-rule="nonzero"/></clipPath><clipPath id="c93cf4de43"><path d="M 241.054688 187.269531 L 262.421875 187.269531 L 262.421875 190.660156 L 241.054688 190.660156 Z M 241.054688 187.269531 " clip-rule="nonzero"/></clipPath><clipPath id="d8b24e659b"><path d="M 249.886719 179.433594 L 253.597656 179.433594 L 253.597656 188.265625 L 249.886719 188.265625 Z M 249.886719 179.433594 " clip-rule="nonzero"/></clipPath><clipPath id="9d986e0a6c"><path d="M 249.375 214.453125 L 275.472656 214.453125 L 275.472656 217.84375 L 249.375 217.84375 Z M 249.375 214.453125 " clip-rule="nonzero"/></clipPath><clipPath id="d6b5c9b0f2"><path d="M 259.871094 206.3125 L 263.3125 206.3125 L 263.3125 216.097656 L 259.871094 216.097656 Z M 259.871094 206.3125 " clip-rule="nonzero"/></clipPath><clipPath id="236b1a7d30"><path d="M 272.078125 190.664062 L 275.472656 190.664062 L 275.472656 214.714844 L 272.078125 214.714844 Z M 272.078125 190.664062 " clip-rule="nonzero"/></clipPath><clipPath id="e6578d9439"><path d="M 272.078125 179.433594 L 275.472656 179.433594 L 275.472656 184.769531 L 272.078125 184.769531 Z M 272.078125 179.433594 " clip-rule="nonzero"/></clipPath><clipPath id="c107a971d9"><path d="M 232.9375 174.699219 L 241.367188 174.699219 L 241.367188 178.089844 L 232.9375 178.089844 Z M 232.9375 174.699219 " clip-rule="nonzero"/></clipPath><clipPath id="28f05aaf0a"><path d="M 242.128906 166.691406 L 249.886719 166.691406 L 249.886719 170.402344 L 242.128906 170.402344 Z M 242.128906 166.691406 " clip-rule="nonzero"/></clipPath><clipPath id="968bb5e6d6"><path d="M 259.085938 171 L 263.785156 171 L 263.785156 174.699219 L 259.085938 174.699219 Z M 259.085938 171 " clip-rule="nonzero"/></clipPath><clipPath id="e4091c9a1b"><path d="M 268.683594 167.273438 L 275.476562 167.273438 L 275.476562 170.984375 L 268.683594 170.984375 Z M 268.683594 167.273438 " clip-rule="nonzero"/></clipPath><clipPath id="8eb0f1340d"><path d="M 172.730469 179.113281 L 217.128906 179.113281 L 217.128906 223.828125 L 172.730469 223.828125 Z M 172.730469 179.113281 " clip-rule="nonzero"/></clipPath><clipPath id="ae294041cf"><path d="M 174.992188 181.46875 L 214.867188 181.46875 L 214.867188 221.476562 L 174.992188 221.476562 Z M 174.992188 181.46875 " clip-rule="nonzero"/></clipPath><clipPath id="e913ce0ebb"><path d="M 182.414062 188.953125 L 207.449219 188.953125 L 207.449219 213.988281 L 182.414062 213.988281 Z M 182.414062 188.953125 " clip-rule="nonzero"/></clipPath><clipPath id="e7d6e05528"><path d="M 233.496094 116.695312 L 277.894531 116.695312 L 277.894531 161.410156 L 233.496094 161.410156 Z M 233.496094 116.695312 " clip-rule="nonzero"/></clipPath><clipPath id="d1ce23fba7"><path d="M 235.753906 119.046875 L 275.632812 119.046875 L 275.632812 159.054688 L 235.753906 159.054688 Z M 235.753906 119.046875 " clip-rule="nonzero"/></clipPath><clipPath id="617045833d"><path d="M 243.175781 126.53125 L 268.210938 126.53125 L 268.210938 151.570312 L 243.175781 151.570312 Z M 243.175781 126.53125 " clip-rule="nonzero"/></clipPath></defs><rect x="-45" width="540" fill="#ffffff" y="-44.999998" height="539.99998" fill-opacity="1"/><rect x="-45" width="540" fill="#ffffff" y="-44.999998" height="539.99998" fill-opacity="1"/><rect x="-45" width="540" fill="#000000" y="-44.999998" height="539.99998" fill-opacity="1"/><g fill="#ffffff" fill-opacity="1"><g transform="translate(72.052487, 318.210836)"><g><path d="M 5.09375 0 L 5.09375 -68.359375 L 28.546875 -68.359375 L 28.546875 -59.3125 L 15.5 -59.3125 L 15.5 -41.140625 L 27.609375 -41.140625 L 27.609375 -32.046875 L 15.5 -32.046875 L 15.5 0 Z M 5.09375 0 "/></g></g></g><g fill="#ffffff" fill-opacity="1"><g transform="translate(110.525303, 318.210836)"><g><path d="M 5.515625 0 L 5.515625 -68.359375 L 15.921875 -68.359375 L 15.921875 0 Z M 5.515625 0 "/></g></g></g><g fill="#ffffff" fill-opacity="1"><g transform="translate(139.521368, 318.210836)"><g><path d="M 15.5 -8.078125 L 18.921875 -8.078125 C 20.835938 -8.078125 22.226562 -8.695312 23.09375 -9.9375 C 23.957031 -11.1875 24.390625 -13.46875 24.390625 -16.78125 L 24.359375 -50.53125 C 24.359375 -54.082031 23.921875 -56.609375 23.046875 -58.109375 C 22.179688 -59.609375 20.6875 -60.359375 18.5625 -60.359375 L 15.5 -60.359375 Z M 5.09375 0 L 5.09375 -68.359375 L 20.4375 -68.359375 C 25.457031 -68.359375 29.097656 -66.875 31.359375 -63.90625 C 33.628906 -60.945312 34.765625 -56.578125 34.765625 -50.796875 L 34.796875 -19.96875 C 34.796875 -13.070312 33.65625 -8.019531 31.375 -4.8125 C 29.101562 -1.601562 25.335938 0 20.078125 0 Z M 5.09375 0 "/></g></g></g><g fill="#ffffff" fill-opacity="1"><g transform="translate(186.11157, 318.210836)"><g><path d="M 5.125 0 L 5.125 -68.359375 L 28.046875 -68.359375 L 28.046875 -59.390625 L 15.53125 -59.390625 L 15.53125 -39.5 L 27.421875 -39.5 L 27.421875 -30.71875 L 15.53125 -30.71875 L 15.53125 -8.96875 L 28.515625 -8.96875 L 28.515625 0 Z M 5.125 0 "/></g></g></g><g fill="#ffffff" fill-opacity="1"><g transform="translate(225.361169, 318.210836)"><g><path d="M 5.125 0 L 5.125 -68.359375 L 15.53125 -68.359375 L 15.53125 -8.859375 L 28.703125 -8.859375 L 28.703125 0 Z M 5.125 0 "/></g></g></g><g fill="#ffffff" fill-opacity="1"><g transform="translate(262.474621, 318.210836)"><g><path d="M 33.984375 -18.640625 C 33.984375 -12.035156 32.804688 -7.144531 30.453125 -3.96875 C 28.097656 -0.800781 24.394531 0.78125 19.34375 0.78125 C 14.289062 0.78125 10.515625 -0.90625 8.015625 -4.28125 C 5.515625 -7.664062 4.265625 -12.53125 4.265625 -18.875 L 4.265625 -48.671875 C 4.265625 -58.847656 6.9375 -65.203125 12.28125 -67.734375 C 14.238281 -68.671875 16.617188 -69.140625 19.421875 -69.140625 C 29.023438 -69.140625 33.828125 -63.078125 33.828125 -50.953125 L 33.828125 -41.5625 L 23.765625 -41.5625 L 23.765625 -50.296875 C 23.765625 -53.816406 23.46875 -56.332031 22.875 -57.84375 C 22.28125 -59.363281 21.113281 -60.125 19.375 -60.125 C 17.644531 -60.125 16.441406 -59.320312 15.765625 -57.71875 C 15.097656 -56.113281 14.765625 -53.65625 14.765625 -50.34375 L 14.765625 -18.40625 C 14.765625 -14.726562 15.085938 -12.097656 15.734375 -10.515625 C 16.378906 -8.941406 17.554688 -8.15625 19.265625 -8.15625 C 20.972656 -8.15625 22.148438 -8.957031 22.796875 -10.5625 C 23.441406 -12.164062 23.765625 -14.820312 23.765625 -18.53125 L 23.765625 -28.3125 L 33.984375 -28.3125 Z M 33.984375 -18.640625 "/></g></g></g><g fill="#ffffff" fill-opacity="1"><g transform="translate(307.35589, 318.210836)"><g><path d="M 5.125 0 L 5.125 -68.359375 L 15.53125 -68.359375 L 15.53125 -8.859375 L 28.703125 -8.859375 L 28.703125 0 Z M 5.125 0 "/></g></g></g><g fill="#ffffff" fill-opacity="1"><g transform="translate(344.469331, 318.210836)"><g><path d="M 11.8125 0 L 11.8125 -27.3125 L 0.34375 -68.359375 L 10.296875 -68.359375 L 17.046875 -42.796875 L 17.203125 -42.796875 L 23.234375 -68.359375 L 33.125 -68.359375 L 22.21875 -27.3125 L 22.21875 0 Z M 11.8125 0 "/></g></g></g><g clip-path="url(#93444b509f)"><path fill="#ffffff" d="M 172.316406 116.695312 L 216.902344 116.695312 L 216.902344 161.277344 L 172.316406 161.277344 Z M 172.316406 116.695312 " fill-opacity="1" fill-rule="nonzero"/></g><g clip-path="url(#1eabdad893)"><path fill="#000000" d="M 174.578125 119.046875 L 214.621094 119.046875 L 214.621094 159.089844 L 174.578125 159.089844 Z M 174.578125 119.046875 " fill-opacity="1" fill-rule="nonzero"/></g><g clip-path="url(#9a2a3aaa5b)"><path fill="#ffffff" d="M 181.996094 126.53125 L 207.179688 126.53125 L 207.179688 151.714844 L 181.996094 151.714844 Z M 181.996094 126.53125 " fill-opacity="1" fill-rule="nonzero"/></g><g clip-path="url(#fcb40d7dc2)"><path fill="#ffffff" d="M 223.316406 116.695312 L 226.578125 116.695312 L 226.578125 137.664062 L 223.316406 137.664062 Z M 223.316406 116.695312 " fill-opacity="1" fill-rule="nonzero"/></g><g clip-path="url(#4328a51940)"><path fill="#ffffff" d="M 223.316406 142.570312 L 226.578125 142.570312 L 226.578125 151.425781 L 223.316406 151.425781 Z M 223.316406 142.570312 " fill-opacity="1" fill-rule="nonzero"/></g><g clip-path="url(#245e45b613)"><path fill="#ffffff" d="M 223.316406 154.875 L 226.578125 154.875 L 226.578125 161.398438 L 223.316406 161.398438 Z M 223.316406 154.875 " fill-opacity="1" fill-rule="nonzero"/></g><g clip-path="url(#a4ef8a680e)"><path fill="#ffffff" d="M 187.417969 172.359375 L 187.417969 168.628906 L 221.433594 168.628906 L 221.433594 172.359375 Z M 187.417969 172.359375 " fill-opacity="1" fill-rule="nonzero"/></g><g clip-path="url(#ba58b9defb)"><path fill="#ffffff" d="M 172.316406 172.355469 L 172.316406 168.164062 L 183.964844 168.164062 L 183.964844 172.355469 Z M 172.316406 172.355469 " fill-opacity="1" fill-rule="nonzero"/></g><g clip-path="url(#7beed97085)"><path fill="#ffffff" d="M 223.316406 179.433594 L 226.890625 179.433594 L 226.890625 217.707031 L 223.316406 217.707031 Z M 223.316406 179.433594 " fill-opacity="1" fill-rule="nonzero"/></g><g clip-path="url(#7bc792dd5d)"><path fill="#ffffff" d="M 223.320312 192.515625 L 223.320312 188.945312 L 233.015625 188.945312 L 233.015625 192.515625 Z M 223.320312 192.515625 " fill-opacity="1" fill-rule="nonzero"/></g><g clip-path="url(#281b00a81e)"><path fill="#ffffff" d="M 223.316406 217.84375 L 223.316406 214.269531 L 234.542969 214.269531 L 234.542969 217.84375 Z M 223.316406 217.84375 " fill-opacity="1" fill-rule="nonzero"/></g><g clip-path="url(#19edde2a3b)"><path fill="#ffffff" d="M 235.882812 209.84375 L 235.882812 206.273438 L 242.003906 206.273438 L 242.003906 209.84375 Z M 235.882812 209.84375 " fill-opacity="1" fill-rule="nonzero"/></g><g clip-path="url(#f2f8317216)"><path fill="#ffffff" d="M 244.847656 201.753906 L 244.847656 198.183594 L 256.582031 198.183594 L 256.582031 201.753906 Z M 244.847656 201.753906 " fill-opacity="1" fill-rule="nonzero"/></g><g clip-path="url(#c93cf4de43)"><path fill="#ffffff" d="M 241.054688 190.660156 L 241.054688 187.089844 L 262.488281 187.089844 L 262.488281 190.660156 Z M 241.054688 190.660156 " fill-opacity="1" fill-rule="nonzero"/></g><g clip-path="url(#d8b24e659b)"><path fill="#ffffff" d="M 249.886719 179.433594 L 253.457031 179.433594 L 253.457031 188.109375 L 249.886719 188.109375 Z M 249.886719 179.433594 " fill-opacity="1" fill-rule="nonzero"/></g><g clip-path="url(#9d986e0a6c)"><path fill="#ffffff" d="M 249.375 217.84375 L 249.375 214.273438 L 275.398438 214.273438 L 275.398438 217.84375 Z M 249.375 217.84375 " fill-opacity="1" fill-rule="nonzero"/></g><g clip-path="url(#d6b5c9b0f2)"><path fill="#ffffff" d="M 259.871094 206.3125 L 263.441406 206.3125 L 263.441406 216.007812 L 259.871094 216.007812 Z M 259.871094 206.3125 " fill-opacity="1" fill-rule="nonzero"/></g><g clip-path="url(#236b1a7d30)"><path fill="#ffffff" d="M 272.078125 190.664062 L 275.648438 190.664062 L 275.648438 214.648438 L 272.078125 214.648438 Z M 272.078125 190.664062 " fill-opacity="1" fill-rule="nonzero"/></g><g clip-path="url(#e6578d9439)"><path fill="#ffffff" d="M 272.078125 179.433594 L 275.648438 179.433594 L 275.648438 184.535156 L 272.078125 184.535156 Z M 272.078125 179.433594 " fill-opacity="1" fill-rule="nonzero"/></g><g clip-path="url(#c107a971d9)"><path fill="#ffffff" d="M 232.9375 178.089844 L 232.9375 174.515625 L 241.613281 174.515625 L 241.613281 178.089844 Z M 232.9375 178.089844 " fill-opacity="1" fill-rule="nonzero"/></g><g clip-path="url(#28f05aaf0a)"><path fill="#ffffff" d="M 242.128906 170.402344 L 242.128906 166.832031 L 249.78125 166.832031 L 249.78125 170.402344 Z M 242.128906 170.402344 " fill-opacity="1" fill-rule="nonzero"/></g><g clip-path="url(#968bb5e6d6)"><path fill="#ffffff" d="M 259.085938 174.699219 L 259.085938 171.125 L 263.679688 171.125 L 263.679688 174.699219 Z M 259.085938 174.699219 " fill-opacity="1" fill-rule="nonzero"/></g><g clip-path="url(#e4091c9a1b)"><path fill="#ffffff" d="M 268.683594 170.984375 L 268.683594 167.414062 L 275.316406 167.414062 L 275.316406 170.984375 Z M 268.683594 170.984375 " fill-opacity="1" fill-rule="nonzero"/></g><g clip-path="url(#8eb0f1340d)"><path fill="#ffffff" d="M 172.730469 179.113281 L 217.316406 179.113281 L 217.316406 223.699219 L 172.730469 223.699219 Z M 172.730469 179.113281 " fill-opacity="1" fill-rule="nonzero"/></g><g clip-path="url(#ae294041cf)"><path fill="#000000" d="M 174.992188 181.46875 L 215.035156 181.46875 L 215.035156 221.511719 L 174.992188 221.511719 Z M 174.992188 181.46875 " fill-opacity="1" fill-rule="nonzero"/></g><g clip-path="url(#e913ce0ebb)"><path fill="#ffffff" d="M 182.414062 188.953125 L 207.59375 188.953125 L 207.59375 214.136719 L 182.414062 214.136719 Z M 182.414062 188.953125 " fill-opacity="1" fill-rule="nonzero"/></g><g clip-path="url(#e7d6e05528)"><path fill="#ffffff" d="M 233.496094 116.695312 L 278.078125 116.695312 L 278.078125 161.277344 L 233.496094 161.277344 Z M 233.496094 116.695312 " fill-opacity="1" fill-rule="nonzero"/></g><g clip-path="url(#d1ce23fba7)"><path fill="#000000" d="M 235.753906 119.046875 L 275.800781 119.046875 L 275.800781 159.089844 L 235.753906 159.089844 Z M 235.753906 119.046875 " fill-opacity="1" fill-rule="nonzero"/></g><g clip-path="url(#617045833d)"><path fill="#ffffff" d="M 243.175781 126.53125 L 268.359375 126.53125 L 268.359375 151.714844 L 243.175781 151.714844 Z M 243.175781 126.53125 " fill-opacity="1" fill-rule="nonzero"/></g></svg>