<svg xmlns="http://www.w3.org/2000/svg" xmlns:xlink="http://www.w3.org/1999/xlink" width="900" zoomAndPan="magnify" viewBox="0 0 675 449.999984" height="600" preserveAspectRatio="xMidYMid meet" version="1.0"><defs><clipPath id="852f1c4fc5"><path d="M 229.753906 220.011719 L 324.546875 220.011719 L 324.546875 230.691406 L 229.753906 230.691406 Z M 229.753906 220.011719 " clip-rule="nonzero"/></clipPath><clipPath id="df6d814b2b"><path d="M 187.449219 219.300781 L 219.898438 219.300781 L 219.898438 230.695312 L 187.449219 230.695312 Z M 187.449219 219.300781 " clip-rule="nonzero"/></clipPath><clipPath id="6589d78caa"><path d="M 330.339844 250.691406 L 339.835938 250.691406 L 339.835938 358.320312 L 330.339844 358.320312 Z M 330.339844 250.691406 " clip-rule="nonzero"/></clipPath><clipPath id="83f8724ac1"><path d="M 330.335938 277.394531 L 357.300781 277.394531 L 357.300781 287.34375 L 330.335938 287.34375 Z M 330.335938 277.394531 " clip-rule="nonzero"/></clipPath><clipPath id="639c236d70"><path d="M 330.335938 349 L 361.363281 349 L 361.363281 358.308594 L 330.335938 358.308594 Z M 330.335938 349 " clip-rule="nonzero"/></clipPath><clipPath id="09f24b1f11"><path d="M 365.546875 325.832031 L 383 325.832031 L 383 335.894531 L 365.546875 335.894531 Z M 365.546875 325.832031 " clip-rule="nonzero"/></clipPath><clipPath id="99ecd7d3a7"><path d="M 390.65625 303.738281 L 423.226562 303.738281 L 423.226562 313.234375 L 390.65625 313.234375 Z M 390.65625 303.738281 " clip-rule="nonzero"/></clipPath><clipPath id="4971142d56"><path d="M 380.035156 272.652344 L 439.902344 272.652344 L 439.902344 282.148438 L 380.035156 282.148438 Z M 380.035156 272.652344 " clip-rule="nonzero"/></clipPath><clipPath id="610a2badd3"><path d="M 404.773438 250.691406 L 415.175781 250.691406 L 415.175781 275.429688 L 404.773438 275.429688 Z M 404.773438 250.691406 " clip-rule="nonzero"/></clipPath><clipPath id="86bc893596"><path d="M 403.347656 349 L 476.46875 349 L 476.46875 358.308594 L 403.347656 358.308594 Z M 403.347656 349 " clip-rule="nonzero"/></clipPath><clipPath id="babbb0911d"><path d="M 432.75 325.996094 L 442.390625 325.996094 L 442.390625 353.410156 L 432.75 353.410156 Z M 432.75 325.996094 " clip-rule="nonzero"/></clipPath><clipPath id="c10a8f7dd9"><path d="M 466.953125 282.15625 L 476.46875 282.15625 L 476.46875 349.535156 L 466.953125 349.535156 Z M 466.953125 282.15625 " clip-rule="nonzero"/></clipPath><clipPath id="b44c707f7b"><path d="M 466.953125 250.691406 L 476.46875 250.691406 L 476.46875 265.636719 L 466.953125 265.636719 Z M 466.953125 250.691406 " clip-rule="nonzero"/></clipPath><clipPath id="01fb04096f"><path d="M 357.300781 237.425781 L 380.917969 237.425781 L 380.917969 246.925781 L 357.300781 246.925781 Z M 357.300781 237.425781 " clip-rule="nonzero"/></clipPath><clipPath id="dda886a2b5"><path d="M 383.035156 215.003906 L 404.777344 215.003906 L 404.777344 225.402344 L 383.035156 225.402344 Z M 383.035156 215.003906 " clip-rule="nonzero"/></clipPath><clipPath id="18da04d204"><path d="M 430.550781 227.035156 L 443.71875 227.035156 L 443.71875 237.4375 L 430.550781 237.4375 Z M 430.550781 227.035156 " clip-rule="nonzero"/></clipPath><clipPath id="67c25e8caf"><path d="M 457.4375 216.636719 L 476.472656 216.636719 L 476.472656 227.035156 L 457.4375 227.035156 Z M 457.4375 216.636719 " clip-rule="nonzero"/></clipPath><clipPath id="cd6bd6b38d"><path d="M 187.445312 249.390625 L 313.308594 249.390625 L 313.308594 375.253906 L 187.445312 375.253906 Z M 187.445312 249.390625 " clip-rule="nonzero"/></clipPath><clipPath id="678ea3b68e"><path d="M 214.742188 277.167969 L 285.851562 277.167969 L 285.851562 347.3125 L 214.742188 347.3125 Z M 214.742188 277.167969 " clip-rule="nonzero"/></clipPath><clipPath id="f622adf499"><path d="M 187.445312 74.910156 L 313.308594 74.910156 L 313.308594 200.773438 L 187.445312 200.773438 Z M 187.445312 74.910156 " clip-rule="nonzero"/></clipPath><clipPath id="646b79ac33"><path d="M 214.742188 102.6875 L 285.851562 102.6875 L 285.851562 172.832031 L 214.742188 172.832031 Z M 214.742188 102.6875 " clip-rule="nonzero"/></clipPath><clipPath id="505c399586"><path d="M 361.855469 74.910156 L 487.71875 74.910156 L 487.71875 200.773438 L 361.855469 200.773438 Z M 361.855469 74.910156 " clip-rule="nonzero"/></clipPath><clipPath id="19ecd63c59"><path d="M 389.148438 102.6875 L 460.257812 102.6875 L 460.257812 172.832031 L 389.148438 172.832031 Z M 389.148438 102.6875 " clip-rule="nonzero"/></clipPath><clipPath id="fd98dfd25f"><path d="M 332 74.90625 L 343.4375 74.90625 L 343.4375 127.960938 L 332 127.960938 Z M 332 74.90625 " clip-rule="nonzero"/></clipPath><clipPath id="8f710fa6b2"><path d="M 332 147.582031 L 343.4375 147.582031 L 343.4375 175.84375 L 332 175.84375 Z M 332 147.582031 " clip-rule="nonzero"/></clipPath><clipPath id="879924aaa5"><path d="M 332 188.371094 L 343.4375 188.371094 L 343.4375 206.246094 L 332 206.246094 Z M 332 188.371094 " clip-rule="nonzero"/></clipPath></defs><rect x="-67.5" width="810" fill="#ffffff" y="-44.999998" height="539.99998" fill-opacity="1"/><rect x="-67.5" width="810" fill="#ffffff" y="-44.999998" height="539.99998" fill-opacity="1"/><g clip-path="url(#852f1c4fc5)"><path fill="#191308" d="M 229.753906 230.691406 L 229.753906 220.246094 L 324.40625 220.246094 L 324.40625 230.691406 Z M 229.753906 230.691406 " fill-opacity="1" fill-rule="nonzero"/></g><g clip-path="url(#df6d814b2b)"><path fill="#191308" d="M 187.449219 230.695312 L 187.449219 219.597656 L 220.085938 219.597656 L 220.085938 230.695312 Z M 187.449219 230.695312 " fill-opacity="1" fill-rule="nonzero"/></g><g clip-path="url(#6589d78caa)"><path fill="#191308" d="M 330.339844 250.691406 L 339.632812 250.691406 L 339.632812 358.632812 L 330.339844 358.632812 Z M 330.339844 250.691406 " fill-opacity="1" fill-rule="nonzero"/></g><g clip-path="url(#83f8724ac1)"><path fill="#191308" d="M 330.335938 287.34375 L 330.335938 277.335938 L 357.5 277.335938 L 357.5 287.34375 Z M 330.335938 287.34375 " fill-opacity="1" fill-rule="nonzero"/></g><g clip-path="url(#639c236d70)"><path fill="#191308" d="M 330.335938 358.308594 L 330.335938 349.015625 L 361.074219 349.015625 L 361.074219 358.308594 Z M 330.335938 358.308594 " fill-opacity="1" fill-rule="nonzero"/></g><g clip-path="url(#09f24b1f11)"><path fill="#191308" d="M 365.546875 335.894531 L 365.546875 325.886719 L 382.703125 325.886719 L 382.703125 335.894531 Z M 365.546875 335.894531 " fill-opacity="1" fill-rule="nonzero"/></g><g clip-path="url(#99ecd7d3a7)"><path fill="#191308" d="M 390.65625 313.234375 L 390.65625 303.941406 L 423.539062 303.941406 L 423.539062 313.234375 Z M 390.65625 313.234375 " fill-opacity="1" fill-rule="nonzero"/></g><g clip-path="url(#4971142d56)"><path fill="#191308" d="M 380.035156 282.148438 L 380.035156 272.855469 L 440.082031 272.855469 L 440.082031 282.148438 Z M 380.035156 282.148438 " fill-opacity="1" fill-rule="nonzero"/></g><g clip-path="url(#610a2badd3)"><path fill="#191308" d="M 404.773438 250.691406 L 415.496094 250.691406 L 415.496094 275.710938 L 404.773438 275.710938 Z M 404.773438 250.691406 " fill-opacity="1" fill-rule="nonzero"/></g><g clip-path="url(#86bc893596)"><path fill="#191308" d="M 403.347656 358.308594 L 403.347656 349.015625 L 476.261719 349.015625 L 476.261719 358.308594 Z M 403.347656 358.308594 " fill-opacity="1" fill-rule="nonzero"/></g><g clip-path="url(#babbb0911d)"><path fill="#191308" d="M 432.75 325.996094 L 442.042969 325.996094 L 442.042969 353.160156 L 432.75 353.160156 Z M 432.75 325.996094 " fill-opacity="1" fill-rule="nonzero"/></g><g clip-path="url(#c10a8f7dd9)"><path fill="#191308" d="M 466.953125 282.15625 L 476.246094 282.15625 L 476.246094 349.347656 L 466.953125 349.347656 Z M 466.953125 282.15625 " fill-opacity="1" fill-rule="nonzero"/></g><g clip-path="url(#b44c707f7b)"><path fill="#191308" d="M 466.953125 250.691406 L 476.246094 250.691406 L 476.246094 265.703125 L 466.953125 265.703125 Z M 466.953125 250.691406 " fill-opacity="1" fill-rule="nonzero"/></g><g clip-path="url(#01fb04096f)"><path fill="#191308" d="M 357.300781 246.925781 L 357.300781 237.632812 L 380.890625 237.632812 L 380.890625 246.925781 Z M 357.300781 246.925781 " fill-opacity="1" fill-rule="nonzero"/></g><g clip-path="url(#dda886a2b5)"><path fill="#191308" d="M 383.035156 225.402344 L 383.035156 214.679688 L 404.480469 214.679688 L 404.480469 225.402344 Z M 383.035156 225.402344 " fill-opacity="1" fill-rule="nonzero"/></g><g clip-path="url(#18da04d204)"><path fill="#191308" d="M 430.550781 237.4375 L 430.550781 226.714844 L 443.417969 226.714844 L 443.417969 237.4375 Z M 430.550781 237.4375 " fill-opacity="1" fill-rule="nonzero"/></g><g clip-path="url(#67c25e8caf)"><path fill="#191308" d="M 457.4375 227.035156 L 457.4375 216.3125 L 476.738281 216.3125 L 476.738281 227.035156 Z M 457.4375 227.035156 " fill-opacity="1" fill-rule="nonzero"/></g><g clip-path="url(#cd6bd6b38d)"><path fill="#191308" d="M 194.4375 256.382812 L 306.316406 256.382812 L 306.316406 368.261719 L 194.4375 368.261719 Z M 187.445312 375.253906 L 313.308594 375.253906 L 313.308594 249.390625 L 187.445312 249.390625 L 187.445312 375.253906 " fill-opacity="1" fill-rule="nonzero"/></g><g clip-path="url(#678ea3b68e)"><path fill="#191308" d="M 214.742188 277.167969 L 285.871094 277.167969 L 285.871094 347.144531 L 214.742188 347.144531 Z M 214.742188 277.167969 " fill-opacity="1" fill-rule="nonzero"/></g><g clip-path="url(#f622adf499)"><path fill="#191308" d="M 194.4375 81.902344 L 306.316406 81.902344 L 306.316406 193.78125 L 194.4375 193.78125 Z M 187.445312 200.773438 L 313.308594 200.773438 L 313.308594 74.910156 L 187.445312 74.910156 L 187.445312 200.773438 " fill-opacity="1" fill-rule="nonzero"/></g><g clip-path="url(#646b79ac33)"><path fill="#191308" d="M 214.742188 102.6875 L 285.871094 102.6875 L 285.871094 172.660156 L 214.742188 172.660156 Z M 214.742188 102.6875 " fill-opacity="1" fill-rule="nonzero"/></g><g clip-path="url(#505c399586)"><path fill="#191308" d="M 368.847656 81.902344 L 480.726562 81.902344 L 480.726562 193.78125 L 368.847656 193.78125 Z M 361.855469 200.773438 L 487.71875 200.773438 L 487.71875 74.910156 L 361.855469 74.910156 L 361.855469 200.773438 " fill-opacity="1" fill-rule="nonzero"/></g><g clip-path="url(#19ecd63c59)"><path fill="#191308" d="M 389.148438 102.6875 L 460.28125 102.6875 L 460.28125 172.660156 L 389.148438 172.660156 Z M 389.148438 102.6875 " fill-opacity="1" fill-rule="nonzero"/></g><g clip-path="url(#fd98dfd25f)"><path fill="#191308" d="M 343.4375 127.960938 L 332.101562 127.960938 L 332.101562 74.601562 L 343.4375 74.601562 Z M 343.4375 127.960938 " fill-opacity="1" fill-rule="nonzero"/></g><g clip-path="url(#8f710fa6b2)"><path fill="#191308" d="M 343.4375 175.84375 L 332.101562 175.84375 L 332.101562 147.828125 L 343.4375 147.828125 Z M 343.4375 175.84375 " fill-opacity="1" fill-rule="nonzero"/></g><g clip-path="url(#879924aaa5)"><path fill="#191308" d="M 343.4375 206.246094 L 332.101562 206.246094 L 332.101562 188.238281 L 343.4375 188.238281 Z M 343.4375 206.246094 " fill-opacity="1" fill-rule="nonzero"/></g></svg>