<svg xmlns="http://www.w3.org/2000/svg" xmlns:xlink="http://www.w3.org/1999/xlink" width="900" zoomAndPan="magnify" viewBox="0 0 675 449.999984" height="600" preserveAspectRatio="xMidYMid meet" version="1.0"><defs><g/><clipPath id="5524e184e8"><path d="M 297.234375 167.046875 L 332.660156 167.046875 L 332.660156 171.035156 L 297.234375 171.035156 Z M 297.234375 167.046875 " clip-rule="nonzero"/></clipPath><clipPath id="3182de4198"><path d="M 281.425781 166.78125 L 293.550781 166.78125 L 293.550781 171.039062 L 281.425781 171.039062 Z M 281.425781 166.78125 " clip-rule="nonzero"/></clipPath><clipPath id="c7c9ba7c5f"><path d="M 334.824219 178.511719 L 338.371094 178.511719 L 338.371094 218.734375 L 334.824219 218.734375 Z M 334.824219 178.511719 " clip-rule="nonzero"/></clipPath><clipPath id="6abe2d55c3"><path d="M 334.824219 188.492188 L 344.898438 188.492188 L 344.898438 192.207031 L 334.824219 192.207031 Z M 334.824219 188.492188 " clip-rule="nonzero"/></clipPath><clipPath id="b4f22a48ad"><path d="M 334.824219 215.179688 L 346.417969 215.179688 L 346.417969 218.730469 L 334.824219 218.730469 Z M 334.824219 215.179688 " clip-rule="nonzero"/></clipPath><clipPath id="2589716bf1"><path d="M 347.980469 206.59375 L 354.515625 206.59375 L 354.515625 210.351562 L 347.980469 210.351562 Z M 347.980469 206.59375 " clip-rule="nonzero"/></clipPath><clipPath id="a322c8927b"><path d="M 357.363281 198.335938 L 369.539062 198.335938 L 369.539062 201.882812 L 357.363281 201.882812 Z M 357.363281 198.335938 " clip-rule="nonzero"/></clipPath><clipPath id="d8e1ed74ab"><path d="M 353.394531 186.71875 L 375.769531 186.71875 L 375.769531 190.265625 L 353.394531 190.265625 Z M 353.394531 186.71875 " clip-rule="nonzero"/></clipPath><clipPath id="ad9cec301b"><path d="M 362.640625 178.511719 L 366.527344 178.511719 L 366.527344 187.757812 L 362.640625 187.757812 Z M 362.640625 178.511719 " clip-rule="nonzero"/></clipPath><clipPath id="d5c15168f3"><path d="M 362.109375 215.179688 L 389.433594 215.179688 L 389.433594 218.730469 L 362.109375 218.730469 Z M 362.109375 215.179688 " clip-rule="nonzero"/></clipPath><clipPath id="daddb4078c"><path d="M 373.09375 206.652344 L 376.699219 206.652344 L 376.699219 216.898438 L 373.09375 216.898438 Z M 373.09375 206.652344 " clip-rule="nonzero"/></clipPath><clipPath id="289c707072"><path d="M 385.878906 190.269531 L 389.433594 190.269531 L 389.433594 215.449219 L 385.878906 215.449219 Z M 385.878906 190.269531 " clip-rule="nonzero"/></clipPath><clipPath id="cbcac91dd6"><path d="M 385.878906 178.511719 L 389.433594 178.511719 L 389.433594 184.097656 L 385.878906 184.097656 Z M 385.878906 178.511719 " clip-rule="nonzero"/></clipPath><clipPath id="68bc9cebe3"><path d="M 344.898438 173.554688 L 353.726562 173.554688 L 353.726562 177.101562 L 344.898438 177.101562 Z M 344.898438 173.554688 " clip-rule="nonzero"/></clipPath><clipPath id="687020cd36"><path d="M 354.515625 165.175781 L 362.640625 165.175781 L 362.640625 169.058594 L 354.515625 169.058594 Z M 354.515625 165.175781 " clip-rule="nonzero"/></clipPath><clipPath id="ae591c3ed6"><path d="M 372.273438 169.671875 L 377.195312 169.671875 L 377.195312 173.558594 L 372.273438 173.558594 Z M 372.273438 169.671875 " clip-rule="nonzero"/></clipPath><clipPath id="a9bf77470c"><path d="M 382.320312 165.785156 L 389.433594 165.785156 L 389.433594 169.671875 L 382.320312 169.671875 Z M 382.320312 165.785156 " clip-rule="nonzero"/></clipPath><clipPath id="53f29c1740"><path d="M 281.421875 178.027344 L 328.460938 178.027344 L 328.460938 225.0625 L 281.421875 225.0625 Z M 281.421875 178.027344 " clip-rule="nonzero"/></clipPath><clipPath id="6f6965085a"><path d="M 291.625 188.40625 L 318.199219 188.40625 L 318.199219 214.621094 L 291.625 214.621094 Z M 291.625 188.40625 " clip-rule="nonzero"/></clipPath><clipPath id="a8725a0ea1"><path d="M 281.421875 112.820312 L 328.460938 112.820312 L 328.460938 159.855469 L 281.421875 159.855469 Z M 281.421875 112.820312 " clip-rule="nonzero"/></clipPath><clipPath id="6b43d4d759"><path d="M 291.625 123.199219 L 318.199219 123.199219 L 318.199219 149.414062 L 291.625 149.414062 Z M 291.625 123.199219 " clip-rule="nonzero"/></clipPath><clipPath id="b259c4bcf1"><path d="M 346.601562 112.820312 L 393.636719 112.820312 L 393.636719 159.855469 L 346.601562 159.855469 Z M 346.601562 112.820312 " clip-rule="nonzero"/></clipPath><clipPath id="f84102bb02"><path d="M 356.800781 123.199219 L 383.375 123.199219 L 383.375 149.414062 L 356.800781 149.414062 Z M 356.800781 123.199219 " clip-rule="nonzero"/></clipPath><clipPath id="61d95d02a1"><path d="M 335.367188 112.820312 L 339.71875 112.820312 L 339.71875 132.644531 L 335.367188 132.644531 Z M 335.367188 112.820312 " clip-rule="nonzero"/></clipPath><clipPath id="128a94a980"><path d="M 335.367188 140 L 339.71875 140 L 339.71875 150.539062 L 335.367188 150.539062 Z M 335.367188 140 " clip-rule="nonzero"/></clipPath><clipPath id="0cc976f91a"><path d="M 335.367188 155.222656 L 339.71875 155.222656 L 339.71875 161.902344 L 335.367188 161.902344 Z M 335.367188 155.222656 " clip-rule="nonzero"/></clipPath></defs><rect x="-67.5" width="810" fill="#ffffff" y="-44.999998" height="539.99998" fill-opacity="1"/><rect x="-67.5" width="810" fill="#ffffff" y="-44.999998" height="539.99998" fill-opacity="1"/><g fill="#000000" fill-opacity="1"><g transform="translate(184.555002, 318.668471)"><g><path d="M 5.09375 0 L 5.09375 -68.359375 L 28.546875 -68.359375 L 28.546875 -59.3125 L 15.5 -59.3125 L 15.5 -41.140625 L 27.609375 -41.140625 L 27.609375 -32.046875 L 15.5 -32.046875 L 15.5 0 Z M 5.09375 0 "/></g></g></g><g fill="#000000" fill-opacity="1"><g transform="translate(223.027219, 318.668471)"><g><path d="M 5.515625 0 L 5.515625 -68.359375 L 15.921875 -68.359375 L 15.921875 0 Z M 5.515625 0 "/></g></g></g><g fill="#000000" fill-opacity="1"><g transform="translate(252.022871, 318.668471)"><g><path d="M 15.5 -8.078125 L 18.921875 -8.078125 C 20.835938 -8.078125 22.226562 -8.695312 23.09375 -9.9375 C 23.957031 -11.1875 24.390625 -13.46875 24.390625 -16.78125 L 24.359375 -50.53125 C 24.359375 -54.082031 23.921875 -56.609375 23.046875 -58.109375 C 22.179688 -59.609375 20.6875 -60.359375 18.5625 -60.359375 L 15.5 -60.359375 Z M 5.09375 0 L 5.09375 -68.359375 L 20.4375 -68.359375 C 25.457031 -68.359375 29.097656 -66.875 31.359375 -63.90625 C 33.628906 -60.945312 34.765625 -56.578125 34.765625 -50.796875 L 34.796875 -19.96875 C 34.796875 -13.070312 33.65625 -8.019531 31.375 -4.8125 C 29.101562 -1.601562 25.335938 0 20.078125 0 Z M 5.09375 0 "/></g></g></g><g fill="#000000" fill-opacity="1"><g transform="translate(298.612305, 318.668471)"><g><path d="M 5.125 0 L 5.125 -68.359375 L 28.046875 -68.359375 L 28.046875 -59.390625 L 15.53125 -59.390625 L 15.53125 -39.5 L 27.421875 -39.5 L 27.421875 -30.71875 L 15.53125 -30.71875 L 15.53125 -8.96875 L 28.515625 -8.96875 L 28.515625 0 Z M 5.125 0 "/></g></g></g><g fill="#000000" fill-opacity="1"><g transform="translate(337.861285, 318.668471)"><g><path d="M 5.125 0 L 5.125 -68.359375 L 15.53125 -68.359375 L 15.53125 -8.859375 L 28.703125 -8.859375 L 28.703125 0 Z M 5.125 0 "/></g></g></g><g fill="#000000" fill-opacity="1"><g transform="translate(374.974163, 318.668471)"><g><path d="M 33.984375 -18.640625 C 33.984375 -12.035156 32.804688 -7.144531 30.453125 -3.96875 C 28.097656 -0.800781 24.394531 0.78125 19.34375 0.78125 C 14.289062 0.78125 10.515625 -0.90625 8.015625 -4.28125 C 5.515625 -7.664062 4.265625 -12.53125 4.265625 -18.875 L 4.265625 -48.671875 C 4.265625 -58.847656 6.9375 -65.203125 12.28125 -67.734375 C 14.238281 -68.671875 16.617188 -69.140625 19.421875 -69.140625 C 29.023438 -69.140625 33.828125 -63.078125 33.828125 -50.953125 L 33.828125 -41.5625 L 23.765625 -41.5625 L 23.765625 -50.296875 C 23.765625 -53.816406 23.46875 -56.332031 22.875 -57.84375 C 22.28125 -59.363281 21.113281 -60.125 19.375 -60.125 C 17.644531 -60.125 16.441406 -59.320312 15.765625 -57.71875 C 15.097656 -56.113281 14.765625 -53.65625 14.765625 -50.34375 L 14.765625 -18.40625 C 14.765625 -14.726562 15.085938 -12.097656 15.734375 -10.515625 C 16.378906 -8.941406 17.554688 -8.15625 19.265625 -8.15625 C 20.972656 -8.15625 22.148438 -8.957031 22.796875 -10.5625 C 23.441406 -12.164062 23.765625 -14.820312 23.765625 -18.53125 L 23.765625 -28.3125 L 33.984375 -28.3125 Z M 33.984375 -18.640625 "/></g></g></g><g fill="#000000" fill-opacity="1"><g transform="translate(419.854718, 318.668471)"><g><path d="M 5.125 0 L 5.125 -68.359375 L 15.53125 -68.359375 L 15.53125 -8.859375 L 28.703125 -8.859375 L 28.703125 0 Z M 5.125 0 "/></g></g></g><g fill="#000000" fill-opacity="1"><g transform="translate(456.967596, 318.668471)"><g><path d="M 11.8125 0 L 11.8125 -27.3125 L 0.34375 -68.359375 L 10.296875 -68.359375 L 17.046875 -42.796875 L 17.203125 -42.796875 L 23.234375 -68.359375 L 33.125 -68.359375 L 22.21875 -27.3125 L 22.21875 0 Z M 11.8125 0 "/></g></g></g><g clip-path="url(#5524e184e8)"><path fill="#191308" d="M 297.234375 171.035156 L 297.234375 167.132812 L 332.605469 167.132812 L 332.605469 171.035156 Z M 297.234375 171.035156 " fill-opacity="1" fill-rule="nonzero"/></g><g clip-path="url(#3182de4198)"><path fill="#191308" d="M 281.425781 171.039062 L 281.425781 166.890625 L 293.621094 166.890625 L 293.621094 171.039062 Z M 281.425781 171.039062 " fill-opacity="1" fill-rule="nonzero"/></g><g clip-path="url(#c7c9ba7c5f)"><path fill="#191308" d="M 334.824219 178.511719 L 338.296875 178.511719 L 338.296875 218.851562 L 334.824219 218.851562 Z M 334.824219 178.511719 " fill-opacity="1" fill-rule="nonzero"/></g><g clip-path="url(#6abe2d55c3)"><path fill="#191308" d="M 334.824219 192.207031 L 334.824219 188.46875 L 344.972656 188.46875 L 344.972656 192.207031 Z M 334.824219 192.207031 " fill-opacity="1" fill-rule="nonzero"/></g><g clip-path="url(#b4f22a48ad)"><path fill="#191308" d="M 334.824219 218.730469 L 334.824219 215.257812 L 346.308594 215.257812 L 346.308594 218.730469 Z M 334.824219 218.730469 " fill-opacity="1" fill-rule="nonzero"/></g><g clip-path="url(#2589716bf1)"><path fill="#191308" d="M 347.980469 210.351562 L 347.980469 206.613281 L 354.390625 206.613281 L 354.390625 210.351562 Z M 347.980469 210.351562 " fill-opacity="1" fill-rule="nonzero"/></g><g clip-path="url(#a322c8927b)"><path fill="#191308" d="M 357.363281 201.882812 L 357.363281 198.410156 L 369.652344 198.410156 L 369.652344 201.882812 Z M 357.363281 201.882812 " fill-opacity="1" fill-rule="nonzero"/></g><g clip-path="url(#d8e1ed74ab)"><path fill="#191308" d="M 353.394531 190.265625 L 353.394531 186.792969 L 375.835938 186.792969 L 375.835938 190.265625 Z M 353.394531 190.265625 " fill-opacity="1" fill-rule="nonzero"/></g><g clip-path="url(#ad9cec301b)"><path fill="#191308" d="M 362.640625 178.511719 L 366.648438 178.511719 L 366.648438 187.859375 L 362.640625 187.859375 Z M 362.640625 178.511719 " fill-opacity="1" fill-rule="nonzero"/></g><g clip-path="url(#d5c15168f3)"><path fill="#191308" d="M 362.109375 218.730469 L 362.109375 215.257812 L 389.355469 215.257812 L 389.355469 218.730469 Z M 362.109375 218.730469 " fill-opacity="1" fill-rule="nonzero"/></g><g clip-path="url(#daddb4078c)"><path fill="#191308" d="M 373.09375 206.652344 L 376.570312 206.652344 L 376.570312 216.804688 L 373.09375 216.804688 Z M 373.09375 206.652344 " fill-opacity="1" fill-rule="nonzero"/></g><g clip-path="url(#289c707072)"><path fill="#191308" d="M 385.878906 190.269531 L 389.351562 190.269531 L 389.351562 215.378906 L 385.878906 215.378906 Z M 385.878906 190.269531 " fill-opacity="1" fill-rule="nonzero"/></g><g clip-path="url(#cbcac91dd6)"><path fill="#191308" d="M 385.878906 178.511719 L 389.351562 178.511719 L 389.351562 184.121094 L 385.878906 184.121094 Z M 385.878906 178.511719 " fill-opacity="1" fill-rule="nonzero"/></g><g clip-path="url(#68bc9cebe3)"><path fill="#191308" d="M 344.898438 177.101562 L 344.898438 173.628906 L 353.714844 173.628906 L 353.714844 177.101562 Z M 344.898438 177.101562 " fill-opacity="1" fill-rule="nonzero"/></g><g clip-path="url(#687020cd36)"><path fill="#191308" d="M 354.515625 169.058594 L 354.515625 165.054688 L 362.53125 165.054688 L 362.53125 169.058594 Z M 354.515625 169.058594 " fill-opacity="1" fill-rule="nonzero"/></g><g clip-path="url(#ae591c3ed6)"><path fill="#191308" d="M 372.273438 173.558594 L 372.273438 169.550781 L 377.082031 169.550781 L 377.082031 173.558594 Z M 372.273438 173.558594 " fill-opacity="1" fill-rule="nonzero"/></g><g clip-path="url(#a9bf77470c)"><path fill="#191308" d="M 382.320312 169.671875 L 382.320312 165.664062 L 389.535156 165.664062 L 389.535156 169.671875 Z M 382.320312 169.671875 " fill-opacity="1" fill-rule="nonzero"/></g><g clip-path="url(#53f29c1740)"><path fill="#191308" d="M 284.035156 180.636719 L 325.847656 180.636719 L 325.847656 222.449219 L 284.035156 222.449219 Z M 281.421875 225.0625 L 328.460938 225.0625 L 328.460938 178.027344 L 281.421875 178.027344 L 281.421875 225.0625 " fill-opacity="1" fill-rule="nonzero"/></g><g clip-path="url(#6f6965085a)"><path fill="#191308" d="M 291.625 188.40625 L 318.207031 188.40625 L 318.207031 214.554688 L 291.625 214.554688 Z M 291.625 188.40625 " fill-opacity="1" fill-rule="nonzero"/></g><g clip-path="url(#a8725a0ea1)"><path fill="#191308" d="M 284.035156 115.433594 L 325.847656 115.433594 L 325.847656 157.242188 L 284.035156 157.242188 Z M 281.421875 159.855469 L 328.460938 159.855469 L 328.460938 112.820312 L 281.421875 112.820312 L 281.421875 159.855469 " fill-opacity="1" fill-rule="nonzero"/></g><g clip-path="url(#6b43d4d759)"><path fill="#191308" d="M 291.625 123.199219 L 318.207031 123.199219 L 318.207031 149.351562 L 291.625 149.351562 Z M 291.625 123.199219 " fill-opacity="1" fill-rule="nonzero"/></g><g clip-path="url(#b259c4bcf1)"><path fill="#191308" d="M 349.214844 115.433594 L 391.023438 115.433594 L 391.023438 157.242188 L 349.214844 157.242188 Z M 346.601562 159.855469 L 393.636719 159.855469 L 393.636719 112.820312 L 346.601562 112.820312 L 346.601562 159.855469 " fill-opacity="1" fill-rule="nonzero"/></g><g clip-path="url(#f84102bb02)"><path fill="#191308" d="M 356.800781 123.199219 L 383.382812 123.199219 L 383.382812 149.351562 L 356.800781 149.351562 Z M 356.800781 123.199219 " fill-opacity="1" fill-rule="nonzero"/></g><g clip-path="url(#61d95d02a1)"><path fill="#191308" d="M 339.71875 132.644531 L 335.480469 132.644531 L 335.480469 112.703125 L 339.71875 112.703125 Z M 339.71875 132.644531 " fill-opacity="1" fill-rule="nonzero"/></g><g clip-path="url(#128a94a980)"><path fill="#191308" d="M 339.71875 150.539062 L 335.480469 150.539062 L 335.480469 140.070312 L 339.71875 140.070312 Z M 339.71875 150.539062 " fill-opacity="1" fill-rule="nonzero"/></g><g clip-path="url(#0cc976f91a)"><path fill="#191308" d="M 339.71875 161.902344 L 335.480469 161.902344 L 335.480469 155.171875 L 339.71875 155.171875 Z M 339.71875 161.902344 " fill-opacity="1" fill-rule="nonzero"/></g></svg>