<svg xmlns="http://www.w3.org/2000/svg" xmlns:xlink="http://www.w3.org/1999/xlink" width="900" zoomAndPan="magnify" viewBox="0 0 675 449.999984" height="600" preserveAspectRatio="xMidYMid meet" version="1.0"><defs><g/><clipPath id="f04c136ac0"><path d="M 267.253906 80.589844 L 326.453125 80.589844 L 326.453125 140.210938 L 267.253906 140.210938 Z M 267.253906 80.589844 " clip-rule="nonzero"/></clipPath><clipPath id="4ee8bca109"><path d="M 270.269531 83.730469 L 323.4375 83.730469 L 323.4375 137.074219 L 270.269531 137.074219 Z M 270.269531 83.730469 " clip-rule="nonzero"/></clipPath><clipPath id="d8470ebb44"><path d="M 280.160156 93.710938 L 313.542969 93.710938 L 313.542969 127.09375 L 280.160156 127.09375 Z M 280.160156 93.710938 " clip-rule="nonzero"/></clipPath><clipPath id="76f45236e2"><path d="M 335.257812 80.589844 L 339.777344 80.589844 L 339.777344 108.675781 L 335.257812 108.675781 Z M 335.257812 80.589844 " clip-rule="nonzero"/></clipPath><clipPath id="6bd71348da"><path d="M 335.257812 115.09375 L 339.828125 115.09375 L 339.828125 127 L 335.257812 127 Z M 335.257812 115.09375 " clip-rule="nonzero"/></clipPath><clipPath id="44fa2c3fd4"><path d="M 335.257812 131.5 L 339.777344 131.5 L 339.777344 140.210938 L 335.257812 140.210938 Z M 335.257812 131.5 " clip-rule="nonzero"/></clipPath><clipPath id="2ffc07ae51"><path d="M 287.390625 149.730469 L 332.503906 149.730469 L 332.503906 154.8125 L 287.390625 154.8125 Z M 287.390625 149.730469 " clip-rule="nonzero"/></clipPath><clipPath id="c93453ec80"><path d="M 267.253906 149.386719 L 282.699219 149.386719 L 282.699219 154.808594 L 267.253906 154.808594 Z M 267.253906 149.386719 " clip-rule="nonzero"/></clipPath><clipPath id="44c8b46ca7"><path d="M 335.257812 164.246094 L 339.777344 164.246094 L 339.777344 215.464844 L 335.257812 215.464844 Z M 335.257812 164.246094 " clip-rule="nonzero"/></clipPath><clipPath id="58c92d51cb"><path d="M 335.261719 176.953125 L 348.09375 176.953125 L 348.09375 181.6875 L 335.261719 181.6875 Z M 335.261719 176.953125 " clip-rule="nonzero"/></clipPath><clipPath id="3976a21f0d"><path d="M 335.257812 210.9375 L 350.023438 210.9375 L 350.023438 215.457031 L 335.257812 215.457031 Z M 335.257812 210.9375 " clip-rule="nonzero"/></clipPath><clipPath id="80c16422cf"><path d="M 352.007812 200.003906 L 360.332031 200.003906 L 360.332031 204.792969 L 352.007812 204.792969 Z M 352.007812 200.003906 " clip-rule="nonzero"/></clipPath><clipPath id="ba3c316f41"><path d="M 363.960938 189.488281 L 379.464844 189.488281 L 379.464844 194.007812 L 363.960938 194.007812 Z M 363.960938 189.488281 " clip-rule="nonzero"/></clipPath><clipPath id="eb05776c0a"><path d="M 358.90625 174.695312 L 387.398438 174.695312 L 387.398438 179.214844 L 358.90625 179.214844 Z M 358.90625 174.695312 " clip-rule="nonzero"/></clipPath><clipPath id="ebc4a09094"><path d="M 370.679688 164.246094 L 375.628906 164.246094 L 375.628906 176 L 370.679688 176 Z M 370.679688 164.246094 " clip-rule="nonzero"/></clipPath><clipPath id="9cc0998d5a"><path d="M 370 210.9375 L 404.796875 210.9375 L 404.796875 215.457031 L 370 215.457031 Z M 370 210.9375 " clip-rule="nonzero"/></clipPath><clipPath id="25e269a113"><path d="M 383.992188 200.082031 L 388.582031 200.082031 L 388.582031 213.128906 L 383.992188 213.128906 Z M 383.992188 200.082031 " clip-rule="nonzero"/></clipPath><clipPath id="a7bd975cea"><path d="M 400.269531 179.21875 L 404.800781 179.21875 L 404.800781 211.285156 L 400.269531 211.285156 Z M 400.269531 179.21875 " clip-rule="nonzero"/></clipPath><clipPath id="b58cef60fd"><path d="M 400.269531 164.246094 L 404.800781 164.246094 L 404.800781 171.355469 L 400.269531 171.355469 Z M 400.269531 164.246094 " clip-rule="nonzero"/></clipPath><clipPath id="5a4fd491e9"><path d="M 348.085938 157.933594 L 359.324219 157.933594 L 359.324219 162.453125 L 348.085938 162.453125 Z M 348.085938 157.933594 " clip-rule="nonzero"/></clipPath><clipPath id="221ae250c3"><path d="M 360.335938 147.253906 L 370.683594 147.253906 L 370.683594 152.203125 L 360.335938 152.203125 Z M 360.335938 147.253906 " clip-rule="nonzero"/></clipPath><clipPath id="18cab5ec15"><path d="M 382.949219 153 L 389.214844 153 L 389.214844 157.929688 L 382.949219 157.929688 Z M 382.949219 153 " clip-rule="nonzero"/></clipPath><clipPath id="1058c78fd7"><path d="M 395.746094 148.03125 L 404.804688 148.03125 L 404.804688 152.980469 L 395.746094 152.980469 Z M 395.746094 148.03125 " clip-rule="nonzero"/></clipPath><clipPath id="4eb081e6a4"><path d="M 267.808594 163.820312 L 327.007812 163.820312 L 327.007812 223.4375 L 267.808594 223.4375 Z M 267.808594 163.820312 " clip-rule="nonzero"/></clipPath><clipPath id="0b8d4ac057"><path d="M 270.824219 166.957031 L 323.992188 166.957031 L 323.992188 220.300781 L 270.824219 220.300781 Z M 270.824219 166.957031 " clip-rule="nonzero"/></clipPath><clipPath id="7af471fb0f"><path d="M 280.714844 176.9375 L 314.097656 176.9375 L 314.097656 210.320312 L 280.714844 210.320312 Z M 280.714844 176.9375 " clip-rule="nonzero"/></clipPath><clipPath id="a20a378dc4"><path d="M 348.828125 80.589844 L 408.023438 80.589844 L 408.023438 140.210938 L 348.828125 140.210938 Z M 348.828125 80.589844 " clip-rule="nonzero"/></clipPath><clipPath id="7c00a899e5"><path d="M 351.839844 83.730469 L 405.011719 83.730469 L 405.011719 137.074219 L 351.839844 137.074219 Z M 351.839844 83.730469 " clip-rule="nonzero"/></clipPath><clipPath id="5b09fb6cc2"><path d="M 361.734375 93.710938 L 395.117188 93.710938 L 395.117188 127.09375 L 361.734375 127.09375 Z M 361.734375 93.710938 " clip-rule="nonzero"/></clipPath></defs><rect x="-67.5" width="810" fill="#ffffff" y="-44.999998" height="539.99998" fill-opacity="1"/><rect x="-67.5" width="810" fill="#ffffff" y="-44.999998" height="539.99998" fill-opacity="1"/><rect x="-67.5" width="810" fill="#000000" y="-44.999998" height="539.99998" fill-opacity="1"/><g fill="#ffffff" fill-opacity="1"><g transform="translate(133.569996, 349.281116)"><g><path d="M 6.78125 0 L 6.78125 -91.140625 L 38.0625 -91.140625 L 38.0625 -79.078125 L 20.65625 -79.078125 L 20.65625 -54.84375 L 36.828125 -54.84375 L 36.828125 -42.71875 L 20.65625 -42.71875 L 20.65625 0 Z M 6.78125 0 "/></g></g></g><g fill="#ffffff" fill-opacity="1"><g transform="translate(184.867082, 349.281116)"><g><path d="M 7.359375 0 L 7.359375 -91.140625 L 21.234375 -91.140625 L 21.234375 0 Z M 7.359375 0 "/></g></g></g><g fill="#ffffff" fill-opacity="1"><g transform="translate(223.528501, 349.281116)"><g><path d="M 20.65625 -10.765625 L 25.21875 -10.765625 C 27.769531 -10.765625 29.625 -11.59375 30.78125 -13.25 C 31.9375 -14.914062 32.515625 -17.957031 32.515625 -22.375 L 32.46875 -67.375 C 32.46875 -72.101562 31.890625 -75.46875 30.734375 -77.46875 C 29.578125 -79.476562 27.582031 -80.484375 24.75 -80.484375 L 20.65625 -80.484375 Z M 6.78125 0 L 6.78125 -91.140625 L 27.234375 -91.140625 C 33.929688 -91.140625 38.789062 -89.160156 41.8125 -85.203125 C 44.832031 -81.253906 46.34375 -75.429688 46.34375 -67.734375 L 46.40625 -26.625 C 46.40625 -17.4375 44.882812 -10.703125 41.84375 -6.421875 C 38.800781 -2.140625 33.78125 0 26.78125 0 Z M 6.78125 0 "/></g></g></g><g fill="#ffffff" fill-opacity="1"><g transform="translate(285.648768, 349.281116)"><g><path d="M 6.84375 0 L 6.84375 -91.140625 L 37.390625 -91.140625 L 37.390625 -79.1875 L 20.71875 -79.1875 L 20.71875 -52.671875 L 36.5625 -52.671875 L 36.5625 -40.96875 L 20.71875 -40.96875 L 20.71875 -11.96875 L 38.015625 -11.96875 L 38.015625 0 Z M 6.84375 0 "/></g></g></g><g fill="#ffffff" fill-opacity="1"><g transform="translate(337.981565, 349.281116)"><g><path d="M 6.84375 0 L 6.84375 -91.140625 L 20.71875 -91.140625 L 20.71875 -11.8125 L 38.265625 -11.8125 L 38.265625 0 Z M 6.84375 0 "/></g></g></g><g fill="#ffffff" fill-opacity="1"><g transform="translate(387.466166, 349.281116)"><g><path d="M 45.3125 -24.859375 C 45.3125 -16.054688 43.738281 -9.539062 40.59375 -5.3125 C 37.457031 -1.082031 32.519531 1.03125 25.78125 1.03125 C 19.050781 1.03125 14.019531 -1.21875 10.6875 -5.71875 C 7.363281 -10.226562 5.703125 -16.710938 5.703125 -25.171875 L 5.703125 -64.890625 C 5.703125 -78.460938 9.253906 -86.9375 16.359375 -90.3125 C 18.984375 -91.5625 22.160156 -92.1875 25.890625 -92.1875 C 38.703125 -92.1875 45.109375 -84.109375 45.109375 -67.953125 L 45.109375 -55.40625 L 31.6875 -55.40625 L 31.6875 -67.0625 C 31.6875 -71.757812 31.289062 -75.117188 30.5 -77.140625 C 29.707031 -79.160156 28.15625 -80.171875 25.84375 -80.171875 C 23.53125 -80.171875 21.921875 -79.097656 21.015625 -76.953125 C 20.117188 -74.816406 19.671875 -71.539062 19.671875 -67.125 L 19.671875 -24.546875 C 19.671875 -19.640625 20.101562 -16.132812 20.96875 -14.03125 C 21.832031 -11.925781 23.40625 -10.875 25.6875 -10.875 C 27.96875 -10.875 29.535156 -11.941406 30.390625 -14.078125 C 31.253906 -16.222656 31.6875 -19.765625 31.6875 -24.703125 L 31.6875 -37.75 L 45.3125 -37.75 Z M 45.3125 -24.859375 "/></g></g></g><g fill="#ffffff" fill-opacity="1"><g transform="translate(447.307856, 349.281116)"><g><path d="M 6.84375 0 L 6.84375 -91.140625 L 20.71875 -91.140625 L 20.71875 -11.8125 L 38.265625 -11.8125 L 38.265625 0 Z M 6.84375 0 "/></g></g></g><g fill="#ffffff" fill-opacity="1"><g transform="translate(496.792442, 349.281116)"><g><path d="M 15.75 0 L 15.75 -36.40625 L 0.46875 -91.140625 L 13.71875 -91.140625 L 22.734375 -57.078125 L 22.9375 -57.078125 L 30.96875 -91.140625 L 44.171875 -91.140625 L 29.625 -36.40625 L 29.625 0 Z M 15.75 0 "/></g></g></g><g clip-path="url(#f04c136ac0)"><path fill="#ffffff" d="M 267.253906 80.589844 L 326.699219 80.589844 L 326.699219 140.039062 L 267.253906 140.039062 Z M 267.253906 80.589844 " fill-opacity="1" fill-rule="nonzero"/></g><g clip-path="url(#4ee8bca109)"><path fill="#000000" d="M 270.269531 83.730469 L 323.660156 83.730469 L 323.660156 137.121094 L 270.269531 137.121094 Z M 270.269531 83.730469 " fill-opacity="1" fill-rule="nonzero"/></g><g clip-path="url(#d8470ebb44)"><path fill="#ffffff" d="M 280.160156 93.710938 L 313.738281 93.710938 L 313.738281 127.285156 L 280.160156 127.285156 Z M 280.160156 93.710938 " fill-opacity="1" fill-rule="nonzero"/></g><g clip-path="url(#76f45236e2)"><path fill="#ffffff" d="M 335.257812 80.589844 L 339.605469 80.589844 L 339.605469 108.550781 L 335.257812 108.550781 Z M 335.257812 80.589844 " fill-opacity="1" fill-rule="nonzero"/></g><g clip-path="url(#6bd71348da)"><path fill="#ffffff" d="M 335.257812 115.09375 L 339.605469 115.09375 L 339.605469 126.898438 L 335.257812 126.898438 Z M 335.257812 115.09375 " fill-opacity="1" fill-rule="nonzero"/></g><g clip-path="url(#44fa2c3fd4)"><path fill="#ffffff" d="M 335.257812 131.5 L 339.605469 131.5 L 339.605469 140.195312 L 335.257812 140.195312 Z M 335.257812 131.5 " fill-opacity="1" fill-rule="nonzero"/></g><g clip-path="url(#2ffc07ae51)"><path fill="#ffffff" d="M 287.390625 154.8125 L 287.390625 149.839844 L 332.746094 149.839844 L 332.746094 154.8125 Z M 287.390625 154.8125 " fill-opacity="1" fill-rule="nonzero"/></g><g clip-path="url(#c93453ec80)"><path fill="#ffffff" d="M 267.253906 154.808594 L 267.253906 149.214844 L 282.789062 149.214844 L 282.789062 154.808594 Z M 267.253906 154.808594 " fill-opacity="1" fill-rule="nonzero"/></g><g clip-path="url(#44c8b46ca7)"><path fill="#ffffff" d="M 335.257812 164.246094 L 340.019531 164.246094 L 340.019531 215.273438 L 335.257812 215.273438 Z M 335.257812 164.246094 " fill-opacity="1" fill-rule="nonzero"/></g><g clip-path="url(#58c92d51cb)"><path fill="#ffffff" d="M 335.261719 181.6875 L 335.261719 176.925781 L 348.1875 176.925781 L 348.1875 181.6875 Z M 335.261719 181.6875 " fill-opacity="1" fill-rule="nonzero"/></g><g clip-path="url(#3976a21f0d)"><path fill="#ffffff" d="M 335.257812 215.457031 L 335.257812 210.695312 L 350.226562 210.695312 L 350.226562 215.457031 Z M 335.257812 215.457031 " fill-opacity="1" fill-rule="nonzero"/></g><g clip-path="url(#80c16422cf)"><path fill="#ffffff" d="M 352.007812 204.792969 L 352.007812 200.03125 L 360.171875 200.03125 L 360.171875 204.792969 Z M 352.007812 204.792969 " fill-opacity="1" fill-rule="nonzero"/></g><g clip-path="url(#ba3c316f41)"><path fill="#ffffff" d="M 363.960938 194.007812 L 363.960938 189.242188 L 379.609375 189.242188 L 379.609375 194.007812 Z M 363.960938 194.007812 " fill-opacity="1" fill-rule="nonzero"/></g><g clip-path="url(#eb05776c0a)"><path fill="#ffffff" d="M 358.90625 179.214844 L 358.90625 174.449219 L 387.484375 174.449219 L 387.484375 179.214844 Z M 358.90625 179.214844 " fill-opacity="1" fill-rule="nonzero"/></g><g clip-path="url(#ebc4a09094)"><path fill="#ffffff" d="M 370.679688 164.246094 L 375.441406 164.246094 L 375.441406 175.8125 L 370.679688 175.8125 Z M 370.679688 164.246094 " fill-opacity="1" fill-rule="nonzero"/></g><g clip-path="url(#9cc0998d5a)"><path fill="#ffffff" d="M 370 215.457031 L 370 210.695312 L 404.699219 210.695312 L 404.699219 215.457031 Z M 370 215.457031 " fill-opacity="1" fill-rule="nonzero"/></g><g clip-path="url(#25e269a113)"><path fill="#ffffff" d="M 383.992188 200.082031 L 388.753906 200.082031 L 388.753906 213.007812 L 383.992188 213.007812 Z M 383.992188 200.082031 " fill-opacity="1" fill-rule="nonzero"/></g><g clip-path="url(#a7bd975cea)"><path fill="#ffffff" d="M 400.269531 179.21875 L 405.03125 179.21875 L 405.03125 211.195312 L 400.269531 211.195312 Z M 400.269531 179.21875 " fill-opacity="1" fill-rule="nonzero"/></g><g clip-path="url(#b58cef60fd)"><path fill="#ffffff" d="M 400.269531 164.246094 L 405.03125 164.246094 L 405.03125 171.050781 L 400.269531 171.050781 Z M 400.269531 164.246094 " fill-opacity="1" fill-rule="nonzero"/></g><g clip-path="url(#5a4fd491e9)"><path fill="#ffffff" d="M 348.085938 162.453125 L 348.085938 157.691406 L 359.652344 157.691406 L 359.652344 162.453125 Z M 348.085938 162.453125 " fill-opacity="1" fill-rule="nonzero"/></g><g clip-path="url(#221ae250c3)"><path fill="#ffffff" d="M 360.335938 152.203125 L 360.335938 147.441406 L 370.542969 147.441406 L 370.542969 152.203125 Z M 360.335938 152.203125 " fill-opacity="1" fill-rule="nonzero"/></g><g clip-path="url(#18cab5ec15)"><path fill="#ffffff" d="M 382.949219 157.929688 L 382.949219 153.167969 L 389.070312 153.167969 L 389.070312 157.929688 Z M 382.949219 157.929688 " fill-opacity="1" fill-rule="nonzero"/></g><g clip-path="url(#1058c78fd7)"><path fill="#ffffff" d="M 395.746094 152.980469 L 395.746094 148.21875 L 404.589844 148.21875 L 404.589844 152.980469 Z M 395.746094 152.980469 " fill-opacity="1" fill-rule="nonzero"/></g><g clip-path="url(#4eb081e6a4)"><path fill="#ffffff" d="M 267.808594 163.820312 L 327.253906 163.820312 L 327.253906 223.265625 L 267.808594 223.265625 Z M 267.808594 163.820312 " fill-opacity="1" fill-rule="nonzero"/></g><g clip-path="url(#0b8d4ac057)"><path fill="#000000" d="M 270.824219 166.957031 L 324.214844 166.957031 L 324.214844 220.347656 L 270.824219 220.347656 Z M 270.824219 166.957031 " fill-opacity="1" fill-rule="nonzero"/></g><g clip-path="url(#7af471fb0f)"><path fill="#ffffff" d="M 280.714844 176.9375 L 314.292969 176.9375 L 314.292969 210.515625 L 280.714844 210.515625 Z M 280.714844 176.9375 " fill-opacity="1" fill-rule="nonzero"/></g><g clip-path="url(#a20a378dc4)"><path fill="#ffffff" d="M 348.828125 80.589844 L 408.273438 80.589844 L 408.273438 140.039062 L 348.828125 140.039062 Z M 348.828125 80.589844 " fill-opacity="1" fill-rule="nonzero"/></g><g clip-path="url(#7c00a899e5)"><path fill="#000000" d="M 351.839844 83.730469 L 405.230469 83.730469 L 405.230469 137.121094 L 351.839844 137.121094 Z M 351.839844 83.730469 " fill-opacity="1" fill-rule="nonzero"/></g><g clip-path="url(#5b09fb6cc2)"><path fill="#ffffff" d="M 361.734375 93.710938 L 395.308594 93.710938 L 395.308594 127.285156 L 361.734375 127.285156 Z M 361.734375 93.710938 " fill-opacity="1" fill-rule="nonzero"/></g></svg>