<svg xmlns="http://www.w3.org/2000/svg" xmlns:xlink="http://www.w3.org/1999/xlink" width="900" zoomAndPan="magnify" viewBox="0 0 675 449.999984" height="600" preserveAspectRatio="xMidYMid meet" version="1.0"><defs><g/><clipPath id="e340233be6"><path d="M 297.105469 166.859375 L 332.644531 166.859375 L 332.644531 170.863281 L 297.105469 170.863281 Z M 297.105469 166.859375 " clip-rule="nonzero"/></clipPath><clipPath id="48ada7c947"><path d="M 281.246094 166.59375 L 293.410156 166.59375 L 293.410156 170.867188 L 281.246094 170.867188 Z M 281.246094 166.59375 " clip-rule="nonzero"/></clipPath><clipPath id="e8d4bb6b0e"><path d="M 334.816406 178.363281 L 338.375 178.363281 L 338.375 218.714844 L 334.816406 218.714844 Z M 334.816406 178.363281 " clip-rule="nonzero"/></clipPath><clipPath id="e362faa7c8"><path d="M 334.816406 188.375 L 344.921875 188.375 L 344.921875 192.105469 L 334.816406 192.105469 Z M 334.816406 188.375 " clip-rule="nonzero"/></clipPath><clipPath id="0da5230b9e"><path d="M 334.816406 215.148438 L 346.445312 215.148438 L 346.445312 218.710938 L 334.816406 218.710938 Z M 334.816406 215.148438 " clip-rule="nonzero"/></clipPath><clipPath id="5dda595105"><path d="M 348.015625 206.535156 L 354.570312 206.535156 L 354.570312 210.304688 L 348.015625 210.304688 Z M 348.015625 206.535156 " clip-rule="nonzero"/></clipPath><clipPath id="e7cd9238c4"><path d="M 357.429688 198.25 L 369.640625 198.25 L 369.640625 201.8125 L 357.429688 201.8125 Z M 357.429688 198.25 " clip-rule="nonzero"/></clipPath><clipPath id="0cca167292"><path d="M 353.445312 186.59375 L 375.890625 186.59375 L 375.890625 190.15625 L 353.445312 190.15625 Z M 353.445312 186.59375 " clip-rule="nonzero"/></clipPath><clipPath id="75adc4bd23"><path d="M 362.722656 178.363281 L 366.621094 178.363281 L 366.621094 187.636719 L 362.722656 187.636719 Z M 362.722656 178.363281 " clip-rule="nonzero"/></clipPath><clipPath id="5ec96e8d6e"><path d="M 362.1875 215.148438 L 389.601562 215.148438 L 389.601562 218.707031 L 362.1875 218.707031 Z M 362.1875 215.148438 " clip-rule="nonzero"/></clipPath><clipPath id="27e52f5877"><path d="M 373.210938 206.59375 L 376.824219 206.59375 L 376.824219 216.871094 L 373.210938 216.871094 Z M 373.210938 206.59375 " clip-rule="nonzero"/></clipPath><clipPath id="8696d3fe1b"><path d="M 386.03125 190.160156 L 389.601562 190.160156 L 389.601562 215.417969 L 386.03125 215.417969 Z M 386.03125 190.160156 " clip-rule="nonzero"/></clipPath><clipPath id="1f3837c673"><path d="M 386.03125 178.363281 L 389.601562 178.363281 L 389.601562 183.964844 L 386.03125 183.964844 Z M 386.03125 178.363281 " clip-rule="nonzero"/></clipPath><clipPath id="1fc554704f"><path d="M 344.921875 173.390625 L 353.777344 173.390625 L 353.777344 176.949219 L 344.921875 176.949219 Z M 344.921875 173.390625 " clip-rule="nonzero"/></clipPath><clipPath id="71329c4216"><path d="M 354.570312 164.984375 L 362.722656 164.984375 L 362.722656 168.882812 L 354.570312 168.882812 Z M 354.570312 164.984375 " clip-rule="nonzero"/></clipPath><clipPath id="1b0847568e"><path d="M 372.382812 169.496094 L 377.320312 169.496094 L 377.320312 173.394531 L 372.382812 173.394531 Z M 372.382812 169.496094 " clip-rule="nonzero"/></clipPath><clipPath id="644a89b296"><path d="M 382.464844 165.59375 L 389.601562 165.59375 L 389.601562 169.492188 L 382.464844 169.492188 Z M 382.464844 165.59375 " clip-rule="nonzero"/></clipPath><clipPath id="a40ee6f96a"><path d="M 281.246094 177.875 L 328.429688 177.875 L 328.429688 225.0625 L 281.246094 225.0625 Z M 281.246094 177.875 " clip-rule="nonzero"/></clipPath><clipPath id="4d66eae964"><path d="M 291.476562 188.289062 L 318.136719 188.289062 L 318.136719 214.585938 L 291.476562 214.585938 Z M 291.476562 188.289062 " clip-rule="nonzero"/></clipPath><clipPath id="dbd6a81bf8"><path d="M 281.246094 112.460938 L 328.429688 112.460938 L 328.429688 159.648438 L 281.246094 159.648438 Z M 281.246094 112.460938 " clip-rule="nonzero"/></clipPath><clipPath id="3d028b8caa"><path d="M 291.476562 122.875 L 318.136719 122.875 L 318.136719 149.171875 L 291.476562 149.171875 Z M 291.476562 122.875 " clip-rule="nonzero"/></clipPath><clipPath id="458df46c68"><path d="M 346.628906 112.460938 L 393.816406 112.460938 L 393.816406 159.648438 L 346.628906 159.648438 Z M 346.628906 112.460938 " clip-rule="nonzero"/></clipPath><clipPath id="16b72905cb"><path d="M 356.863281 122.875 L 383.523438 122.875 L 383.523438 149.171875 L 356.863281 149.171875 Z M 356.863281 122.875 " clip-rule="nonzero"/></clipPath><clipPath id="1627ea2a9c"><path d="M 335.359375 112.460938 L 339.726562 112.460938 L 339.726562 132.351562 L 335.359375 132.351562 Z M 335.359375 112.460938 " clip-rule="nonzero"/></clipPath><clipPath id="ac0b1deb21"><path d="M 335.359375 139.707031 L 339.726562 139.707031 L 339.726562 150.300781 L 335.359375 150.300781 Z M 335.359375 139.707031 " clip-rule="nonzero"/></clipPath><clipPath id="6c85c31f3a"><path d="M 335.359375 155 L 339.726562 155 L 339.726562 161.699219 L 335.359375 161.699219 Z M 335.359375 155 " clip-rule="nonzero"/></clipPath></defs><rect x="-67.5" width="810" fill="#ffffff" y="-44.999998" height="539.99998" fill-opacity="1"/><rect x="-67.5" width="810" fill="#ffffff" y="-44.999998" height="539.99998" fill-opacity="1"/><rect x="-67.5" width="810" fill="#000000" y="-44.999998" height="539.99998" fill-opacity="1"/><g fill="#ffffff" fill-opacity="1"><g transform="translate(184.55249, 318.210836)"><g><path d="M 5.09375 0 L 5.09375 -68.359375 L 28.546875 -68.359375 L 28.546875 -59.3125 L 15.5 -59.3125 L 15.5 -41.140625 L 27.609375 -41.140625 L 27.609375 -32.046875 L 15.5 -32.046875 L 15.5 0 Z M 5.09375 0 "/></g></g></g><g fill="#ffffff" fill-opacity="1"><g transform="translate(223.025306, 318.210836)"><g><path d="M 5.515625 0 L 5.515625 -68.359375 L 15.921875 -68.359375 L 15.921875 0 Z M 5.515625 0 "/></g></g></g><g fill="#ffffff" fill-opacity="1"><g transform="translate(252.021371, 318.210836)"><g><path d="M 15.5 -8.078125 L 18.921875 -8.078125 C 20.835938 -8.078125 22.226562 -8.695312 23.09375 -9.9375 C 23.957031 -11.1875 24.390625 -13.46875 24.390625 -16.78125 L 24.359375 -50.53125 C 24.359375 -54.082031 23.921875 -56.609375 23.046875 -58.109375 C 22.179688 -59.609375 20.6875 -60.359375 18.5625 -60.359375 L 15.5 -60.359375 Z M 5.09375 0 L 5.09375 -68.359375 L 20.4375 -68.359375 C 25.457031 -68.359375 29.097656 -66.875 31.359375 -63.90625 C 33.628906 -60.945312 34.765625 -56.578125 34.765625 -50.796875 L 34.796875 -19.96875 C 34.796875 -13.070312 33.65625 -8.019531 31.375 -4.8125 C 29.101562 -1.601562 25.335938 0 20.078125 0 Z M 5.09375 0 "/></g></g></g><g fill="#ffffff" fill-opacity="1"><g transform="translate(298.611573, 318.210836)"><g><path d="M 5.125 0 L 5.125 -68.359375 L 28.046875 -68.359375 L 28.046875 -59.390625 L 15.53125 -59.390625 L 15.53125 -39.5 L 27.421875 -39.5 L 27.421875 -30.71875 L 15.53125 -30.71875 L 15.53125 -8.96875 L 28.515625 -8.96875 L 28.515625 0 Z M 5.125 0 "/></g></g></g><g fill="#ffffff" fill-opacity="1"><g transform="translate(337.861172, 318.210836)"><g><path d="M 5.125 0 L 5.125 -68.359375 L 15.53125 -68.359375 L 15.53125 -8.859375 L 28.703125 -8.859375 L 28.703125 0 Z M 5.125 0 "/></g></g></g><g fill="#ffffff" fill-opacity="1"><g transform="translate(374.974623, 318.210836)"><g><path d="M 33.984375 -18.640625 C 33.984375 -12.035156 32.804688 -7.144531 30.453125 -3.96875 C 28.097656 -0.800781 24.394531 0.78125 19.34375 0.78125 C 14.289062 0.78125 10.515625 -0.90625 8.015625 -4.28125 C 5.515625 -7.664062 4.265625 -12.53125 4.265625 -18.875 L 4.265625 -48.671875 C 4.265625 -58.847656 6.9375 -65.203125 12.28125 -67.734375 C 14.238281 -68.671875 16.617188 -69.140625 19.421875 -69.140625 C 29.023438 -69.140625 33.828125 -63.078125 33.828125 -50.953125 L 33.828125 -41.5625 L 23.765625 -41.5625 L 23.765625 -50.296875 C 23.765625 -53.816406 23.46875 -56.332031 22.875 -57.84375 C 22.28125 -59.363281 21.113281 -60.125 19.375 -60.125 C 17.644531 -60.125 16.441406 -59.320312 15.765625 -57.71875 C 15.097656 -56.113281 14.765625 -53.65625 14.765625 -50.34375 L 14.765625 -18.40625 C 14.765625 -14.726562 15.085938 -12.097656 15.734375 -10.515625 C 16.378906 -8.941406 17.554688 -8.15625 19.265625 -8.15625 C 20.972656 -8.15625 22.148438 -8.957031 22.796875 -10.5625 C 23.441406 -12.164062 23.765625 -14.820312 23.765625 -18.53125 L 23.765625 -28.3125 L 33.984375 -28.3125 Z M 33.984375 -18.640625 "/></g></g></g><g fill="#ffffff" fill-opacity="1"><g transform="translate(419.855893, 318.210836)"><g><path d="M 5.125 0 L 5.125 -68.359375 L 15.53125 -68.359375 L 15.53125 -8.859375 L 28.703125 -8.859375 L 28.703125 0 Z M 5.125 0 "/></g></g></g><g fill="#ffffff" fill-opacity="1"><g transform="translate(456.969333, 318.210836)"><g><path d="M 11.8125 0 L 11.8125 -27.3125 L 0.34375 -68.359375 L 10.296875 -68.359375 L 17.046875 -42.796875 L 17.203125 -42.796875 L 23.234375 -68.359375 L 33.125 -68.359375 L 22.21875 -27.3125 L 22.21875 0 Z M 11.8125 0 "/></g></g></g><g clip-path="url(#e340233be6)"><path fill="#ffffff" d="M 297.105469 170.863281 L 297.105469 166.949219 L 332.589844 166.949219 L 332.589844 170.863281 Z M 297.105469 170.863281 " fill-opacity="1" fill-rule="nonzero"/></g><g clip-path="url(#48ada7c947)"><path fill="#ffffff" d="M 281.246094 170.867188 L 281.246094 166.707031 L 293.480469 166.707031 L 293.480469 170.867188 Z M 281.246094 170.867188 " fill-opacity="1" fill-rule="nonzero"/></g><g clip-path="url(#e8d4bb6b0e)"><path fill="#ffffff" d="M 334.816406 178.363281 L 338.300781 178.363281 L 338.300781 218.832031 L 334.816406 218.832031 Z M 334.816406 178.363281 " fill-opacity="1" fill-rule="nonzero"/></g><g clip-path="url(#e362faa7c8)"><path fill="#ffffff" d="M 334.816406 192.105469 L 334.816406 188.351562 L 345 188.351562 L 345 192.105469 Z M 334.816406 192.105469 " fill-opacity="1" fill-rule="nonzero"/></g><g clip-path="url(#0da5230b9e)"><path fill="#ffffff" d="M 334.816406 218.710938 L 334.816406 215.226562 L 346.339844 215.226562 L 346.339844 218.710938 Z M 334.816406 218.710938 " fill-opacity="1" fill-rule="nonzero"/></g><g clip-path="url(#5dda595105)"><path fill="#ffffff" d="M 348.015625 210.304688 L 348.015625 206.554688 L 354.445312 206.554688 L 354.445312 210.304688 Z M 348.015625 210.304688 " fill-opacity="1" fill-rule="nonzero"/></g><g clip-path="url(#e7cd9238c4)"><path fill="#ffffff" d="M 357.429688 201.8125 L 357.429688 198.328125 L 369.757812 198.328125 L 369.757812 201.8125 Z M 357.429688 201.8125 " fill-opacity="1" fill-rule="nonzero"/></g><g clip-path="url(#0cca167292)"><path fill="#ffffff" d="M 353.445312 190.15625 L 353.445312 186.671875 L 375.957031 186.671875 L 375.957031 190.15625 Z M 353.445312 190.15625 " fill-opacity="1" fill-rule="nonzero"/></g><g clip-path="url(#75adc4bd23)"><path fill="#ffffff" d="M 362.722656 178.363281 L 366.742188 178.363281 L 366.742188 187.742188 L 362.722656 187.742188 Z M 362.722656 178.363281 " fill-opacity="1" fill-rule="nonzero"/></g><g clip-path="url(#5ec96e8d6e)"><path fill="#ffffff" d="M 362.1875 218.707031 L 362.1875 215.226562 L 389.519531 215.226562 L 389.519531 218.707031 Z M 362.1875 218.707031 " fill-opacity="1" fill-rule="nonzero"/></g><g clip-path="url(#27e52f5877)"><path fill="#ffffff" d="M 373.210938 206.59375 L 376.691406 206.59375 L 376.691406 216.777344 L 373.210938 216.777344 Z M 373.210938 206.59375 " fill-opacity="1" fill-rule="nonzero"/></g><g clip-path="url(#8696d3fe1b)"><path fill="#ffffff" d="M 386.03125 190.160156 L 389.515625 190.160156 L 389.515625 215.351562 L 386.03125 215.351562 Z M 386.03125 190.160156 " fill-opacity="1" fill-rule="nonzero"/></g><g clip-path="url(#1f3837c673)"><path fill="#ffffff" d="M 386.03125 178.363281 L 389.515625 178.363281 L 389.515625 183.992188 L 386.03125 183.992188 Z M 386.03125 178.363281 " fill-opacity="1" fill-rule="nonzero"/></g><g clip-path="url(#1fc554704f)"><path fill="#ffffff" d="M 344.921875 176.949219 L 344.921875 173.464844 L 353.765625 173.464844 L 353.765625 176.949219 Z M 344.921875 176.949219 " fill-opacity="1" fill-rule="nonzero"/></g><g clip-path="url(#71329c4216)"><path fill="#ffffff" d="M 354.570312 168.882812 L 354.570312 164.863281 L 362.609375 164.863281 L 362.609375 168.882812 Z M 354.570312 168.882812 " fill-opacity="1" fill-rule="nonzero"/></g><g clip-path="url(#1b0847568e)"><path fill="#ffffff" d="M 372.382812 173.394531 L 372.382812 169.375 L 377.207031 169.375 L 377.207031 173.394531 Z M 372.382812 173.394531 " fill-opacity="1" fill-rule="nonzero"/></g><g clip-path="url(#644a89b296)"><path fill="#ffffff" d="M 382.464844 169.492188 L 382.464844 165.472656 L 389.699219 165.472656 L 389.699219 169.492188 Z M 382.464844 169.492188 " fill-opacity="1" fill-rule="nonzero"/></g><g clip-path="url(#a40ee6f96a)"><path fill="#ffffff" d="M 283.867188 180.496094 L 325.808594 180.496094 L 325.808594 222.441406 L 283.867188 222.441406 Z M 281.246094 225.0625 L 328.429688 225.0625 L 328.429688 177.875 L 281.246094 177.875 L 281.246094 225.0625 " fill-opacity="1" fill-rule="nonzero"/></g><g clip-path="url(#4d66eae964)"><path fill="#ffffff" d="M 291.476562 188.289062 L 318.144531 188.289062 L 318.144531 214.523438 L 291.476562 214.523438 Z M 291.476562 188.289062 " fill-opacity="1" fill-rule="nonzero"/></g><g clip-path="url(#dbd6a81bf8)"><path fill="#ffffff" d="M 283.867188 115.082031 L 325.808594 115.082031 L 325.808594 157.027344 L 283.867188 157.027344 Z M 281.246094 159.648438 L 328.429688 159.648438 L 328.429688 112.460938 L 281.246094 112.460938 L 281.246094 159.648438 " fill-opacity="1" fill-rule="nonzero"/></g><g clip-path="url(#3d028b8caa)"><path fill="#ffffff" d="M 291.476562 122.875 L 318.144531 122.875 L 318.144531 149.109375 L 291.476562 149.109375 Z M 291.476562 122.875 " fill-opacity="1" fill-rule="nonzero"/></g><g clip-path="url(#458df46c68)"><path fill="#ffffff" d="M 349.253906 115.082031 L 391.195312 115.082031 L 391.195312 157.027344 L 349.253906 157.027344 Z M 346.628906 159.648438 L 393.816406 159.648438 L 393.816406 112.460938 L 346.628906 112.460938 L 346.628906 159.648438 " fill-opacity="1" fill-rule="nonzero"/></g><g clip-path="url(#16b72905cb)"><path fill="#ffffff" d="M 356.863281 122.875 L 383.53125 122.875 L 383.53125 149.109375 L 356.863281 149.109375 Z M 356.863281 122.875 " fill-opacity="1" fill-rule="nonzero"/></g><g clip-path="url(#1627ea2a9c)"><path fill="#ffffff" d="M 339.726562 132.351562 L 335.476562 132.351562 L 335.476562 112.34375 L 339.726562 112.34375 Z M 339.726562 132.351562 " fill-opacity="1" fill-rule="nonzero"/></g><g clip-path="url(#ac0b1deb21)"><path fill="#ffffff" d="M 339.726562 150.300781 L 335.476562 150.300781 L 335.476562 139.800781 L 339.726562 139.800781 Z M 339.726562 150.300781 " fill-opacity="1" fill-rule="nonzero"/></g><g clip-path="url(#6c85c31f3a)"><path fill="#ffffff" d="M 339.726562 161.699219 L 335.476562 161.699219 L 335.476562 154.949219 L 339.726562 154.949219 Z M 339.726562 161.699219 " fill-opacity="1" fill-rule="nonzero"/></g></svg>