<svg xmlns="http://www.w3.org/2000/svg" xmlns:xlink="http://www.w3.org/1999/xlink" width="900" zoomAndPan="magnify" viewBox="0 0 675 449.999984" height="600" preserveAspectRatio="xMidYMid meet" version="1.0"><defs><clipPath id="e4ae4dfa99"><path d="M 188.128906 74.054688 L 313.933594 74.054688 L 313.933594 200.757812 L 188.128906 200.757812 Z M 188.128906 74.054688 " clip-rule="nonzero"/></clipPath><clipPath id="0fe5c74470"><path d="M 194.53125 80.722656 L 307.527344 80.722656 L 307.527344 194.089844 L 194.53125 194.089844 Z M 194.53125 80.722656 " clip-rule="nonzero"/></clipPath><clipPath id="bc3d006b5b"><path d="M 216.542969 103.894531 L 288 103.894531 L 288 174.839844 L 216.542969 174.839844 Z M 216.542969 103.894531 " clip-rule="nonzero"/></clipPath><clipPath id="8d3d1f16e4"><path d="M 332.644531 75.257812 L 342 75.257812 L 342 134.945312 L 332.644531 134.945312 Z M 332.644531 75.257812 " clip-rule="nonzero"/></clipPath><clipPath id="a565e112c6"><path d="M 332.644531 148.582031 L 342 148.582031 L 342 173.902344 L 332.644531 173.902344 Z M 332.644531 148.582031 " clip-rule="nonzero"/></clipPath><clipPath id="9febb5d47b"><path d="M 332.644531 183.449219 L 342 183.449219 L 342 201.964844 L 332.644531 201.964844 Z M 332.644531 183.449219 " clip-rule="nonzero"/></clipPath><clipPath id="6a3fd319b0"><path d="M 230.917969 222.191406 L 326.792969 222.191406 L 326.792969 232.992188 L 230.917969 232.992188 Z M 230.917969 222.191406 " clip-rule="nonzero"/></clipPath><clipPath id="af71dd2751"><path d="M 188.128906 221.460938 L 220.949219 221.460938 L 220.949219 232.984375 L 188.128906 232.984375 Z M 188.128906 221.460938 " clip-rule="nonzero"/></clipPath><clipPath id="58acd06aae"><path d="M 332.644531 253.039062 L 342.25 253.039062 L 342.25 361.894531 L 332.644531 361.894531 Z M 332.644531 253.039062 " clip-rule="nonzero"/></clipPath><clipPath id="ccee62bd10"><path d="M 332.65625 280.046875 L 359.925781 280.046875 L 359.925781 290.109375 L 332.65625 290.109375 Z M 332.65625 280.046875 " clip-rule="nonzero"/></clipPath><clipPath id="f5ba29e043"><path d="M 332.644531 352.269531 L 364.023438 352.269531 L 364.023438 361.875 L 332.644531 361.875 Z M 332.644531 352.269531 " clip-rule="nonzero"/></clipPath><clipPath id="e231facce7"><path d="M 368.246094 329.035156 L 385.929688 329.035156 L 385.929688 339.210938 L 368.246094 339.210938 Z M 368.246094 329.035156 " clip-rule="nonzero"/></clipPath><clipPath id="997d6a833e"><path d="M 393.648438 306.683594 L 426.59375 306.683594 L 426.59375 316.289062 L 393.648438 316.289062 Z M 393.648438 306.683594 " clip-rule="nonzero"/></clipPath><clipPath id="a760c60c6f"><path d="M 382.90625 275.246094 L 443.453125 275.246094 L 443.453125 284.851562 L 382.90625 284.851562 Z M 382.90625 275.246094 " clip-rule="nonzero"/></clipPath><clipPath id="66281f90ff"><path d="M 407.925781 253.039062 L 418.445312 253.039062 L 418.445312 278 L 407.925781 278 Z M 407.925781 253.039062 " clip-rule="nonzero"/></clipPath><clipPath id="ae2d3392e8"><path d="M 406.480469 352.273438 L 480.433594 352.273438 L 480.433594 361.878906 L 406.480469 361.878906 Z M 406.480469 352.273438 " clip-rule="nonzero"/></clipPath><clipPath id="90fd1f75b5"><path d="M 436.21875 329.199219 L 445.96875 329.199219 L 445.96875 356.925781 L 436.21875 356.925781 Z M 436.21875 329.199219 " clip-rule="nonzero"/></clipPath><clipPath id="de62c433bf"><path d="M 470.8125 284.859375 L 480.4375 284.859375 L 480.4375 353 L 470.8125 353 Z M 470.8125 284.859375 " clip-rule="nonzero"/></clipPath><clipPath id="65a97b100e"><path d="M 470.8125 253.039062 L 480.4375 253.039062 L 480.4375 268 L 470.8125 268 Z M 470.8125 253.039062 " clip-rule="nonzero"/></clipPath><clipPath id="9d0e7b6fde"><path d="M 359.90625 239.625 L 383.796875 239.625 L 383.796875 249.230469 L 359.90625 249.230469 Z M 359.90625 239.625 " clip-rule="nonzero"/></clipPath><clipPath id="d5c22b128d"><path d="M 385.945312 217 L 407.933594 217 L 407.933594 227.449219 L 385.945312 227.449219 Z M 385.945312 217 " clip-rule="nonzero"/></clipPath><clipPath id="f7cf9ce724"><path d="M 434 229.105469 L 447.316406 229.105469 L 447.316406 239.621094 L 434 239.621094 Z M 434 229.105469 " clip-rule="nonzero"/></clipPath><clipPath id="dbaf1ac845"><path d="M 461.195312 218.582031 L 480 218.582031 L 480 229.101562 L 461.195312 229.101562 Z M 461.195312 218.582031 " clip-rule="nonzero"/></clipPath><clipPath id="6e6fd8d71f"><path d="M 361.484375 76.015625 L 487.289062 76.015625 L 487.289062 202.71875 L 361.484375 202.71875 Z M 361.484375 76.015625 " clip-rule="nonzero"/></clipPath><clipPath id="85f00c8951"><path d="M 367.886719 82.683594 L 480.882812 82.683594 L 480.882812 196.050781 L 367.886719 196.050781 Z M 367.886719 82.683594 " clip-rule="nonzero"/></clipPath><clipPath id="74e6473cb7"><path d="M 386.953125 101.933594 L 461.816406 101.933594 L 461.816406 176.800781 L 386.953125 176.800781 Z M 386.953125 101.933594 " clip-rule="nonzero"/></clipPath><clipPath id="8796cc76a2"><path d="M 187.710938 249.238281 L 313.515625 249.238281 L 313.515625 375.945312 L 187.710938 375.945312 Z M 187.710938 249.238281 " clip-rule="nonzero"/></clipPath><clipPath id="a1b139c181"><path d="M 194.117188 255.910156 L 307.113281 255.910156 L 307.113281 369.277344 L 194.117188 369.277344 Z M 194.117188 255.910156 " clip-rule="nonzero"/></clipPath><clipPath id="7408e21c49"><path d="M 213.183594 275.160156 L 288.046875 275.160156 L 288.046875 350.023438 L 213.183594 350.023438 Z M 213.183594 275.160156 " clip-rule="nonzero"/></clipPath></defs><g clip-path="url(#e4ae4dfa99)"><path fill="#000000" d="M 188.128906 74.054688 L 314.460938 74.054688 L 314.460938 200.390625 L 188.128906 200.390625 Z M 188.128906 74.054688 " fill-opacity="1" fill-rule="nonzero"/></g><g clip-path="url(#0fe5c74470)"><path fill="#ffffff" d="M 194.53125 80.722656 L 308 80.722656 L 308 194.191406 L 194.53125 194.191406 Z M 194.53125 80.722656 " fill-opacity="1" fill-rule="nonzero"/></g><g clip-path="url(#bc3d006b5b)"><path fill="#000000" d="M 216.542969 103.894531 L 287.898438 103.894531 L 287.898438 175.253906 L 216.542969 175.253906 Z M 216.542969 103.894531 " fill-opacity="1" fill-rule="nonzero"/></g><g clip-path="url(#8d3d1f16e4)"><path fill="#000000" d="M 332.644531 75.257812 L 341.886719 75.257812 L 341.886719 134.679688 L 332.644531 134.679688 Z M 332.644531 75.257812 " fill-opacity="1" fill-rule="nonzero"/></g><g clip-path="url(#a565e112c6)"><path fill="#000000" d="M 332.644531 148.582031 L 341.886719 148.582031 L 341.886719 173.671875 L 332.644531 173.671875 Z M 332.644531 148.582031 " fill-opacity="1" fill-rule="nonzero"/></g><g clip-path="url(#9febb5d47b)"><path fill="#000000" d="M 332.644531 183.449219 L 341.886719 183.449219 L 341.886719 201.933594 L 332.644531 201.933594 Z M 332.644531 183.449219 " fill-opacity="1" fill-rule="nonzero"/></g><g clip-path="url(#6a3fd319b0)"><path fill="#000000" d="M 230.917969 232.992188 L 230.917969 222.425781 L 327.308594 222.425781 L 327.308594 232.992188 Z M 230.917969 232.992188 " fill-opacity="1" fill-rule="nonzero"/></g><g clip-path="url(#af71dd2751)"><path fill="#000000" d="M 188.128906 232.984375 L 188.128906 221.101562 L 221.140625 221.101562 L 221.140625 232.984375 Z M 188.128906 232.984375 " fill-opacity="1" fill-rule="nonzero"/></g><g clip-path="url(#58acd06aae)"><path fill="#000000" d="M 332.644531 253.039062 L 342.765625 253.039062 L 342.765625 361.484375 L 332.644531 361.484375 Z M 332.644531 253.039062 " fill-opacity="1" fill-rule="nonzero"/></g><g clip-path="url(#ccee62bd10)"><path fill="#000000" d="M 332.65625 290.109375 L 332.65625 279.988281 L 360.128906 279.988281 L 360.128906 290.109375 Z M 332.65625 290.109375 " fill-opacity="1" fill-rule="nonzero"/></g><g clip-path="url(#f5ba29e043)"><path fill="#000000" d="M 332.644531 361.875 L 332.644531 351.753906 L 364.457031 351.753906 L 364.457031 361.875 Z M 332.644531 361.875 " fill-opacity="1" fill-rule="nonzero"/></g><g clip-path="url(#e231facce7)"><path fill="#000000" d="M 368.246094 339.210938 L 368.246094 329.089844 L 385.597656 329.089844 L 385.597656 339.210938 Z M 368.246094 339.210938 " fill-opacity="1" fill-rule="nonzero"/></g><g clip-path="url(#997d6a833e)"><path fill="#000000" d="M 393.648438 316.289062 L 393.648438 306.164062 L 426.90625 306.164062 L 426.90625 316.289062 Z M 393.648438 316.289062 " fill-opacity="1" fill-rule="nonzero"/></g><g clip-path="url(#a760c60c6f)"><path fill="#000000" d="M 382.90625 284.851562 L 382.90625 274.730469 L 443.636719 274.730469 L 443.636719 284.851562 Z M 382.90625 284.851562 " fill-opacity="1" fill-rule="nonzero"/></g><g clip-path="url(#66281f90ff)"><path fill="#000000" d="M 407.925781 253.039062 L 418.046875 253.039062 L 418.046875 277.621094 L 407.925781 277.621094 Z M 407.925781 253.039062 " fill-opacity="1" fill-rule="nonzero"/></g><g clip-path="url(#ae2d3392e8)"><path fill="#000000" d="M 406.480469 361.878906 L 406.480469 351.757812 L 480.222656 351.757812 L 480.222656 361.878906 Z M 406.480469 361.878906 " fill-opacity="1" fill-rule="nonzero"/></g><g clip-path="url(#90fd1f75b5)"><path fill="#000000" d="M 436.21875 329.199219 L 446.339844 329.199219 L 446.339844 356.671875 L 436.21875 356.671875 Z M 436.21875 329.199219 " fill-opacity="1" fill-rule="nonzero"/></g><g clip-path="url(#de62c433bf)"><path fill="#000000" d="M 470.8125 284.859375 L 480.933594 284.859375 L 480.933594 352.820312 L 470.8125 352.820312 Z M 470.8125 284.859375 " fill-opacity="1" fill-rule="nonzero"/></g><g clip-path="url(#65a97b100e)"><path fill="#000000" d="M 470.8125 253.039062 L 480.933594 253.039062 L 480.933594 267.5 L 470.8125 267.5 Z M 470.8125 253.039062 " fill-opacity="1" fill-rule="nonzero"/></g><g clip-path="url(#9d0e7b6fde)"><path fill="#000000" d="M 359.90625 249.230469 L 359.90625 239.109375 L 384.488281 239.109375 L 384.488281 249.230469 Z M 359.90625 249.230469 " fill-opacity="1" fill-rule="nonzero"/></g><g clip-path="url(#d5c22b128d)"><path fill="#000000" d="M 385.945312 227.449219 L 385.945312 217.328125 L 407.632812 217.328125 L 407.632812 227.449219 Z M 385.945312 227.449219 " fill-opacity="1" fill-rule="nonzero"/></g><g clip-path="url(#f7cf9ce724)"><path fill="#000000" d="M 434 239.621094 L 434 229.5 L 447.011719 229.5 L 447.011719 239.621094 Z M 434 239.621094 " fill-opacity="1" fill-rule="nonzero"/></g><g clip-path="url(#dbaf1ac845)"><path fill="#000000" d="M 461.195312 229.101562 L 461.195312 218.980469 L 479.992188 218.980469 L 479.992188 229.101562 Z M 461.195312 229.101562 " fill-opacity="1" fill-rule="nonzero"/></g><g clip-path="url(#6e6fd8d71f)"><path fill="#000000" d="M 361.484375 76.015625 L 487.816406 76.015625 L 487.816406 202.351562 L 361.484375 202.351562 Z M 361.484375 76.015625 " fill-opacity="1" fill-rule="nonzero"/></g><g clip-path="url(#85f00c8951)"><path fill="#ffffff" d="M 367.886719 82.683594 L 481.355469 82.683594 L 481.355469 196.152344 L 367.886719 196.152344 Z M 367.886719 82.683594 " fill-opacity="1" fill-rule="nonzero"/></g><g clip-path="url(#74e6473cb7)"><path fill="#000000" d="M 386.953125 101.933594 L 461.816406 101.933594 L 461.816406 176.800781 L 386.953125 176.800781 Z M 386.953125 101.933594 " fill-opacity="1" fill-rule="nonzero"/></g><g clip-path="url(#8796cc76a2)"><path fill="#000000" d="M 187.710938 249.238281 L 314.046875 249.238281 L 314.046875 375.574219 L 187.710938 375.574219 Z M 187.710938 249.238281 " fill-opacity="1" fill-rule="nonzero"/></g><g clip-path="url(#a1b139c181)"><path fill="#ffffff" d="M 194.117188 255.910156 L 307.582031 255.910156 L 307.582031 369.378906 L 194.117188 369.378906 Z M 194.117188 255.910156 " fill-opacity="1" fill-rule="nonzero"/></g><g clip-path="url(#7408e21c49)"><path fill="#000000" d="M 213.183594 275.160156 L 288.046875 275.160156 L 288.046875 350.023438 L 213.183594 350.023438 Z M 213.183594 275.160156 " fill-opacity="1" fill-rule="nonzero"/></g></svg>