<svg xmlns="http://www.w3.org/2000/svg" xmlns:xlink="http://www.w3.org/1999/xlink" width="900" zoomAndPan="magnify" viewBox="0 0 675 449.999984" height="600" preserveAspectRatio="xMidYMid meet" version="1.0"><defs><g/><clipPath id="5ff701ed3d"><path d="M 267.253906 80.148438 L 326.453125 80.148438 L 326.453125 139.769531 L 267.253906 139.769531 Z M 267.253906 80.148438 " clip-rule="nonzero"/></clipPath><clipPath id="d7eadfc73f"><path d="M 270.269531 83.285156 L 323.4375 83.285156 L 323.4375 136.628906 L 270.269531 136.628906 Z M 270.269531 83.285156 " clip-rule="nonzero"/></clipPath><clipPath id="a849ff70e1"><path d="M 280.625 94.191406 L 314.46875 94.191406 L 314.46875 127.570312 L 280.625 127.570312 Z M 280.625 94.191406 " clip-rule="nonzero"/></clipPath><clipPath id="66b0a4fe89"><path d="M 335.257812 80.714844 L 339.777344 80.714844 L 339.777344 108.800781 L 335.257812 108.800781 Z M 335.257812 80.714844 " clip-rule="nonzero"/></clipPath><clipPath id="d77a6d1996"><path d="M 335.257812 115.21875 L 339.828125 115.21875 L 339.828125 127.132812 L 335.257812 127.132812 Z M 335.257812 115.21875 " clip-rule="nonzero"/></clipPath><clipPath id="aad91d6374"><path d="M 335.257812 131.621094 L 339.777344 131.621094 L 339.777344 140.335938 L 335.257812 140.335938 Z M 335.257812 131.621094 " clip-rule="nonzero"/></clipPath><clipPath id="5940024ef7"><path d="M 287.390625 149.855469 L 332.503906 149.855469 L 332.503906 154.933594 L 287.390625 154.933594 Z M 287.390625 149.855469 " clip-rule="nonzero"/></clipPath><clipPath id="489f8508b0"><path d="M 267.253906 149.507812 L 282.699219 149.507812 L 282.699219 154.933594 L 267.253906 154.933594 Z M 267.253906 149.507812 " clip-rule="nonzero"/></clipPath><clipPath id="3f92226bec"><path d="M 335.257812 164.371094 L 339.777344 164.371094 L 339.777344 215.589844 L 335.257812 215.589844 Z M 335.257812 164.371094 " clip-rule="nonzero"/></clipPath><clipPath id="69a41df5fe"><path d="M 335.261719 177.078125 L 348.09375 177.078125 L 348.09375 181.8125 L 335.261719 181.8125 Z M 335.261719 177.078125 " clip-rule="nonzero"/></clipPath><clipPath id="4cab592154"><path d="M 335.257812 211.0625 L 350.023438 211.0625 L 350.023438 215.582031 L 335.257812 215.582031 Z M 335.257812 211.0625 " clip-rule="nonzero"/></clipPath><clipPath id="f6764b81b8"><path d="M 352.007812 200.128906 L 360.332031 200.128906 L 360.332031 204.917969 L 352.007812 204.917969 Z M 352.007812 200.128906 " clip-rule="nonzero"/></clipPath><clipPath id="c0977bf4c4"><path d="M 363.960938 189.609375 L 379.464844 189.609375 L 379.464844 194.128906 L 363.960938 194.128906 Z M 363.960938 189.609375 " clip-rule="nonzero"/></clipPath><clipPath id="e170307340"><path d="M 358.90625 174.816406 L 387.398438 174.816406 L 387.398438 179.335938 L 358.90625 179.335938 Z M 358.90625 174.816406 " clip-rule="nonzero"/></clipPath><clipPath id="1ce9abfa7d"><path d="M 370.679688 164.371094 L 375.628906 164.371094 L 375.628906 176 L 370.679688 176 Z M 370.679688 164.371094 " clip-rule="nonzero"/></clipPath><clipPath id="04bc607593"><path d="M 370 211.0625 L 404.796875 211.0625 L 404.796875 215.582031 L 370 215.582031 Z M 370 211.0625 " clip-rule="nonzero"/></clipPath><clipPath id="bfde9cc488"><path d="M 383.992188 200.207031 L 388.582031 200.207031 L 388.582031 213.253906 L 383.992188 213.253906 Z M 383.992188 200.207031 " clip-rule="nonzero"/></clipPath><clipPath id="d354196020"><path d="M 400.269531 179.34375 L 404.800781 179.34375 L 404.800781 211.410156 L 400.269531 211.410156 Z M 400.269531 179.34375 " clip-rule="nonzero"/></clipPath><clipPath id="c8da81f170"><path d="M 400.269531 164.371094 L 404.800781 164.371094 L 404.800781 171.480469 L 400.269531 171.480469 Z M 400.269531 164.371094 " clip-rule="nonzero"/></clipPath><clipPath id="1d368203ca"><path d="M 348.085938 158.054688 L 359.324219 158.054688 L 359.324219 162.574219 L 348.085938 162.574219 Z M 348.085938 158.054688 " clip-rule="nonzero"/></clipPath><clipPath id="8251210635"><path d="M 360.335938 147.378906 L 370.683594 147.378906 L 370.683594 152.328125 L 360.335938 152.328125 Z M 360.335938 147.378906 " clip-rule="nonzero"/></clipPath><clipPath id="d4d2c3ac65"><path d="M 382.949219 153.105469 L 389.214844 153.105469 L 389.214844 158.054688 L 382.949219 158.054688 Z M 382.949219 153.105469 " clip-rule="nonzero"/></clipPath><clipPath id="e93c88ee63"><path d="M 395.746094 148.15625 L 404.804688 148.15625 L 404.804688 153.105469 L 395.746094 153.105469 Z M 395.746094 148.15625 " clip-rule="nonzero"/></clipPath><clipPath id="f03e99f5ee"><path d="M 348.828125 81.070312 L 408.023438 81.070312 L 408.023438 140.691406 L 348.828125 140.691406 Z M 348.828125 81.070312 " clip-rule="nonzero"/></clipPath><clipPath id="fcd1eff81a"><path d="M 351.839844 84.210938 L 405.011719 84.210938 L 405.011719 137.554688 L 351.839844 137.554688 Z M 351.839844 84.210938 " clip-rule="nonzero"/></clipPath><clipPath id="203da4ce4f"><path d="M 360.8125 93.265625 L 396.039062 93.265625 L 396.039062 128.496094 L 360.8125 128.496094 Z M 360.8125 93.265625 " clip-rule="nonzero"/></clipPath><clipPath id="fef5747ef1"><path d="M 267.058594 162.582031 L 326.257812 162.582031 L 326.257812 222.203125 L 267.058594 222.203125 Z M 267.058594 162.582031 " clip-rule="nonzero"/></clipPath><clipPath id="4dceafa4fb"><path d="M 270.074219 165.71875 L 323.242188 165.71875 L 323.242188 219.0625 L 270.074219 219.0625 Z M 270.074219 165.71875 " clip-rule="nonzero"/></clipPath><clipPath id="a33df4248b"><path d="M 279.042969 174.777344 L 314.269531 174.777344 L 314.269531 210.003906 L 279.042969 210.003906 Z M 279.042969 174.777344 " clip-rule="nonzero"/></clipPath></defs><g fill="#000000" fill-opacity="1"><g transform="translate(133.573346, 349.891204)"><g><path d="M 6.78125 0 L 6.78125 -91.140625 L 38.0625 -91.140625 L 38.0625 -79.078125 L 20.65625 -79.078125 L 20.65625 -54.84375 L 36.828125 -54.84375 L 36.828125 -42.71875 L 20.65625 -42.71875 L 20.65625 0 Z M 6.78125 0 "/></g></g></g><g fill="#000000" fill-opacity="1"><g transform="translate(184.869636, 349.891204)"><g><path d="M 7.359375 0 L 7.359375 -91.140625 L 21.234375 -91.140625 L 21.234375 0 Z M 7.359375 0 "/></g></g></g><g fill="#000000" fill-opacity="1"><g transform="translate(223.530504, 349.891204)"><g><path d="M 20.65625 -10.765625 L 25.21875 -10.765625 C 27.769531 -10.765625 29.625 -11.59375 30.78125 -13.25 C 31.9375 -14.914062 32.515625 -17.957031 32.515625 -22.375 L 32.46875 -67.375 C 32.46875 -72.101562 31.890625 -75.46875 30.734375 -77.46875 C 29.578125 -79.476562 27.582031 -80.484375 24.75 -80.484375 L 20.65625 -80.484375 Z M 6.78125 0 L 6.78125 -91.140625 L 27.234375 -91.140625 C 33.929688 -91.140625 38.789062 -89.160156 41.8125 -85.203125 C 44.832031 -81.253906 46.34375 -75.429688 46.34375 -67.734375 L 46.40625 -26.625 C 46.40625 -17.4375 44.882812 -10.703125 41.84375 -6.421875 C 38.800781 -2.140625 33.78125 0 26.78125 0 Z M 6.78125 0 "/></g></g></g><g fill="#000000" fill-opacity="1"><g transform="translate(285.649751, 349.891204)"><g><path d="M 6.84375 0 L 6.84375 -91.140625 L 37.390625 -91.140625 L 37.390625 -79.1875 L 20.71875 -79.1875 L 20.71875 -52.671875 L 36.5625 -52.671875 L 36.5625 -40.96875 L 20.71875 -40.96875 L 20.71875 -11.96875 L 38.015625 -11.96875 L 38.015625 0 Z M 6.84375 0 "/></g></g></g><g fill="#000000" fill-opacity="1"><g transform="translate(337.981724, 349.891204)"><g><path d="M 6.84375 0 L 6.84375 -91.140625 L 20.71875 -91.140625 L 20.71875 -11.8125 L 38.265625 -11.8125 L 38.265625 0 Z M 6.84375 0 "/></g></g></g><g fill="#000000" fill-opacity="1"><g transform="translate(387.465561, 349.891204)"><g><path d="M 45.3125 -24.859375 C 45.3125 -16.054688 43.738281 -9.539062 40.59375 -5.3125 C 37.457031 -1.082031 32.519531 1.03125 25.78125 1.03125 C 19.050781 1.03125 14.019531 -1.21875 10.6875 -5.71875 C 7.363281 -10.226562 5.703125 -16.710938 5.703125 -25.171875 L 5.703125 -64.890625 C 5.703125 -78.460938 9.253906 -86.9375 16.359375 -90.3125 C 18.984375 -91.5625 22.160156 -92.1875 25.890625 -92.1875 C 38.703125 -92.1875 45.109375 -84.109375 45.109375 -67.953125 L 45.109375 -55.40625 L 31.6875 -55.40625 L 31.6875 -67.0625 C 31.6875 -71.757812 31.289062 -75.117188 30.5 -77.140625 C 29.707031 -79.160156 28.15625 -80.171875 25.84375 -80.171875 C 23.53125 -80.171875 21.921875 -79.097656 21.015625 -76.953125 C 20.117188 -74.816406 19.671875 -71.539062 19.671875 -67.125 L 19.671875 -24.546875 C 19.671875 -19.640625 20.101562 -16.132812 20.96875 -14.03125 C 21.832031 -11.925781 23.40625 -10.875 25.6875 -10.875 C 27.96875 -10.875 29.535156 -11.941406 30.390625 -14.078125 C 31.253906 -16.222656 31.6875 -19.765625 31.6875 -24.703125 L 31.6875 -37.75 L 45.3125 -37.75 Z M 45.3125 -24.859375 "/></g></g></g><g fill="#000000" fill-opacity="1"><g transform="translate(447.306301, 349.891204)"><g><path d="M 6.84375 0 L 6.84375 -91.140625 L 20.71875 -91.140625 L 20.71875 -11.8125 L 38.265625 -11.8125 L 38.265625 0 Z M 6.84375 0 "/></g></g></g><g fill="#000000" fill-opacity="1"><g transform="translate(496.790138, 349.891204)"><g><path d="M 15.75 0 L 15.75 -36.40625 L 0.46875 -91.140625 L 13.71875 -91.140625 L 22.734375 -57.078125 L 22.9375 -57.078125 L 30.96875 -91.140625 L 44.171875 -91.140625 L 29.625 -36.40625 L 29.625 0 Z M 15.75 0 "/></g></g></g><g clip-path="url(#5ff701ed3d)"><path fill="#000000" d="M 267.253906 80.148438 L 326.699219 80.148438 L 326.699219 139.59375 L 267.253906 139.59375 Z M 267.253906 80.148438 " fill-opacity="1" fill-rule="nonzero"/></g><g clip-path="url(#d7eadfc73f)"><path fill="#ffffff" d="M 270.269531 83.285156 L 323.660156 83.285156 L 323.660156 136.679688 L 270.269531 136.679688 Z M 270.269531 83.285156 " fill-opacity="1" fill-rule="nonzero"/></g><g clip-path="url(#a849ff70e1)"><path fill="#000000" d="M 280.625 94.191406 L 314.203125 94.191406 L 314.203125 127.765625 L 280.625 127.765625 Z M 280.625 94.191406 " fill-opacity="1" fill-rule="nonzero"/></g><g clip-path="url(#66b0a4fe89)"><path fill="#000000" d="M 335.257812 80.714844 L 339.605469 80.714844 L 339.605469 108.675781 L 335.257812 108.675781 Z M 335.257812 80.714844 " fill-opacity="1" fill-rule="nonzero"/></g><g clip-path="url(#d77a6d1996)"><path fill="#000000" d="M 335.257812 115.21875 L 339.605469 115.21875 L 339.605469 127.023438 L 335.257812 127.023438 Z M 335.257812 115.21875 " fill-opacity="1" fill-rule="nonzero"/></g><g clip-path="url(#aad91d6374)"><path fill="#000000" d="M 335.257812 131.621094 L 339.605469 131.621094 L 339.605469 140.320312 L 335.257812 140.320312 Z M 335.257812 131.621094 " fill-opacity="1" fill-rule="nonzero"/></g><g clip-path="url(#5940024ef7)"><path fill="#000000" d="M 287.390625 154.933594 L 287.390625 149.964844 L 332.746094 149.964844 L 332.746094 154.933594 Z M 287.390625 154.933594 " fill-opacity="1" fill-rule="nonzero"/></g><g clip-path="url(#489f8508b0)"><path fill="#000000" d="M 267.253906 154.933594 L 267.253906 149.339844 L 282.789062 149.339844 L 282.789062 154.933594 Z M 267.253906 154.933594 " fill-opacity="1" fill-rule="nonzero"/></g><g clip-path="url(#3f92226bec)"><path fill="#000000" d="M 335.257812 164.371094 L 340.019531 164.371094 L 340.019531 215.398438 L 335.257812 215.398438 Z M 335.257812 164.371094 " fill-opacity="1" fill-rule="nonzero"/></g><g clip-path="url(#69a41df5fe)"><path fill="#000000" d="M 335.261719 181.8125 L 335.261719 177.046875 L 348.1875 177.046875 L 348.1875 181.8125 Z M 335.261719 181.8125 " fill-opacity="1" fill-rule="nonzero"/></g><g clip-path="url(#4cab592154)"><path fill="#000000" d="M 335.257812 215.582031 L 335.257812 210.816406 L 350.226562 210.816406 L 350.226562 215.582031 Z M 335.257812 215.582031 " fill-opacity="1" fill-rule="nonzero"/></g><g clip-path="url(#f6764b81b8)"><path fill="#000000" d="M 352.007812 204.917969 L 352.007812 200.15625 L 360.171875 200.15625 L 360.171875 204.917969 Z M 352.007812 204.917969 " fill-opacity="1" fill-rule="nonzero"/></g><g clip-path="url(#c0977bf4c4)"><path fill="#000000" d="M 363.960938 194.128906 L 363.960938 189.367188 L 379.609375 189.367188 L 379.609375 194.128906 Z M 363.960938 194.128906 " fill-opacity="1" fill-rule="nonzero"/></g><g clip-path="url(#e170307340)"><path fill="#000000" d="M 358.90625 179.335938 L 358.90625 174.574219 L 387.484375 174.574219 L 387.484375 179.335938 Z M 358.90625 179.335938 " fill-opacity="1" fill-rule="nonzero"/></g><g clip-path="url(#1ce9abfa7d)"><path fill="#000000" d="M 370.679688 164.371094 L 375.441406 164.371094 L 375.441406 175.9375 L 370.679688 175.9375 Z M 370.679688 164.371094 " fill-opacity="1" fill-rule="nonzero"/></g><g clip-path="url(#04bc607593)"><path fill="#000000" d="M 370 215.582031 L 370 210.820312 L 404.699219 210.820312 L 404.699219 215.582031 Z M 370 215.582031 " fill-opacity="1" fill-rule="nonzero"/></g><g clip-path="url(#bfde9cc488)"><path fill="#000000" d="M 383.992188 200.207031 L 388.753906 200.207031 L 388.753906 213.132812 L 383.992188 213.132812 Z M 383.992188 200.207031 " fill-opacity="1" fill-rule="nonzero"/></g><g clip-path="url(#d354196020)"><path fill="#000000" d="M 400.269531 179.34375 L 405.03125 179.34375 L 405.03125 211.320312 L 400.269531 211.320312 Z M 400.269531 179.34375 " fill-opacity="1" fill-rule="nonzero"/></g><g clip-path="url(#c8da81f170)"><path fill="#000000" d="M 400.269531 164.371094 L 405.03125 164.371094 L 405.03125 171.171875 L 400.269531 171.171875 Z M 400.269531 164.371094 " fill-opacity="1" fill-rule="nonzero"/></g><g clip-path="url(#1d368203ca)"><path fill="#000000" d="M 348.085938 162.574219 L 348.085938 157.8125 L 359.652344 157.8125 L 359.652344 162.574219 Z M 348.085938 162.574219 " fill-opacity="1" fill-rule="nonzero"/></g><g clip-path="url(#8251210635)"><path fill="#000000" d="M 360.335938 152.328125 L 360.335938 147.566406 L 370.542969 147.566406 L 370.542969 152.328125 Z M 360.335938 152.328125 " fill-opacity="1" fill-rule="nonzero"/></g><g clip-path="url(#d4d2c3ac65)"><path fill="#000000" d="M 382.949219 158.054688 L 382.949219 153.292969 L 389.070312 153.292969 L 389.070312 158.054688 Z M 382.949219 158.054688 " fill-opacity="1" fill-rule="nonzero"/></g><g clip-path="url(#e93c88ee63)"><path fill="#000000" d="M 395.746094 153.105469 L 395.746094 148.339844 L 404.589844 148.339844 L 404.589844 153.105469 Z M 395.746094 153.105469 " fill-opacity="1" fill-rule="nonzero"/></g><g clip-path="url(#f03e99f5ee)"><path fill="#000000" d="M 348.828125 81.070312 L 408.273438 81.070312 L 408.273438 140.515625 L 348.828125 140.515625 Z M 348.828125 81.070312 " fill-opacity="1" fill-rule="nonzero"/></g><g clip-path="url(#fcd1eff81a)"><path fill="#ffffff" d="M 351.839844 84.210938 L 405.230469 84.210938 L 405.230469 137.601562 L 351.839844 137.601562 Z M 351.839844 84.210938 " fill-opacity="1" fill-rule="nonzero"/></g><g clip-path="url(#203da4ce4f)"><path fill="#000000" d="M 360.8125 93.265625 L 396.039062 93.265625 L 396.039062 128.496094 L 360.8125 128.496094 Z M 360.8125 93.265625 " fill-opacity="1" fill-rule="nonzero"/></g><g clip-path="url(#fef5747ef1)"><path fill="#000000" d="M 267.058594 162.582031 L 326.503906 162.582031 L 326.503906 222.027344 L 267.058594 222.027344 Z M 267.058594 162.582031 " fill-opacity="1" fill-rule="nonzero"/></g><g clip-path="url(#4dceafa4fb)"><path fill="#ffffff" d="M 270.074219 165.71875 L 323.464844 165.71875 L 323.464844 219.113281 L 270.074219 219.113281 Z M 270.074219 165.71875 " fill-opacity="1" fill-rule="nonzero"/></g><g clip-path="url(#a33df4248b)"><path fill="#000000" d="M 279.042969 174.777344 L 314.269531 174.777344 L 314.269531 210.003906 L 279.042969 210.003906 Z M 279.042969 174.777344 " fill-opacity="1" fill-rule="nonzero"/></g></svg>