<svg xmlns="http://www.w3.org/2000/svg" xmlns:xlink="http://www.w3.org/1999/xlink" width="900" zoomAndPan="magnify" viewBox="0 0 675 449.999984" height="600" preserveAspectRatio="xMidYMid meet" version="1.0"><defs><g/><clipPath id="2adcc7a724"><path d="M 297.109375 166.863281 L 332.644531 166.863281 L 332.644531 170.867188 L 297.109375 170.867188 Z M 297.109375 166.863281 " clip-rule="nonzero"/></clipPath><clipPath id="a9d3fbd6bc"><path d="M 281.246094 166.597656 L 293.414062 166.597656 L 293.414062 170.867188 L 281.246094 170.867188 Z M 281.246094 166.597656 " clip-rule="nonzero"/></clipPath><clipPath id="796f8bc542"><path d="M 334.816406 178.367188 L 338.375 178.367188 L 338.375 218.714844 L 334.816406 218.714844 Z M 334.816406 178.367188 " clip-rule="nonzero"/></clipPath><clipPath id="55d07675eb"><path d="M 334.816406 188.375 L 344.921875 188.375 L 344.921875 192.105469 L 334.816406 192.105469 Z M 334.816406 188.375 " clip-rule="nonzero"/></clipPath><clipPath id="ef9a230ad2"><path d="M 334.816406 215.148438 L 346.445312 215.148438 L 346.445312 218.710938 L 334.816406 218.710938 Z M 334.816406 215.148438 " clip-rule="nonzero"/></clipPath><clipPath id="a4d47d0cab"><path d="M 348.015625 206.535156 L 354.570312 206.535156 L 354.570312 210.308594 L 348.015625 210.308594 Z M 348.015625 206.535156 " clip-rule="nonzero"/></clipPath><clipPath id="faa4d4b2a0"><path d="M 357.425781 198.25 L 369.636719 198.25 L 369.636719 201.8125 L 357.425781 201.8125 Z M 357.425781 198.25 " clip-rule="nonzero"/></clipPath><clipPath id="3772af849d"><path d="M 353.445312 186.597656 L 375.890625 186.597656 L 375.890625 190.15625 L 353.445312 190.15625 Z M 353.445312 186.597656 " clip-rule="nonzero"/></clipPath><clipPath id="0c5ac99321"><path d="M 362.71875 178.367188 L 366.617188 178.367188 L 366.617188 187.640625 L 362.71875 187.640625 Z M 362.71875 178.367188 " clip-rule="nonzero"/></clipPath><clipPath id="8fb048a60a"><path d="M 362.183594 215.148438 L 389.597656 215.148438 L 389.597656 218.710938 L 362.183594 218.710938 Z M 362.183594 215.148438 " clip-rule="nonzero"/></clipPath><clipPath id="d016c1b75f"><path d="M 373.207031 206.59375 L 376.820312 206.59375 L 376.820312 216.871094 L 373.207031 216.871094 Z M 373.207031 206.59375 " clip-rule="nonzero"/></clipPath><clipPath id="4220505065"><path d="M 386.027344 190.160156 L 389.597656 190.160156 L 389.597656 215.421875 L 386.027344 215.421875 Z M 386.027344 190.160156 " clip-rule="nonzero"/></clipPath><clipPath id="dfc90b58ce"><path d="M 386.027344 178.367188 L 389.597656 178.367188 L 389.597656 183.96875 L 386.027344 183.96875 Z M 386.027344 178.367188 " clip-rule="nonzero"/></clipPath><clipPath id="78bcf97400"><path d="M 344.921875 173.390625 L 353.777344 173.390625 L 353.777344 176.953125 L 344.921875 176.953125 Z M 344.921875 173.390625 " clip-rule="nonzero"/></clipPath><clipPath id="d14f7a3394"><path d="M 354.570312 164.988281 L 362.722656 164.988281 L 362.722656 168.886719 L 354.570312 168.886719 Z M 354.570312 164.988281 " clip-rule="nonzero"/></clipPath><clipPath id="38af18797f"><path d="M 372.382812 169.496094 L 377.320312 169.496094 L 377.320312 173.394531 L 372.382812 173.394531 Z M 372.382812 169.496094 " clip-rule="nonzero"/></clipPath><clipPath id="0fdddef911"><path d="M 382.460938 165.597656 L 389.597656 165.597656 L 389.597656 169.496094 L 382.460938 169.496094 Z M 382.460938 165.597656 " clip-rule="nonzero"/></clipPath><clipPath id="9df0ec0985"><path d="M 281.246094 177.878906 L 328.429688 177.878906 L 328.429688 225.0625 L 281.246094 225.0625 Z M 281.246094 177.878906 " clip-rule="nonzero"/></clipPath><clipPath id="b78a21a273"><path d="M 291.480469 188.289062 L 318.136719 188.289062 L 318.136719 214.585938 L 291.480469 214.585938 Z M 291.480469 188.289062 " clip-rule="nonzero"/></clipPath><clipPath id="c19ba49311"><path d="M 281.246094 112.46875 L 328.429688 112.46875 L 328.429688 159.652344 L 281.246094 159.652344 Z M 281.246094 112.46875 " clip-rule="nonzero"/></clipPath><clipPath id="103acc80b0"><path d="M 291.480469 122.878906 L 318.136719 122.878906 L 318.136719 149.175781 L 291.480469 149.175781 Z M 291.480469 122.878906 " clip-rule="nonzero"/></clipPath><clipPath id="ea823e090d"><path d="M 346.628906 112.46875 L 393.8125 112.46875 L 393.8125 159.652344 L 346.628906 159.652344 Z M 346.628906 112.46875 " clip-rule="nonzero"/></clipPath><clipPath id="5e460d08f8"><path d="M 356.863281 122.878906 L 383.519531 122.878906 L 383.519531 149.175781 L 356.863281 149.175781 Z M 356.863281 122.878906 " clip-rule="nonzero"/></clipPath><clipPath id="2e29042a92"><path d="M 335.359375 112.464844 L 339.726562 112.464844 L 339.726562 132.355469 L 335.359375 132.355469 Z M 335.359375 112.464844 " clip-rule="nonzero"/></clipPath><clipPath id="1545b7ab78"><path d="M 335.359375 139.710938 L 339.726562 139.710938 L 339.726562 150.304688 L 335.359375 150.304688 Z M 335.359375 139.710938 " clip-rule="nonzero"/></clipPath><clipPath id="728cb7b817"><path d="M 335.359375 155.003906 L 339.726562 155.003906 L 339.726562 161.703125 L 335.359375 161.703125 Z M 335.359375 155.003906 " clip-rule="nonzero"/></clipPath></defs><g fill="#5db075" fill-opacity="1"><g transform="translate(184.560861, 318.76228)"><g><path d="M 5.09375 0 L 5.09375 -68.359375 L 28.546875 -68.359375 L 28.546875 -59.3125 L 15.5 -59.3125 L 15.5 -41.140625 L 27.609375 -41.140625 L 27.609375 -32.046875 L 15.5 -32.046875 L 15.5 0 Z M 5.09375 0 "/></g></g></g><g fill="#5db075" fill-opacity="1"><g transform="translate(223.030782, 318.76228)"><g><path d="M 5.515625 0 L 5.515625 -68.359375 L 15.921875 -68.359375 L 15.921875 0 Z M 5.515625 0 "/></g></g></g><g fill="#5db075" fill-opacity="1"><g transform="translate(252.024836, 318.76228)"><g><path d="M 15.5 -8.078125 L 18.921875 -8.078125 C 20.835938 -8.078125 22.226562 -8.695312 23.09375 -9.9375 C 23.957031 -11.1875 24.390625 -13.46875 24.390625 -16.78125 L 24.359375 -50.53125 C 24.359375 -54.082031 23.921875 -56.609375 23.046875 -58.109375 C 22.179688 -59.609375 20.6875 -60.359375 18.5625 -60.359375 L 15.5 -60.359375 Z M 5.09375 0 L 5.09375 -68.359375 L 20.4375 -68.359375 C 25.457031 -68.359375 29.097656 -66.875 31.359375 -63.90625 C 33.628906 -60.945312 34.765625 -56.578125 34.765625 -50.796875 L 34.796875 -19.96875 C 34.796875 -13.070312 33.65625 -8.019531 31.375 -4.8125 C 29.101562 -1.601562 25.335938 0 20.078125 0 Z M 5.09375 0 "/></g></g></g><g fill="#5db075" fill-opacity="1"><g transform="translate(298.61139, 318.76228)"><g><path d="M 5.125 0 L 5.125 -68.359375 L 28.046875 -68.359375 L 28.046875 -59.390625 L 15.53125 -59.390625 L 15.53125 -39.5 L 27.421875 -39.5 L 27.421875 -30.71875 L 15.53125 -30.71875 L 15.53125 -8.96875 L 28.515625 -8.96875 L 28.515625 0 Z M 5.125 0 "/></g></g></g><g fill="#5db075" fill-opacity="1"><g transform="translate(337.858018, 318.76228)"><g><path d="M 5.125 0 L 5.125 -68.359375 L 15.53125 -68.359375 L 15.53125 -8.859375 L 28.703125 -8.859375 L 28.703125 0 Z M 5.125 0 "/></g></g></g><g fill="#5db075" fill-opacity="1"><g transform="translate(374.968698, 318.76228)"><g><path d="M 33.984375 -18.640625 C 33.984375 -12.035156 32.804688 -7.144531 30.453125 -3.96875 C 28.097656 -0.800781 24.394531 0.78125 19.34375 0.78125 C 14.289062 0.78125 10.515625 -0.90625 8.015625 -4.28125 C 5.515625 -7.664062 4.265625 -12.53125 4.265625 -18.875 L 4.265625 -48.671875 C 4.265625 -58.847656 6.9375 -65.203125 12.28125 -67.734375 C 14.238281 -68.671875 16.617188 -69.140625 19.421875 -69.140625 C 29.023438 -69.140625 33.828125 -63.078125 33.828125 -50.953125 L 33.828125 -41.5625 L 23.765625 -41.5625 L 23.765625 -50.296875 C 23.765625 -53.816406 23.46875 -56.332031 22.875 -57.84375 C 22.28125 -59.363281 21.113281 -60.125 19.375 -60.125 C 17.644531 -60.125 16.441406 -59.320312 15.765625 -57.71875 C 15.097656 -56.113281 14.765625 -53.65625 14.765625 -50.34375 L 14.765625 -18.40625 C 14.765625 -14.726562 15.085938 -12.097656 15.734375 -10.515625 C 16.378906 -8.941406 17.554688 -8.15625 19.265625 -8.15625 C 20.972656 -8.15625 22.148438 -8.957031 22.796875 -10.5625 C 23.441406 -12.164062 23.765625 -14.820312 23.765625 -18.53125 L 23.765625 -28.3125 L 33.984375 -28.3125 Z M 33.984375 -18.640625 "/></g></g></g><g fill="#5db075" fill-opacity="1"><g transform="translate(419.846495, 318.76228)"><g><path d="M 5.125 0 L 5.125 -68.359375 L 15.53125 -68.359375 L 15.53125 -8.859375 L 28.703125 -8.859375 L 28.703125 0 Z M 5.125 0 "/></g></g></g><g fill="#5db075" fill-opacity="1"><g transform="translate(456.957188, 318.76228)"><g><path d="M 11.8125 0 L 11.8125 -27.3125 L 0.34375 -68.359375 L 10.296875 -68.359375 L 17.046875 -42.796875 L 17.203125 -42.796875 L 23.234375 -68.359375 L 33.125 -68.359375 L 22.21875 -27.3125 L 22.21875 0 Z M 11.8125 0 "/></g></g></g><g clip-path="url(#2adcc7a724)"><path fill="#5db075" d="M 297.109375 170.867188 L 297.109375 166.953125 L 332.589844 166.953125 L 332.589844 170.867188 Z M 297.109375 170.867188 " fill-opacity="1" fill-rule="nonzero"/></g><g clip-path="url(#a9d3fbd6bc)"><path fill="#5db075" d="M 281.246094 170.867188 L 281.246094 166.707031 L 293.484375 166.707031 L 293.484375 170.867188 Z M 281.246094 170.867188 " fill-opacity="1" fill-rule="nonzero"/></g><g clip-path="url(#796f8bc542)"><path fill="#5db075" d="M 334.816406 178.367188 L 338.300781 178.367188 L 338.300781 218.832031 L 334.816406 218.832031 Z M 334.816406 178.367188 " fill-opacity="1" fill-rule="nonzero"/></g><g clip-path="url(#55d07675eb)"><path fill="#5db075" d="M 334.816406 192.105469 L 334.816406 188.355469 L 344.996094 188.355469 L 344.996094 192.105469 Z M 334.816406 192.105469 " fill-opacity="1" fill-rule="nonzero"/></g><g clip-path="url(#ef9a230ad2)"><path fill="#5db075" d="M 334.816406 218.710938 L 334.816406 215.226562 L 346.339844 215.226562 L 346.339844 218.710938 Z M 334.816406 218.710938 " fill-opacity="1" fill-rule="nonzero"/></g><g clip-path="url(#a4d47d0cab)"><path fill="#5db075" d="M 348.015625 210.308594 L 348.015625 206.554688 L 354.445312 206.554688 L 354.445312 210.308594 Z M 348.015625 210.308594 " fill-opacity="1" fill-rule="nonzero"/></g><g clip-path="url(#faa4d4b2a0)"><path fill="#5db075" d="M 357.425781 201.8125 L 357.425781 198.328125 L 369.753906 198.328125 L 369.753906 201.8125 Z M 357.425781 201.8125 " fill-opacity="1" fill-rule="nonzero"/></g><g clip-path="url(#3772af849d)"><path fill="#5db075" d="M 353.445312 190.15625 L 353.445312 186.675781 L 375.957031 186.675781 L 375.957031 190.15625 Z M 353.445312 190.15625 " fill-opacity="1" fill-rule="nonzero"/></g><g clip-path="url(#0c5ac99321)"><path fill="#5db075" d="M 362.71875 178.367188 L 366.738281 178.367188 L 366.738281 187.746094 L 362.71875 187.746094 Z M 362.71875 178.367188 " fill-opacity="1" fill-rule="nonzero"/></g><g clip-path="url(#8fb048a60a)"><path fill="#5db075" d="M 362.183594 218.710938 L 362.183594 215.226562 L 389.519531 215.226562 L 389.519531 218.710938 Z M 362.183594 218.710938 " fill-opacity="1" fill-rule="nonzero"/></g><g clip-path="url(#d016c1b75f)"><path fill="#5db075" d="M 373.207031 206.59375 L 376.691406 206.59375 L 376.691406 216.777344 L 373.207031 216.777344 Z M 373.207031 206.59375 " fill-opacity="1" fill-rule="nonzero"/></g><g clip-path="url(#4220505065)"><path fill="#5db075" d="M 386.027344 190.160156 L 389.511719 190.160156 L 389.511719 215.351562 L 386.027344 215.351562 Z M 386.027344 190.160156 " fill-opacity="1" fill-rule="nonzero"/></g><g clip-path="url(#dfc90b58ce)"><path fill="#5db075" d="M 386.027344 178.367188 L 389.511719 178.367188 L 389.511719 183.992188 L 386.027344 183.992188 Z M 386.027344 178.367188 " fill-opacity="1" fill-rule="nonzero"/></g><g clip-path="url(#78bcf97400)"><path fill="#5db075" d="M 344.921875 176.953125 L 344.921875 173.46875 L 353.765625 173.46875 L 353.765625 176.953125 Z M 344.921875 176.953125 " fill-opacity="1" fill-rule="nonzero"/></g><g clip-path="url(#d14f7a3394)"><path fill="#5db075" d="M 354.570312 168.886719 L 354.570312 164.867188 L 362.609375 164.867188 L 362.609375 168.886719 Z M 354.570312 168.886719 " fill-opacity="1" fill-rule="nonzero"/></g><g clip-path="url(#38af18797f)"><path fill="#5db075" d="M 372.382812 173.394531 L 372.382812 169.375 L 377.207031 169.375 L 377.207031 173.394531 Z M 372.382812 173.394531 " fill-opacity="1" fill-rule="nonzero"/></g><g clip-path="url(#0fdddef911)"><path fill="#5db075" d="M 382.460938 169.496094 L 382.460938 165.476562 L 389.699219 165.476562 L 389.699219 169.496094 Z M 382.460938 169.496094 " fill-opacity="1" fill-rule="nonzero"/></g><g clip-path="url(#9df0ec0985)"><path fill="#5db075" d="M 283.867188 180.5 L 325.808594 180.5 L 325.808594 222.441406 L 283.867188 222.441406 Z M 281.246094 225.0625 L 328.429688 225.0625 L 328.429688 177.878906 L 281.246094 177.878906 L 281.246094 225.0625 " fill-opacity="1" fill-rule="nonzero"/></g><g clip-path="url(#b78a21a273)"><path fill="#5db075" d="M 291.480469 188.289062 L 318.144531 188.289062 L 318.144531 214.523438 L 291.480469 214.523438 Z M 291.480469 188.289062 " fill-opacity="1" fill-rule="nonzero"/></g><g clip-path="url(#c19ba49311)"><path fill="#5db075" d="M 283.867188 115.089844 L 325.808594 115.089844 L 325.808594 157.03125 L 283.867188 157.03125 Z M 281.246094 159.652344 L 328.429688 159.652344 L 328.429688 112.46875 L 281.246094 112.46875 L 281.246094 159.652344 " fill-opacity="1" fill-rule="nonzero"/></g><g clip-path="url(#103acc80b0)"><path fill="#5db075" d="M 291.480469 122.878906 L 318.144531 122.878906 L 318.144531 149.113281 L 291.480469 149.113281 Z M 291.480469 122.878906 " fill-opacity="1" fill-rule="nonzero"/></g><g clip-path="url(#ea823e090d)"><path fill="#5db075" d="M 349.25 115.089844 L 391.191406 115.089844 L 391.191406 157.03125 L 349.25 157.03125 Z M 346.628906 159.652344 L 393.8125 159.652344 L 393.8125 112.46875 L 346.628906 112.46875 L 346.628906 159.652344 " fill-opacity="1" fill-rule="nonzero"/></g><g clip-path="url(#5e460d08f8)"><path fill="#5db075" d="M 356.863281 122.878906 L 383.527344 122.878906 L 383.527344 149.113281 L 356.863281 149.113281 Z M 356.863281 122.878906 " fill-opacity="1" fill-rule="nonzero"/></g><g clip-path="url(#2e29042a92)"><path fill="#5db075" d="M 339.726562 132.355469 L 335.476562 132.355469 L 335.476562 112.351562 L 339.726562 112.351562 Z M 339.726562 132.355469 " fill-opacity="1" fill-rule="nonzero"/></g><g clip-path="url(#1545b7ab78)"><path fill="#5db075" d="M 339.726562 150.304688 L 335.476562 150.304688 L 335.476562 139.804688 L 339.726562 139.804688 Z M 339.726562 150.304688 " fill-opacity="1" fill-rule="nonzero"/></g><g clip-path="url(#728cb7b817)"><path fill="#5db075" d="M 339.726562 161.703125 L 335.476562 161.703125 L 335.476562 154.953125 L 339.726562 154.953125 Z M 339.726562 161.703125 " fill-opacity="1" fill-rule="nonzero"/></g></svg>