<svg xmlns="http://www.w3.org/2000/svg" xmlns:xlink="http://www.w3.org/1999/xlink" width="900" zoomAndPan="magnify" viewBox="0 0 675 449.999984" height="600" preserveAspectRatio="xMidYMid meet" version="1.0"><defs><clipPath id="91e644c346"><path d="M 187.558594 72.933594 L 315.378906 72.933594 L 315.378906 201.671875 L 187.558594 201.671875 Z M 187.558594 72.933594 " clip-rule="nonzero"/></clipPath><clipPath id="c2f233cd80"><path d="M 194.066406 79.710938 L 308.871094 79.710938 L 308.871094 194.894531 L 194.066406 194.894531 Z M 194.066406 79.710938 " clip-rule="nonzero"/></clipPath><clipPath id="27a2a790bd"><path d="M 215.429688 101.261719 L 287.507812 101.261719 L 287.507812 173.34375 L 215.429688 173.34375 Z M 215.429688 101.261719 " clip-rule="nonzero"/></clipPath><clipPath id="57c80a260b"><path d="M 332.410156 72.933594 L 342.167969 72.933594 L 342.167969 133.574219 L 332.410156 133.574219 Z M 332.410156 72.933594 " clip-rule="nonzero"/></clipPath><clipPath id="bd87e9b57c"><path d="M 332.410156 147.433594 L 342.277344 147.433594 L 342.277344 173 L 332.410156 173 Z M 332.410156 147.433594 " clip-rule="nonzero"/></clipPath><clipPath id="97bd500746"><path d="M 332.410156 182.855469 L 342.167969 182.855469 L 342.167969 201.671875 L 332.410156 201.671875 Z M 332.410156 182.855469 " clip-rule="nonzero"/></clipPath><clipPath id="f3377ffaae"><path d="M 231.035156 219.742188 L 328.445312 219.742188 L 328.445312 230.714844 L 231.035156 230.714844 Z M 231.035156 219.742188 " clip-rule="nonzero"/></clipPath><clipPath id="0c6caeec60"><path d="M 187.558594 219.003906 L 220.90625 219.003906 L 220.90625 230.714844 L 187.558594 230.714844 Z M 187.558594 219.003906 " clip-rule="nonzero"/></clipPath><clipPath id="4f5f2a3fb5"><path d="M 334.390625 253.300781 L 344 253.300781 L 344 363.898438 L 334.390625 363.898438 Z M 334.390625 253.300781 " clip-rule="nonzero"/></clipPath><clipPath id="b6714f856f"><path d="M 334.390625 280.746094 L 362.097656 280.746094 L 362.097656 290.96875 L 334.390625 290.96875 Z M 334.390625 280.746094 " clip-rule="nonzero"/></clipPath><clipPath id="fee164c2cd"><path d="M 334.394531 354.128906 L 366 354.128906 L 366 363.890625 L 334.394531 363.890625 Z M 334.394531 354.128906 " clip-rule="nonzero"/></clipPath><clipPath id="5ff7b13aa8"><path d="M 370.574219 330.515625 L 388.542969 330.515625 L 388.542969 340.855469 L 370.574219 340.855469 Z M 370.574219 330.515625 " clip-rule="nonzero"/></clipPath><clipPath id="2ff4c14347"><path d="M 396.375 308 L 429.84375 308 L 429.84375 317.574219 L 396.375 317.574219 Z M 396.375 308 " clip-rule="nonzero"/></clipPath><clipPath id="a4d716ceee"><path d="M 385.46875 276 L 446.988281 276 L 446.988281 285.621094 L 385.46875 285.621094 Z M 385.46875 276 " clip-rule="nonzero"/></clipPath><clipPath id="4fa4cc272d"><path d="M 410.882812 253.300781 L 421.566406 253.300781 L 421.566406 278.722656 L 410.882812 278.722656 Z M 410.882812 253.300781 " clip-rule="nonzero"/></clipPath><clipPath id="cf1fe7376d"><path d="M 409.414062 354.132812 L 484.554688 354.132812 L 484.554688 363.890625 L 409.414062 363.890625 Z M 409.414062 354.132812 " clip-rule="nonzero"/></clipPath><clipPath id="e7bb7dbf25"><path d="M 439.628906 330.679688 L 449.535156 330.679688 L 449.535156 358.851562 L 439.628906 358.851562 Z M 439.628906 330.679688 " clip-rule="nonzero"/></clipPath><clipPath id="c2fff020ee"><path d="M 474.773438 285.628906 L 484.554688 285.628906 L 484.554688 354.871094 L 474.773438 354.871094 Z M 474.773438 285.628906 " clip-rule="nonzero"/></clipPath><clipPath id="2bcb05ae64"><path d="M 474.773438 253.300781 L 484.554688 253.300781 L 484.554688 268.65625 L 474.773438 268.65625 Z M 474.773438 253.300781 " clip-rule="nonzero"/></clipPath><clipPath id="f13aef074a"><path d="M 362.097656 239.675781 L 386.367188 239.675781 L 386.367188 249.433594 L 362.097656 249.433594 Z M 362.097656 239.675781 " clip-rule="nonzero"/></clipPath><clipPath id="ab6c30fdc4"><path d="M 388.542969 216.621094 L 410.882812 216.621094 L 410.882812 227.308594 L 388.542969 227.308594 Z M 388.542969 216.621094 " clip-rule="nonzero"/></clipPath><clipPath id="49ebb6c9d7"><path d="M 437.371094 228.984375 L 450.898438 228.984375 L 450.898438 239.671875 L 437.371094 239.671875 Z M 437.371094 228.984375 " clip-rule="nonzero"/></clipPath><clipPath id="1bc15de59c"><path d="M 465 218.296875 L 484.558594 218.296875 L 484.558594 228.984375 L 465 228.984375 Z M 465 218.296875 " clip-rule="nonzero"/></clipPath><clipPath id="b605e060df"><path d="M 188.402344 248.328125 L 316 248.328125 L 316 377 L 188.402344 377 Z M 188.402344 248.328125 " clip-rule="nonzero"/></clipPath><clipPath id="bb29d8857d"><path d="M 194.910156 255.105469 L 309.714844 255.105469 L 309.714844 370 L 194.910156 370 Z M 194.910156 255.105469 " clip-rule="nonzero"/></clipPath><clipPath id="2441b84569"><path d="M 216.273438 276.65625 L 288.351562 276.65625 L 288.351562 348.738281 L 216.273438 348.738281 Z M 216.273438 276.65625 " clip-rule="nonzero"/></clipPath><clipPath id="1b6f2542e9"><path d="M 359.621094 72.933594 L 487.441406 72.933594 L 487.441406 201.671875 L 359.621094 201.671875 Z M 359.621094 72.933594 " clip-rule="nonzero"/></clipPath><clipPath id="e2bf428c55"><path d="M 366.128906 79.710938 L 480.933594 79.710938 L 480.933594 194.894531 L 366.128906 194.894531 Z M 366.128906 79.710938 " clip-rule="nonzero"/></clipPath><clipPath id="fe27072292"><path d="M 387.492188 101.261719 L 459.570312 101.261719 L 459.570312 173.34375 L 387.492188 173.34375 Z M 387.492188 101.261719 " clip-rule="nonzero"/></clipPath></defs><g clip-path="url(#91e644c346)"><path fill="#ffffff" d="M 187.558594 72.933594 L 315.125 72.933594 L 315.125 201.292969 L 187.558594 201.292969 Z M 187.558594 72.933594 " fill-opacity="1" fill-rule="nonzero"/></g><g clip-path="url(#c2f233cd80)"><path fill="#000000" d="M 194.066406 79.710938 L 308.957031 79.710938 L 308.957031 194.601562 L 194.066406 194.601562 Z M 194.066406 79.710938 " fill-opacity="1" fill-rule="nonzero"/></g><g clip-path="url(#27a2a790bd)"><path fill="#ffffff" d="M 215.429688 101.261719 L 287.53125 101.261719 L 287.53125 173.363281 L 215.429688 173.363281 Z M 215.429688 101.261719 " fill-opacity="1" fill-rule="nonzero"/></g><g clip-path="url(#57c80a260b)"><path fill="#ffffff" d="M 332.410156 72.933594 L 342.472656 72.933594 L 342.472656 133.304688 L 332.410156 133.304688 Z M 332.410156 72.933594 " fill-opacity="1" fill-rule="nonzero"/></g><g clip-path="url(#bd87e9b57c)"><path fill="#ffffff" d="M 332.410156 147.433594 L 342.472656 147.433594 L 342.472656 172.921875 L 332.410156 172.921875 Z M 332.410156 147.433594 " fill-opacity="1" fill-rule="nonzero"/></g><g clip-path="url(#97bd500746)"><path fill="#ffffff" d="M 332.410156 182.855469 L 342.472656 182.855469 L 342.472656 201.636719 L 332.410156 201.636719 Z M 332.410156 182.855469 " fill-opacity="1" fill-rule="nonzero"/></g><g clip-path="url(#f3377ffaae)"><path fill="#ffffff" d="M 231.035156 230.714844 L 231.035156 219.984375 L 328.300781 219.984375 L 328.300781 230.714844 Z M 231.035156 230.714844 " fill-opacity="1" fill-rule="nonzero"/></g><g clip-path="url(#0c6caeec60)"><path fill="#ffffff" d="M 187.558594 230.714844 L 187.558594 219.3125 L 221.097656 219.3125 L 221.097656 230.714844 Z M 187.558594 230.714844 " fill-opacity="1" fill-rule="nonzero"/></g><g clip-path="url(#4f5f2a3fb5)"><path fill="#ffffff" d="M 334.390625 253.300781 L 343.941406 253.300781 L 343.941406 364.21875 L 334.390625 364.21875 Z M 334.390625 253.300781 " fill-opacity="1" fill-rule="nonzero"/></g><g clip-path="url(#b6714f856f)"><path fill="#ffffff" d="M 334.390625 290.96875 L 334.390625 280.683594 L 362.304688 280.683594 L 362.304688 290.96875 Z M 334.390625 290.96875 " fill-opacity="1" fill-rule="nonzero"/></g><g clip-path="url(#fee164c2cd)"><path fill="#ffffff" d="M 334.394531 363.890625 L 334.394531 354.339844 L 365.980469 354.339844 L 365.980469 363.890625 Z M 334.394531 363.890625 " fill-opacity="1" fill-rule="nonzero"/></g><g clip-path="url(#5ff7b13aa8)"><path fill="#ffffff" d="M 370.574219 340.855469 L 370.574219 330.570312 L 388.203125 330.570312 L 388.203125 340.855469 Z M 370.574219 340.855469 " fill-opacity="1" fill-rule="nonzero"/></g><g clip-path="url(#2ff4c14347)"><path fill="#ffffff" d="M 396.375 317.574219 L 396.375 308.023438 L 430.164062 308.023438 L 430.164062 317.574219 Z M 396.375 317.574219 " fill-opacity="1" fill-rule="nonzero"/></g><g clip-path="url(#a4d716ceee)"><path fill="#ffffff" d="M 385.46875 285.621094 L 385.46875 276.070312 L 447.171875 276.070312 L 447.171875 285.621094 Z M 385.46875 285.621094 " fill-opacity="1" fill-rule="nonzero"/></g><g clip-path="url(#4fa4cc272d)"><path fill="#ffffff" d="M 410.882812 253.300781 L 421.898438 253.300781 L 421.898438 279.007812 L 410.882812 279.007812 Z M 410.882812 253.300781 " fill-opacity="1" fill-rule="nonzero"/></g><g clip-path="url(#cf1fe7376d)"><path fill="#ffffff" d="M 409.414062 363.890625 L 409.414062 354.339844 L 484.339844 354.339844 L 484.339844 363.890625 Z M 409.414062 363.890625 " fill-opacity="1" fill-rule="nonzero"/></g><g clip-path="url(#e7bb7dbf25)"><path fill="#ffffff" d="M 439.628906 330.679688 L 449.175781 330.679688 L 449.175781 358.59375 L 439.628906 358.59375 Z M 439.628906 330.679688 " fill-opacity="1" fill-rule="nonzero"/></g><g clip-path="url(#c2fff020ee)"><path fill="#ffffff" d="M 474.773438 285.628906 L 484.324219 285.628906 L 484.324219 354.679688 L 474.773438 354.679688 Z M 474.773438 285.628906 " fill-opacity="1" fill-rule="nonzero"/></g><g clip-path="url(#2bcb05ae64)"><path fill="#ffffff" d="M 474.773438 253.300781 L 484.324219 253.300781 L 484.324219 268.726562 L 474.773438 268.726562 Z M 474.773438 253.300781 " fill-opacity="1" fill-rule="nonzero"/></g><g clip-path="url(#f13aef074a)"><path fill="#ffffff" d="M 362.097656 249.433594 L 362.097656 239.882812 L 386.335938 239.882812 L 386.335938 249.433594 Z M 362.097656 249.433594 " fill-opacity="1" fill-rule="nonzero"/></g><g clip-path="url(#ab6c30fdc4)"><path fill="#ffffff" d="M 388.542969 227.308594 L 388.542969 216.292969 L 410.578125 216.292969 L 410.578125 227.308594 Z M 388.542969 227.308594 " fill-opacity="1" fill-rule="nonzero"/></g><g clip-path="url(#49ebb6c9d7)"><path fill="#ffffff" d="M 437.371094 239.671875 L 437.371094 228.652344 L 450.589844 228.652344 L 450.589844 239.671875 Z M 437.371094 239.671875 " fill-opacity="1" fill-rule="nonzero"/></g><g clip-path="url(#1bc15de59c)"><path fill="#ffffff" d="M 465 228.984375 L 465 217.964844 L 484.832031 217.964844 L 484.832031 228.984375 Z M 465 228.984375 " fill-opacity="1" fill-rule="nonzero"/></g><g clip-path="url(#b605e060df)"><path fill="#ffffff" d="M 188.402344 248.328125 L 315.96875 248.328125 L 315.96875 376.691406 L 188.402344 376.691406 Z M 188.402344 248.328125 " fill-opacity="1" fill-rule="nonzero"/></g><g clip-path="url(#bb29d8857d)"><path fill="#000000" d="M 194.910156 255.105469 L 309.800781 255.105469 L 309.800781 369.996094 L 194.910156 369.996094 Z M 194.910156 255.105469 " fill-opacity="1" fill-rule="nonzero"/></g><g clip-path="url(#2441b84569)"><path fill="#ffffff" d="M 216.273438 276.65625 L 288.375 276.65625 L 288.375 348.761719 L 216.273438 348.761719 Z M 216.273438 276.65625 " fill-opacity="1" fill-rule="nonzero"/></g><g clip-path="url(#1b6f2542e9)"><path fill="#ffffff" d="M 359.621094 72.933594 L 487.1875 72.933594 L 487.1875 201.292969 L 359.621094 201.292969 Z M 359.621094 72.933594 " fill-opacity="1" fill-rule="nonzero"/></g><g clip-path="url(#e2bf428c55)"><path fill="#000000" d="M 366.128906 79.710938 L 481.019531 79.710938 L 481.019531 194.601562 L 366.128906 194.601562 Z M 366.128906 79.710938 " fill-opacity="1" fill-rule="nonzero"/></g><g clip-path="url(#fe27072292)"><path fill="#ffffff" d="M 387.492188 101.261719 L 459.59375 101.261719 L 459.59375 173.363281 L 387.492188 173.363281 Z M 387.492188 101.261719 " fill-opacity="1" fill-rule="nonzero"/></g></svg>