<svg xmlns="http://www.w3.org/2000/svg" xmlns:xlink="http://www.w3.org/1999/xlink" width="600" zoomAndPan="magnify" viewBox="0 0 450 449.999984" height="600" preserveAspectRatio="xMidYMid meet" version="1.0"><defs><clipPath id="d4db91b075"><path d="M 117.253906 220.011719 L 212 220.011719 L 212 230.691406 L 117.253906 230.691406 Z M 117.253906 220.011719 " clip-rule="nonzero"/></clipPath><clipPath id="e51dc7acd2"><path d="M 74.949219 219.300781 L 107.398438 219.300781 L 107.398438 230.695312 L 74.949219 230.695312 Z M 74.949219 219.300781 " clip-rule="nonzero"/></clipPath><clipPath id="032c49baa1"><path d="M 217.839844 250.691406 L 227.335938 250.691406 L 227.335938 358.320312 L 217.839844 358.320312 Z M 217.839844 250.691406 " clip-rule="nonzero"/></clipPath><clipPath id="5dbd494d2e"><path d="M 217.835938 277.394531 L 244.800781 277.394531 L 244.800781 287.34375 L 217.835938 287.34375 Z M 217.835938 277.394531 " clip-rule="nonzero"/></clipPath><clipPath id="0253d02cb3"><path d="M 217.835938 349 L 248.863281 349 L 248.863281 358.308594 L 217.835938 358.308594 Z M 217.835938 349 " clip-rule="nonzero"/></clipPath><clipPath id="331929e449"><path d="M 253.046875 325.832031 L 270.53125 325.832031 L 270.53125 335.894531 L 253.046875 335.894531 Z M 253.046875 325.832031 " clip-rule="nonzero"/></clipPath><clipPath id="afe66045be"><path d="M 278.15625 303.738281 L 310.726562 303.738281 L 310.726562 313.234375 L 278.15625 313.234375 Z M 278.15625 303.738281 " clip-rule="nonzero"/></clipPath><clipPath id="531105d2f0"><path d="M 267.535156 272.652344 L 327.402344 272.652344 L 327.402344 282.148438 L 267.535156 282.148438 Z M 267.535156 272.652344 " clip-rule="nonzero"/></clipPath><clipPath id="450a9db761"><path d="M 292.273438 250.691406 L 302.675781 250.691406 L 302.675781 275.429688 L 292.273438 275.429688 Z M 292.273438 250.691406 " clip-rule="nonzero"/></clipPath><clipPath id="d9e5969663"><path d="M 290.847656 349 L 363.96875 349 L 363.96875 358.308594 L 290.847656 358.308594 Z M 290.847656 349 " clip-rule="nonzero"/></clipPath><clipPath id="c3629e3d40"><path d="M 320.25 325.996094 L 329.890625 325.996094 L 329.890625 353.410156 L 320.25 353.410156 Z M 320.25 325.996094 " clip-rule="nonzero"/></clipPath><clipPath id="1a71f4c3da"><path d="M 354.453125 282.15625 L 363.96875 282.15625 L 363.96875 349.535156 L 354.453125 349.535156 Z M 354.453125 282.15625 " clip-rule="nonzero"/></clipPath><clipPath id="94512c0050"><path d="M 354.453125 250.691406 L 363.96875 250.691406 L 363.96875 265.636719 L 354.453125 265.636719 Z M 354.453125 250.691406 " clip-rule="nonzero"/></clipPath><clipPath id="42b50af43c"><path d="M 244.800781 237.425781 L 268.417969 237.425781 L 268.417969 246.925781 L 244.800781 246.925781 Z M 244.800781 237.425781 " clip-rule="nonzero"/></clipPath><clipPath id="a6209f9031"><path d="M 270.535156 215.003906 L 292 215.003906 L 292 225.402344 L 270.535156 225.402344 Z M 270.535156 215.003906 " clip-rule="nonzero"/></clipPath><clipPath id="44c1756103"><path d="M 318.050781 227.035156 L 331 227.035156 L 331 237.4375 L 318.050781 237.4375 Z M 318.050781 227.035156 " clip-rule="nonzero"/></clipPath><clipPath id="800ba53064"><path d="M 344.9375 216.636719 L 363.972656 216.636719 L 363.972656 227.035156 L 344.9375 227.035156 Z M 344.9375 216.636719 " clip-rule="nonzero"/></clipPath><clipPath id="14d0177e0b"><path d="M 74.945312 249.390625 L 200.808594 249.390625 L 200.808594 375.253906 L 74.945312 375.253906 Z M 74.945312 249.390625 " clip-rule="nonzero"/></clipPath><clipPath id="8d7e2cf02d"><path d="M 102.242188 277.167969 L 173.351562 277.167969 L 173.351562 347.3125 L 102.242188 347.3125 Z M 102.242188 277.167969 " clip-rule="nonzero"/></clipPath><clipPath id="a6e2b2c5d8"><path d="M 74.945312 74.910156 L 200.808594 74.910156 L 200.808594 200.773438 L 74.945312 200.773438 Z M 74.945312 74.910156 " clip-rule="nonzero"/></clipPath><clipPath id="46147a6870"><path d="M 102.242188 102.6875 L 173.351562 102.6875 L 173.351562 172.832031 L 102.242188 172.832031 Z M 102.242188 102.6875 " clip-rule="nonzero"/></clipPath><clipPath id="761056703e"><path d="M 249.355469 74.910156 L 375.21875 74.910156 L 375.21875 200.773438 L 249.355469 200.773438 Z M 249.355469 74.910156 " clip-rule="nonzero"/></clipPath><clipPath id="d26ea68f57"><path d="M 276.648438 102.6875 L 347.757812 102.6875 L 347.757812 172.832031 L 276.648438 172.832031 Z M 276.648438 102.6875 " clip-rule="nonzero"/></clipPath><clipPath id="74535135a8"><path d="M 219.292969 74.90625 L 230.9375 74.90625 L 230.9375 127.960938 L 219.292969 127.960938 Z M 219.292969 74.90625 " clip-rule="nonzero"/></clipPath><clipPath id="a102aed54c"><path d="M 219.292969 147.582031 L 230.9375 147.582031 L 230.9375 175.84375 L 219.292969 175.84375 Z M 219.292969 147.582031 " clip-rule="nonzero"/></clipPath><clipPath id="b6e58b733d"><path d="M 219.292969 188.371094 L 230.9375 188.371094 L 230.9375 206.246094 L 219.292969 206.246094 Z M 219.292969 188.371094 " clip-rule="nonzero"/></clipPath></defs><g clip-path="url(#d4db91b075)"><path fill="#191308" d="M 117.253906 230.691406 L 117.253906 220.246094 L 211.90625 220.246094 L 211.90625 230.691406 Z M 117.253906 230.691406 " fill-opacity="1" fill-rule="nonzero"/></g><g clip-path="url(#e51dc7acd2)"><path fill="#191308" d="M 74.949219 230.695312 L 74.949219 219.597656 L 107.585938 219.597656 L 107.585938 230.695312 Z M 74.949219 230.695312 " fill-opacity="1" fill-rule="nonzero"/></g><g clip-path="url(#032c49baa1)"><path fill="#191308" d="M 217.839844 250.691406 L 227.132812 250.691406 L 227.132812 358.632812 L 217.839844 358.632812 Z M 217.839844 250.691406 " fill-opacity="1" fill-rule="nonzero"/></g><g clip-path="url(#5dbd494d2e)"><path fill="#191308" d="M 217.835938 287.34375 L 217.835938 277.335938 L 245 277.335938 L 245 287.34375 Z M 217.835938 287.34375 " fill-opacity="1" fill-rule="nonzero"/></g><g clip-path="url(#0253d02cb3)"><path fill="#191308" d="M 217.835938 358.308594 L 217.835938 349.015625 L 248.574219 349.015625 L 248.574219 358.308594 Z M 217.835938 358.308594 " fill-opacity="1" fill-rule="nonzero"/></g><g clip-path="url(#331929e449)"><path fill="#191308" d="M 253.046875 335.894531 L 253.046875 325.886719 L 270.203125 325.886719 L 270.203125 335.894531 Z M 253.046875 335.894531 " fill-opacity="1" fill-rule="nonzero"/></g><g clip-path="url(#afe66045be)"><path fill="#191308" d="M 278.15625 313.234375 L 278.15625 303.941406 L 311.039062 303.941406 L 311.039062 313.234375 Z M 278.15625 313.234375 " fill-opacity="1" fill-rule="nonzero"/></g><g clip-path="url(#531105d2f0)"><path fill="#191308" d="M 267.535156 282.148438 L 267.535156 272.855469 L 327.582031 272.855469 L 327.582031 282.148438 Z M 267.535156 282.148438 " fill-opacity="1" fill-rule="nonzero"/></g><g clip-path="url(#450a9db761)"><path fill="#191308" d="M 292.273438 250.691406 L 302.996094 250.691406 L 302.996094 275.710938 L 292.273438 275.710938 Z M 292.273438 250.691406 " fill-opacity="1" fill-rule="nonzero"/></g><g clip-path="url(#d9e5969663)"><path fill="#191308" d="M 290.847656 358.308594 L 290.847656 349.015625 L 363.761719 349.015625 L 363.761719 358.308594 Z M 290.847656 358.308594 " fill-opacity="1" fill-rule="nonzero"/></g><g clip-path="url(#c3629e3d40)"><path fill="#191308" d="M 320.25 325.996094 L 329.542969 325.996094 L 329.542969 353.160156 L 320.25 353.160156 Z M 320.25 325.996094 " fill-opacity="1" fill-rule="nonzero"/></g><g clip-path="url(#1a71f4c3da)"><path fill="#191308" d="M 354.453125 282.15625 L 363.746094 282.15625 L 363.746094 349.347656 L 354.453125 349.347656 Z M 354.453125 282.15625 " fill-opacity="1" fill-rule="nonzero"/></g><g clip-path="url(#94512c0050)"><path fill="#191308" d="M 354.453125 250.691406 L 363.746094 250.691406 L 363.746094 265.703125 L 354.453125 265.703125 Z M 354.453125 250.691406 " fill-opacity="1" fill-rule="nonzero"/></g><g clip-path="url(#42b50af43c)"><path fill="#191308" d="M 244.800781 246.925781 L 244.800781 237.632812 L 268.390625 237.632812 L 268.390625 246.925781 Z M 244.800781 246.925781 " fill-opacity="1" fill-rule="nonzero"/></g><g clip-path="url(#a6209f9031)"><path fill="#191308" d="M 270.535156 225.402344 L 270.535156 214.679688 L 291.980469 214.679688 L 291.980469 225.402344 Z M 270.535156 225.402344 " fill-opacity="1" fill-rule="nonzero"/></g><g clip-path="url(#44c1756103)"><path fill="#191308" d="M 318.050781 237.4375 L 318.050781 226.714844 L 330.917969 226.714844 L 330.917969 237.4375 Z M 318.050781 237.4375 " fill-opacity="1" fill-rule="nonzero"/></g><g clip-path="url(#800ba53064)"><path fill="#191308" d="M 344.9375 227.035156 L 344.9375 216.3125 L 364.238281 216.3125 L 364.238281 227.035156 Z M 344.9375 227.035156 " fill-opacity="1" fill-rule="nonzero"/></g><g clip-path="url(#14d0177e0b)"><path fill="#191308" d="M 81.941406 256.382812 L 193.816406 256.382812 L 193.816406 368.261719 L 81.941406 368.261719 Z M 74.945312 375.253906 L 200.808594 375.253906 L 200.808594 249.390625 L 74.945312 249.390625 L 74.945312 375.253906 " fill-opacity="1" fill-rule="nonzero"/></g><g clip-path="url(#8d7e2cf02d)"><path fill="#191308" d="M 102.242188 277.167969 L 173.371094 277.167969 L 173.371094 347.144531 L 102.242188 347.144531 Z M 102.242188 277.167969 " fill-opacity="1" fill-rule="nonzero"/></g><g clip-path="url(#a6e2b2c5d8)"><path fill="#191308" d="M 81.941406 81.902344 L 193.816406 81.902344 L 193.816406 193.78125 L 81.941406 193.78125 Z M 74.945312 200.773438 L 200.808594 200.773438 L 200.808594 74.910156 L 74.945312 74.910156 L 74.945312 200.773438 " fill-opacity="1" fill-rule="nonzero"/></g><g clip-path="url(#46147a6870)"><path fill="#191308" d="M 102.242188 102.6875 L 173.371094 102.6875 L 173.371094 172.660156 L 102.242188 172.660156 Z M 102.242188 102.6875 " fill-opacity="1" fill-rule="nonzero"/></g><g clip-path="url(#761056703e)"><path fill="#191308" d="M 256.347656 81.902344 L 368.226562 81.902344 L 368.226562 193.78125 L 256.347656 193.78125 Z M 249.355469 200.773438 L 375.21875 200.773438 L 375.21875 74.910156 L 249.355469 74.910156 L 249.355469 200.773438 " fill-opacity="1" fill-rule="nonzero"/></g><g clip-path="url(#d26ea68f57)"><path fill="#191308" d="M 276.648438 102.6875 L 347.78125 102.6875 L 347.78125 172.660156 L 276.648438 172.660156 Z M 276.648438 102.6875 " fill-opacity="1" fill-rule="nonzero"/></g><g clip-path="url(#74535135a8)"><path fill="#191308" d="M 230.9375 127.960938 L 219.601562 127.960938 L 219.601562 74.601562 L 230.9375 74.601562 Z M 230.9375 127.960938 " fill-opacity="1" fill-rule="nonzero"/></g><g clip-path="url(#a102aed54c)"><path fill="#191308" d="M 230.9375 175.84375 L 219.601562 175.84375 L 219.601562 147.828125 L 230.9375 147.828125 Z M 230.9375 175.84375 " fill-opacity="1" fill-rule="nonzero"/></g><g clip-path="url(#b6e58b733d)"><path fill="#191308" d="M 230.9375 206.246094 L 219.601562 206.246094 L 219.601562 188.238281 L 230.9375 188.238281 Z M 230.9375 206.246094 " fill-opacity="1" fill-rule="nonzero"/></g></svg>